<?xml version="1.0" encoding="UTF-8"?>
<!--Generator: Apple Native CoreSVG 149-->
<!DOCTYPE svg
PUBLIC "-//W3C//DTD SVG 1.1//EN"
       "http://www.w3.org/Graphics/SVG/1.1/DTD/svg11.dtd">
<svg version="1.1" xmlns="http://www.w3.org/2000/svg" xmlns:xlink="http://www.w3.org/1999/xlink" width="3300" height="2200">
 <!--glyph: "uni100228.medium", point size: 100.000000, font version: "Version 16.0d18e1", template writer version: "8"-->
 <g id="Notes">
  <rect height="2200" id="artboard" style="fill:white;opacity:1" width="3300" x="0" y="0"/>
  <line id="" style="fill:none;stroke:black;opacity:1;stroke-width:0.5;" x1="263" x2="3036" y1="292" y2="292"/>
  <text style="stroke:none;fill:black;font-family:-apple-system,&quot;SF Pro Display&quot;,&quot;SF Pro Text&quot;,Helvetica,sans-serif;font-weight:bold;" transform="matrix(1 0 0 1 263 322)">Weight/Scale Variations</text>
  <text style="stroke:none;fill:black;font-family:-apple-system,&quot;SF Pro Display&quot;,&quot;SF Pro Text&quot;,Helvetica,sans-serif;text-anchor:middle;" transform="matrix(1 0 0 1 559.711 322)">Ultralight</text>
  <text style="stroke:none;fill:black;font-family:-apple-system,&quot;SF Pro Display&quot;,&quot;SF Pro Text&quot;,Helvetica,sans-serif;text-anchor:middle;" transform="matrix(1 0 0 1 856.422 322)">Thin</text>
  <text style="stroke:none;fill:black;font-family:-apple-system,&quot;SF Pro Display&quot;,&quot;SF Pro Text&quot;,Helvetica,sans-serif;text-anchor:middle;" transform="matrix(1 0 0 1 1153.13 322)">Light</text>
  <text style="stroke:none;fill:black;font-family:-apple-system,&quot;SF Pro Display&quot;,&quot;SF Pro Text&quot;,Helvetica,sans-serif;text-anchor:middle;" transform="matrix(1 0 0 1 1449.84 322)">Regular</text>
  <text style="stroke:none;fill:black;font-family:-apple-system,&quot;SF Pro Display&quot;,&quot;SF Pro Text&quot;,Helvetica,sans-serif;text-anchor:middle;" transform="matrix(1 0 0 1 1746.56 322)">Medium</text>
  <text style="stroke:none;fill:black;font-family:-apple-system,&quot;SF Pro Display&quot;,&quot;SF Pro Text&quot;,Helvetica,sans-serif;text-anchor:middle;" transform="matrix(1 0 0 1 2043.27 322)">Semibold</text>
  <text style="stroke:none;fill:black;font-family:-apple-system,&quot;SF Pro Display&quot;,&quot;SF Pro Text&quot;,Helvetica,sans-serif;text-anchor:middle;" transform="matrix(1 0 0 1 2339.98 322)">Bold</text>
  <text style="stroke:none;fill:black;font-family:-apple-system,&quot;SF Pro Display&quot;,&quot;SF Pro Text&quot;,Helvetica,sans-serif;text-anchor:middle;" transform="matrix(1 0 0 1 2636.69 322)">Heavy</text>
  <text style="stroke:none;fill:black;font-family:-apple-system,&quot;SF Pro Display&quot;,&quot;SF Pro Text&quot;,Helvetica,sans-serif;text-anchor:middle;" transform="matrix(1 0 0 1 2933.4 322)">Black</text>
  <line id="" style="fill:none;stroke:black;opacity:1;stroke-width:0.5;" x1="263" x2="3036" y1="1903" y2="1903"/>
  <g id="" transform="matrix(1 0 0 1 263 1933)">
   <path d="M9.24805 0.830078C13.5547 0.830078 17.1387-2.74414 17.1387-7.05078C17.1387-11.3574 13.5449-14.9316 9.23828-14.9316C4.94141-14.9316 1.36719-11.3574 1.36719-7.05078C1.36719-2.74414 4.95117 0.830078 9.24805 0.830078ZM9.24805-0.654297C5.70312-0.654297 2.87109-3.49609 2.87109-7.05078C2.87109-10.6055 5.69336-13.4473 9.23828-13.4473C12.793-13.4473 15.6348-10.6055 15.6445-7.05078C15.6543-3.49609 12.8027-0.654297 9.24805-0.654297ZM6.39648-6.31836L8.50586-6.31836L8.50586-4.19922C8.50586-3.75977 8.79883-3.45703 9.22852-3.45703C9.67773-3.45703 9.9707-3.75977 9.9707-4.19922L9.9707-6.31836L12.0996-6.31836C12.5391-6.31836 12.8418-6.61133 12.8418-7.04102C12.8418-7.48047 12.5391-7.7832 12.0996-7.7832L9.9707-7.7832L9.9707-9.89258C9.9707-10.3418 9.67773-10.6445 9.22852-10.6445C8.79883-10.6445 8.50586-10.3418 8.50586-9.89258L8.50586-7.7832L6.39648-7.7832C5.94727-7.7832 5.64453-7.48047 5.64453-7.04102C5.64453-6.61133 5.94727-6.31836 6.39648-6.31836Z"/>
  </g>
  <g id="" transform="matrix(1 0 0 1 281.506 1933)">
   <path d="M11.709 2.91016C17.1582 2.91016 21.6699-1.61133 21.6699-7.05078C21.6699-12.5 17.1484-17.0117 11.6992-17.0117C6.25977-17.0117 1.74805-12.5 1.74805-7.05078C1.74805-1.61133 6.26953 2.91016 11.709 2.91016ZM11.709 1.25C7.09961 1.25 3.41797-2.44141 3.41797-7.05078C3.41797-11.6602 7.08984-15.3516 11.6992-15.3516C16.3086-15.3516 20-11.6602 20.0098-7.05078C20.0195-2.44141 16.3184 1.25 11.709 1.25ZM7.98828-6.23047L10.8789-6.23047L10.8789-3.32031C10.8789-2.83203 11.2109-2.5 11.6895-2.5C12.1777-2.5 12.5195-2.83203 12.5195-3.32031L12.5195-6.23047L15.4297-6.23047C15.918-6.23047 16.25-6.5625 16.25-7.04102C16.25-7.5293 15.918-7.87109 15.4297-7.87109L12.5195-7.87109L12.5195-10.7617C12.5195-11.2695 12.1777-11.6016 11.6895-11.6016C11.2109-11.6016 10.8789-11.2598 10.8789-10.7617L10.8789-7.87109L7.98828-7.87109C7.48047-7.87109 7.14844-7.5293 7.14844-7.04102C7.14844-6.5625 7.49023-6.23047 7.98828-6.23047Z"/>
  </g>
  <g id="" transform="matrix(1 0 0 1 304.924 1933)">
   <path d="M14.9707 5.66406C21.9336 5.66406 27.6953-0.0976562 27.6953-7.05078C27.6953-14.0137 21.9238-19.7754 14.9609-19.7754C8.00781-19.7754 2.25586-14.0137 2.25586-7.05078C2.25586-0.0976562 8.01758 5.66406 14.9707 5.66406ZM14.9707 3.84766C8.93555 3.84766 4.08203-1.01562 4.08203-7.05078C4.08203-13.0957 8.92578-17.9492 14.9609-17.9492C21.0059-17.9492 25.8594-13.0957 25.8691-7.05078C25.8789-1.01562 21.0156 3.84766 14.9707 3.84766ZM10.0586-6.14258L14.0625-6.14258L14.0625-2.12891C14.0625-1.5918 14.4336-1.2207 14.9512-1.2207C15.4883-1.2207 15.8594-1.5918 15.8594-2.12891L15.8594-6.14258L19.8828-6.14258C20.4102-6.14258 20.791-6.51367 20.791-7.03125C20.791-7.56836 20.4199-7.94922 19.8828-7.94922L15.8594-7.94922L15.8594-11.9531C15.8594-12.5098 15.4883-12.8809 14.9512-12.8809C14.4336-12.8809 14.0625-12.5 14.0625-11.9531L14.0625-7.94922L10.0586-7.94922C9.50195-7.94922 9.13086-7.56836 9.13086-7.03125C9.13086-6.51367 9.51172-6.14258 10.0586-6.14258Z"/>
  </g>
  <text style="stroke:none;fill:black;font-family:-apple-system,&quot;SF Pro Display&quot;,&quot;SF Pro Text&quot;,Helvetica,sans-serif;font-weight:bold;" transform="matrix(1 0 0 1 263 1953)">Design Variations</text>
  <text style="stroke:none;fill:black;font-family:-apple-system,&quot;SF Pro Display&quot;,&quot;SF Pro Text&quot;,Helvetica,sans-serif;" transform="matrix(1 0 0 1 263 1971)">Symbols are supported in up to nine weights and three scales.</text>
  <text style="stroke:none;fill:black;font-family:-apple-system,&quot;SF Pro Display&quot;,&quot;SF Pro Text&quot;,Helvetica,sans-serif;" transform="matrix(1 0 0 1 263 1989)">For optimal layout with text and other symbols, vertically align</text>
  <text style="stroke:none;fill:black;font-family:-apple-system,&quot;SF Pro Display&quot;,&quot;SF Pro Text&quot;,Helvetica,sans-serif;" transform="matrix(1 0 0 1 263 2007)">symbols with the adjacent text.</text>
  <line id="" style="fill:none;stroke:#00AEEF;stroke-width:0.5;opacity:1.0;" x1="776" x2="776" y1="1919" y2="1933"/>
  <g id="" transform="matrix(1 0 0 1 776 1933)">
   <path d="M3.31055 0.126953C3.82812 0.126953 4.08203-0.0683594 4.26758-0.605469L5.52734-4.0625L11.2891-4.0625L12.5488-0.605469C12.7344-0.0683594 12.9883 0.126953 13.4961 0.126953C14.0137 0.126953 14.3457-0.185547 14.3457-0.673828C14.3457-0.839844 14.3164-0.986328 14.2383-1.20117L9.6582-13.3887C9.43359-13.9941 9.0332-14.2871 8.4082-14.2871C7.80273-14.2871 7.39258-13.9941 7.17773-13.3984L2.59766-1.19141C2.51953-0.976562 2.49023-0.830078 2.49023-0.664062C2.49023-0.175781 2.80273 0.126953 3.31055 0.126953ZM6.00586-5.53711L8.37891-12.1094L8.42773-12.1094L10.8008-5.53711Z"/>
  </g>
  <line id="" style="fill:none;stroke:#00AEEF;stroke-width:0.5;opacity:1.0;" x1="792.836" x2="792.836" y1="1919" y2="1933"/>
  <text style="stroke:none;fill:black;font-family:-apple-system,&quot;SF Pro Display&quot;,&quot;SF Pro Text&quot;,Helvetica,sans-serif;font-weight:bold;" transform="matrix(1 0 0 1 776 1953)">Margins</text>
  <text style="stroke:none;fill:black;font-family:-apple-system,&quot;SF Pro Display&quot;,&quot;SF Pro Text&quot;,Helvetica,sans-serif;" transform="matrix(1 0 0 1 776 1971)">Leading and trailing margins on the left and right side of each symbol</text>
  <text style="stroke:none;fill:black;font-family:-apple-system,&quot;SF Pro Display&quot;,&quot;SF Pro Text&quot;,Helvetica,sans-serif;" transform="matrix(1 0 0 1 776 1989)">can be adjusted by modifying the x-location of the margin guidelines.</text>
  <text style="stroke:none;fill:black;font-family:-apple-system,&quot;SF Pro Display&quot;,&quot;SF Pro Text&quot;,Helvetica,sans-serif;" transform="matrix(1 0 0 1 776 2007)">Modifications are automatically applied proportionally to all</text>
  <text style="stroke:none;fill:black;font-family:-apple-system,&quot;SF Pro Display&quot;,&quot;SF Pro Text&quot;,Helvetica,sans-serif;" transform="matrix(1 0 0 1 776 2025)">scales and weights.</text>
  <g id="" transform="matrix(1 0 0 1 1289 1933)">
   <path d="M2.8418 1.86523L4.54102 3.57422C5.40039 4.44336 6.38672 4.38477 7.31445 3.35938L17.4902-7.85156C17.7539-7.76367 18.0273-7.7832 18.3398-7.8418L19.4043-8.03711L20.0684-7.36328L20.0293-6.80664C19.9902-6.30859 20.1172-5.92773 20.6055-5.44922L21.3672-4.70703C21.8457-4.22852 22.4609-4.19922 22.9297-4.66797L25.8398-7.58789C26.3086-8.05664 26.2891-8.65234 25.8105-9.13086L25.0391-9.89258C24.5605-10.3711 24.1895-10.5273 23.7109-10.4883L23.1348-10.4395L22.4902-11.0742L22.7344-12.1973C22.8613-12.7637 22.7051-13.2031 22.1191-13.7891L19.9219-15.9766C16.582-19.2969 12.1484-19.2188 9.25781-16.3281C8.83789-15.918 8.80859-15.3418 9.04297-14.9512C9.27734-14.5898 9.73633-14.3555 10.3809-14.5215C11.8457-14.8633 13.3691-14.9219 14.7949-13.9844L14.209-12.5293C14.0137-12.0508 13.9844-11.6504 14.1113-11.2891L3.04688-0.898438C2.06055 0.0195312 1.98242 0.996094 2.8418 1.86523ZM10.752-15.957C13.1836-17.7344 16.4746-17.4316 18.7012-15.2051L21.1328-12.793C21.3672-12.5586 21.4062-12.373 21.3379-12.0312L21.0156-10.5469L22.5195-9.0625L23.5059-9.12109C23.7598-9.13086 23.8379-9.11133 24.0332-8.91602L24.6094-8.33984L22.168-5.89844L21.5918-6.47461C21.3965-6.66992 21.3672-6.74805 21.377-7.01172L21.4453-7.98828L19.9512-9.47266L18.4277-9.21875C18.1055-9.15039 17.959-9.17969 17.7148-9.41406L15.7129-11.416C15.459-11.6504 15.4297-11.8164 15.5859-12.1875L16.4648-14.2773C14.9023-15.7324 12.8711-16.3574 10.8398-15.7617C10.6836-15.7227 10.625-15.8496 10.752-15.957ZM5.27344 2.30469L4.10156 1.14258C3.63281 0.683594 3.74023 0.341797 4.14062-0.0195312L14.9512-10.1953L16.416-8.71094L6.42578 2.27539C6.07422 2.67578 5.74219 2.77344 5.27344 2.30469Z"/>
  </g>
  <text style="stroke:none;fill:black;font-family:-apple-system,&quot;SF Pro Display&quot;,&quot;SF Pro Text&quot;,Helvetica,sans-serif;font-weight:bold;" transform="matrix(1 0 0 1 1289 1953)">Exporting</text>
  <text style="stroke:none;fill:black;font-family:-apple-system,&quot;SF Pro Display&quot;,&quot;SF Pro Text&quot;,Helvetica,sans-serif;" transform="matrix(1 0 0 1 1289 1971)">Symbols should be outlined when exporting to ensure the</text>
  <text style="stroke:none;fill:black;font-family:-apple-system,&quot;SF Pro Display&quot;,&quot;SF Pro Text&quot;,Helvetica,sans-serif;" transform="matrix(1 0 0 1 1289 1989)">design is preserved when submitting to Xcode.</text>
  <text id="template-version" style="stroke:none;fill:black;font-family:-apple-system,&quot;SF Pro Display&quot;,&quot;SF Pro Text&quot;,Helvetica,sans-serif;text-anchor:end;" transform="matrix(1 0 0 1 3036 1933)">Template v.2.0</text>
  <text style="stroke:none;fill:black;font-family:-apple-system,&quot;SF Pro Display&quot;,&quot;SF Pro Text&quot;,Helvetica,sans-serif;text-anchor:end;" transform="matrix(1 0 0 1 3036 1951)">Requires Xcode 12 or greater</text>
  <text style="stroke:none;fill:black;font-family:-apple-system,&quot;SF Pro Display&quot;,&quot;SF Pro Text&quot;,Helvetica,sans-serif;text-anchor:end;" transform="matrix(1 0 0 1 3036 1969)">Generated from tray.and.arrow.down.fill</text>
  <text style="stroke:none;fill:black;font-family:-apple-system,&quot;SF Pro Display&quot;,&quot;SF Pro Text&quot;,Helvetica,sans-serif;text-anchor:end;" transform="matrix(1 0 0 1 3036 1987)">Typeset at 100 points</text>
  <text style="stroke:none;fill:black;font-family:-apple-system,&quot;SF Pro Display&quot;,&quot;SF Pro Text&quot;,Helvetica,sans-serif;" transform="matrix(1 0 0 1 263 726)">Small</text>
  <text style="stroke:none;fill:black;font-family:-apple-system,&quot;SF Pro Display&quot;,&quot;SF Pro Text&quot;,Helvetica,sans-serif;" transform="matrix(1 0 0 1 263 1156)">Medium</text>
  <text style="stroke:none;fill:black;font-family:-apple-system,&quot;SF Pro Display&quot;,&quot;SF Pro Text&quot;,Helvetica,sans-serif;" transform="matrix(1 0 0 1 263 1586)">Large</text>
 </g>
 <g id="Guides">
  <g id="H-reference" style="fill:#27AAE1;stroke:none;" transform="matrix(1 0 0 1 339 696)">
   <path d="M0.976562 0L3.66211 0L12.9883-24.4629L45.752-24.4629L55.127 0L57.7637 0L30.6152-70.459L28.125-70.459ZM29.3457-67.1387L29.4434-67.1387L44.873-26.709L13.8672-26.709Z"/>
  </g>
  <line id="Baseline-S" style="fill:none;stroke:#27AAE1;opacity:1;stroke-width:0.5;" x1="263" x2="3036" y1="696" y2="696"/>
  <line id="Capline-S" style="fill:none;stroke:#27AAE1;opacity:1;stroke-width:0.5;" x1="263" x2="3036" y1="625.541" y2="625.541"/>
  <g id="H-reference" style="fill:#27AAE1;stroke:none;" transform="matrix(1 0 0 1 339 1126)">
   <path d="M0.976562 0L3.66211 0L12.9883-24.4629L45.752-24.4629L55.127 0L57.7637 0L30.6152-70.459L28.125-70.459ZM29.3457-67.1387L29.4434-67.1387L44.873-26.709L13.8672-26.709Z"/>
  </g>
  <line id="Baseline-M" style="fill:none;stroke:#27AAE1;opacity:1;stroke-width:0.5;" x1="263" x2="3036" y1="1126" y2="1126"/>
  <line id="Capline-M" style="fill:none;stroke:#27AAE1;opacity:1;stroke-width:0.5;" x1="263" x2="3036" y1="1055.54" y2="1055.54"/>
  <g id="H-reference" style="fill:#27AAE1;stroke:none;" transform="matrix(1 0 0 1 339 1556)">
   <path d="M0.976562 0L3.66211 0L12.9883-24.4629L45.752-24.4629L55.127 0L57.7637 0L30.6152-70.459L28.125-70.459ZM29.3457-67.1387L29.4434-67.1387L44.873-26.709L13.8672-26.709Z"/>
  </g>
  <line id="Baseline-L" style="fill:none;stroke:#27AAE1;opacity:1;stroke-width:0.5;" x1="263" x2="3036" y1="1556" y2="1556"/>
  <line id="Capline-L" style="fill:none;stroke:#27AAE1;opacity:1;stroke-width:0.5;" x1="263" x2="3036" y1="1485.54" y2="1485.54"/>
  <line id="left-margin" style="fill:none;stroke:#00AEEF;stroke-width:0.5;opacity:1.0;" x1="1379.82" x2="1379.82" y1="1030.79" y2="1150.12"/>
  <line id="right-margin" style="fill:none;stroke:#00AEEF;stroke-width:0.5;opacity:1.0;" x1="1519.86" x2="1519.86" y1="1030.79" y2="1150.12"/>
 </g>
 <g id="Symbols">
  <g id="Black-L" transform="matrix(1 0 0 1 2841.51 1556)">
   <path d="M91.8945-31.2012C94.3359-31.2012 96.7285-32.0312 99.0723-34.3262L119.58-53.9551C121.094-55.4199 121.875-56.9824 121.875-59.1797C121.875-63.4766 118.213-66.4062 114.355-66.4062C112.158-66.4062 110.156-65.4785 108.74-63.916L102.441-57.2266L99.9512-52.2949L100.732-61.4746L100.732-106.982C100.732-111.621 96.875-115.674 91.8945-115.674C86.9629-115.674 83.1055-111.621 83.1055-106.982L83.1055-61.4746L83.8867-52.2949L81.3965-57.2266L75.0977-63.916C73.6816-65.4785 71.6309-66.4062 69.4336-66.4062C65.625-66.4062 61.9629-63.4766 61.9629-59.1797C61.9629-56.9824 62.7441-55.4199 64.2578-53.9551L84.7656-34.3262C87.1094-32.0312 89.502-31.2012 91.8945-31.2012ZM39.9902 33.1055L143.799 33.1055C159.082 33.1055 167.725 24.5117 167.725 9.32617L167.725-23.4863C167.725-32.0312 166.943-36.0352 163.672-41.8457L145.557-73.3398C138.232-86.1816 131.494-89.7461 118.604-89.7461L112.109-89.7461L112.109-74.6094L118.896-74.6094C122.656-74.6094 126.123-72.0215 127.979-68.7988L146.289-34.6191C147.461-32.7637 146.875-31.6895 144.336-31.6895L111.035-31.6895C106.689-31.6895 105.078-29.4434 105.078-26.8066L105.078-26.6113C105.078-20.5078 100.391-13.3301 91.8945-13.3301C83.3496-13.3301 78.7109-20.5078 78.7109-26.6113L78.7109-26.8066C78.7109-29.4434 77.0508-31.6895 72.7539-31.6895L39.4531-31.6895C36.8652-31.6895 36.377-32.8613 37.5-34.6191L55.8105-68.7988C57.666-72.0215 61.1328-74.6094 64.8926-74.6094L71.6797-74.6094L71.6797-89.7461L65.1367-89.7461C52.2461-89.7461 45.5566-86.1816 38.1836-73.3398L20.0684-41.8457C16.8457-36.0352 16.0645-32.0312 16.0645-23.4863L16.0645 9.32617C16.0645 24.5117 24.7559 33.1055 39.9902 33.1055Z"/>
  </g>
  <g id="Heavy-L" transform="matrix(1 0 0 1 2545.23 1556)">
   <path d="M91.5039-30.957C93.5547-30.957 95.6055-31.6895 97.6562-33.6914L118.506-53.7109C119.824-55.0293 120.557-56.3965 120.557-58.3496C120.557-62.1582 117.334-64.7461 113.916-64.7461C111.963-64.7461 110.156-63.9648 108.887-62.5488L101.66-54.8828L98.5352-49.9023L99.2188-59.082L99.2188-107.471C99.2188-111.572 95.8008-115.088 91.5039-115.088C87.1582-115.088 83.7402-111.572 83.7402-107.471L83.7402-59.082L84.4238-49.9023L81.2988-54.8828L74.0723-62.5488C72.8027-63.9648 70.9473-64.7461 69.043-64.7461C65.5762-64.7461 62.4023-62.1582 62.4023-58.3496C62.4023-56.3965 63.1348-55.0293 64.4531-53.7109L85.3027-33.6914C87.3535-31.6895 89.4043-30.957 91.5039-30.957ZM38.8184 32.5195L144.092 32.5195C158.74 32.5195 166.846 24.4141 166.846 9.91211L166.846-23.7793C166.846-31.4941 166.064-35.2051 162.988-40.332L143.75-71.1914C136.523-83.0078 130.371-86.7676 118.066-86.7676L110.986-86.7676L110.986-73.4375L118.457-73.4375C122.412-73.4375 126.123-70.6543 128.271-67.2363L147.852-34.082C149.219-32.0312 148.633-30.9082 145.996-30.9082L110.938-30.9082C106.885-30.9082 105.322-28.6621 105.322-26.0742L105.322-25.8301C105.322-19.1895 100.195-11.8164 91.4551-11.8164C82.666-11.8164 77.5879-19.1895 77.5879-25.8301L77.5879-26.0742C77.5879-28.6621 75.9766-30.9082 71.9727-30.9082L36.9629-30.9082C34.2285-30.9082 33.7402-32.1289 35.0586-34.082L54.5898-67.2363C56.7383-70.6543 60.4492-73.4375 64.4531-73.4375L71.9238-73.4375L71.9238-86.7676L64.8438-86.7676C52.4902-86.7676 46.3867-83.0078 39.1602-71.1914L19.9219-40.332C16.8457-35.2051 16.0645-31.4941 16.0645-23.7793L16.0645 9.91211C16.0645 24.4629 24.2188 32.5195 38.8184 32.5195Z"/>
  </g>
  <g id="Bold-L" transform="matrix(1 0 0 1 2249.01 1556)">
   <path d="M91.0156-30.6641C92.7246-30.6641 94.4336-31.25 96.0938-32.959L117.285-53.3691C118.457-54.541 119.092-55.7617 119.092-57.4219C119.092-60.6445 116.406-62.9395 113.379-62.9395C111.719-62.9395 110.156-62.2559 109.082-61.0352L100.781-52.2949L96.9727-47.168L97.5586-56.3965L97.5586-108.008C97.5586-111.475 94.6289-114.453 91.0156-114.453C87.3535-114.453 84.4238-111.475 84.4238-108.008L84.4238-56.3965L85.0098-47.168L81.1523-52.2949L72.9004-61.0352C71.7773-62.2559 70.2148-62.9395 68.5547-62.9395C65.5273-62.9395 62.8906-60.6445 62.8906-57.4219C62.8906-55.7617 63.5254-54.541 64.6973-53.3691L85.8887-32.959C87.5488-31.25 89.2578-30.6641 91.0156-30.6641ZM37.5 31.8848L144.385 31.8848C158.35 31.8848 165.869 24.3652 165.869 10.5469L165.869-24.1211C165.869-30.957 165.088-34.2285 162.207-38.7207L141.699-68.7988C134.619-79.4434 129.15-83.4961 117.432-83.4961L109.766-83.4961L109.766-72.1191L117.969-72.1191C122.217-72.1191 126.172-69.043 128.662-65.4785L149.561-33.4961C151.221-31.2012 150.586-30.0781 147.803-30.0781L110.84-30.0781C107.129-30.0781 105.566-27.7832 105.566-25.1953L105.566-24.9512C105.566-17.7246 100-10.1074 90.9668-10.1074C81.8848-10.1074 76.3672-17.7246 76.3672-24.9512L76.3672-25.1953C76.3672-27.7832 74.8047-30.0781 71.0938-30.0781L34.1309-30.0781C31.2988-30.0781 30.7617-31.2988 32.373-33.4961L53.2715-65.4785C55.7617-69.043 59.7168-72.1191 63.9648-72.1191L72.2168-72.1191L72.2168-83.4961L64.4531-83.4961C52.7832-83.4961 47.3145-79.4434 40.2344-68.7988L19.6777-38.7207C16.7969-34.2285 16.0645-30.957 16.0645-24.1211L16.0645 10.5469C16.0645 24.4141 23.6328 31.8848 37.5 31.8848Z"/>
  </g>
  <g id="Semibold-L" transform="matrix(1 0 0 1 1952.64 1556)">
   <path d="M90.6738-30.4688C92.1875-30.4688 93.5547-31.0059 95.0195-32.4219L116.455-53.1738C117.48-54.1992 118.066-55.2734 118.066-56.7871C118.066-59.6191 115.723-61.6699 112.988-61.6699C111.572-61.6699 110.156-61.084 109.18-59.9609L100.195-50.4883L95.8984-45.3125L96.3867-54.541L96.3867-108.398C96.3867-111.426 93.7988-114.014 90.6738-114.014C87.5-114.014 84.9121-111.426 84.9121-108.398L84.9121-54.541L85.4004-45.3125L81.1035-50.4883L72.0703-59.9609C71.0938-61.084 69.6777-61.6699 68.2617-61.6699C65.5273-61.6699 63.2324-59.6191 63.2324-56.7871C63.2324-55.2734 63.8184-54.1992 64.8438-53.1738L86.2793-32.4219C87.7441-31.0059 89.1602-30.4688 90.6738-30.4688ZM36.6211 31.3965L144.629 31.3965C158.057 31.3965 165.186 24.3164 165.186 10.9863L165.186-24.3652C165.186-30.5664 164.453-33.5938 161.67-37.5488L140.283-67.1875C133.301-77.002 128.271-81.2012 117.041-81.2012L108.887-81.2012L108.887-71.1914L117.627-71.1914C122.07-71.1914 126.221-67.9688 128.906-64.2578L150.781-33.1055C152.588-30.6152 151.904-29.4434 149.072-29.4434L110.742-29.4434C107.275-29.4434 105.762-27.1484 105.762-24.6094L105.762-24.3164C105.762-16.6992 99.9023-8.93555 90.625-8.93555C81.3477-8.93555 75.4883-16.6992 75.4883-24.3164L75.4883-24.6094C75.4883-27.1484 73.9746-29.4434 70.459-29.4434L32.2266-29.4434C29.2969-29.4434 28.7109-30.7129 30.4688-33.1055L52.3438-64.2578C55.0293-67.9688 59.1797-71.1914 63.623-71.1914L72.3633-71.1914L72.3633-81.2012L64.209-81.2012C52.9785-81.2012 47.9492-77.002 40.9668-67.1875L19.5801-37.5488C16.7969-33.5938 16.0645-30.5664 16.0645-24.3652L16.0645 10.9863C16.0645 24.3652 23.1934 31.3965 36.6211 31.3965Z"/>
  </g>
  <g id="Medium-L" transform="matrix(1 0 0 1 1656.2 1556)">
   <path d="M90.3809-30.3223C91.748-30.3223 92.9199-30.7617 94.2383-32.0312L115.82-53.0273C116.748-53.9551 117.285-54.9316 117.285-56.2988C117.285-58.8379 115.234-60.6934 112.695-60.6934C111.475-60.6934 110.156-60.1562 109.277-59.1797L99.7559-49.1211L95.0684-43.8965L95.5078-53.125L95.5078-108.643C95.5078-111.377 93.2129-113.672 90.3809-113.672C87.5977-113.672 85.3027-111.377 85.3027-108.643L85.3027-53.125L85.6934-43.8965L81.0547-49.1211L71.4844-59.1797C70.6055-60.1562 69.2871-60.6934 68.0176-60.6934C65.4785-60.6934 63.4766-58.8379 63.4766-56.2988C63.4766-54.9316 64.0137-53.9551 64.9414-53.0273L86.5723-32.0312C87.8418-30.7617 89.0625-30.3223 90.3809-30.3223ZM35.9375 31.0547L144.775 31.0547C157.861 31.0547 164.648 24.2676 164.648 11.3281L164.648-24.5117C164.648-30.3223 163.916-33.0566 161.279-36.7188L139.209-65.918C132.275-75.1465 127.637-79.4434 116.699-79.4434L108.252-79.4434L108.252-70.5078L117.334-70.5078C121.924-70.5078 126.221-67.1387 129.102-63.3301L151.66-32.7637C153.662-30.1758 152.93-29.0039 150-29.0039L110.693-29.0039C107.422-29.0039 105.859-26.709 105.859-24.1699L105.859-23.877C105.859-15.9668 99.7559-8.05664 90.3809-8.05664C80.957-8.05664 74.8535-15.9668 74.8535-23.877L74.8535-24.1699C74.8535-26.709 73.3398-29.0039 70.0195-29.0039L30.7617-29.0039C27.7344-29.0039 27.1484-30.2734 29.0527-32.7637L51.6113-63.3301C54.4922-67.1387 58.7891-70.5078 63.3789-70.5078L72.5098-70.5078L72.5098-79.4434L64.0137-79.4434C53.125-79.4434 48.4375-75.1465 41.5527-65.918L19.4336-36.7188C16.7969-33.0566 16.0645-30.3223 16.0645-24.5117L16.0645 11.3281C16.0645 24.3164 22.9004 31.0547 35.9375 31.0547Z"/>
  </g>
  <g id="Regular-L" transform="matrix(1 0 0 1 1359.81 1556)">
   <path d="M90.0879-30.127C91.1621-30.127 92.0898-30.4688 93.1641-31.543L114.99-52.832C115.82-53.6133 116.26-54.4922 116.26-55.6641C116.26-57.8125 114.551-59.4238 112.354-59.4238C111.328-59.4238 110.156-58.9844 109.424-58.1543L99.1211-47.3633L93.9941-42.041L94.3359-51.3184L94.3359-109.033C94.3359-111.279 92.3828-113.184 90.0879-113.184C87.7441-113.184 85.791-111.279 85.791-109.033L85.791-51.3184L86.1328-42.041L80.957-47.3633L70.7031-58.1543C69.9219-58.9844 68.75-59.4238 67.6758-59.4238C65.4785-59.4238 63.8184-57.8125 63.8184-55.6641C63.8184-54.4922 64.3066-53.6133 65.0879-52.832L86.9629-31.543C88.0371-30.4688 88.9648-30.127 90.0879-30.127ZM35.0586 30.6152L144.971 30.6152C157.617 30.6152 164.014 24.2188 164.014 11.7676L164.014-24.7559C164.014-29.9316 163.281-32.4219 160.742-35.5957L137.793-64.3066C131.006-72.7051 126.758-77.1973 116.309-77.1973L107.422-77.1973L107.422-69.5801L117.041-69.5801C121.777-69.5801 126.27-66.0645 129.346-62.1582L152.832-32.373C155.029-29.5898 154.297-28.418 151.27-28.418L110.645-28.418C107.568-28.418 106.055-26.123 106.055-23.584L106.055-23.291C106.055-14.9414 99.6582-6.88477 90.0391-6.88477C80.4199-6.88477 74.0234-14.9414 74.0234-23.291L74.0234-23.584C74.0234-26.123 72.5098-28.418 69.4336-28.418L28.8574-28.418C25.7324-28.418 25.1465-29.7363 27.1973-32.373L50.7324-62.1582C53.8086-66.0645 58.252-69.5801 63.0371-69.5801L72.7051-69.5801L72.7051-77.1973L63.7695-77.1973C53.2715-77.1973 49.0723-72.7051 42.2852-64.3066L19.2871-35.5957C16.7969-32.4219 16.0645-29.9316 16.0645-24.7559L16.0645 11.7676C16.0645 24.2676 22.4609 30.6152 35.0586 30.6152Z"/>
  </g>
  <g id="Light-L" transform="matrix(1 0 0 1 1063.56 1556)">
   <path d="M89.5996-30.0293C90.4785-30.0293 91.2109-30.3223 91.9922-31.1035L114.551-53.3691C115.186-54.0039 115.527-54.6387 115.527-55.5176C115.527-57.1777 114.209-58.4473 112.549-58.4473C111.719-58.4473 110.84-58.1055 110.254-57.4219L98.9746-45.8496L92.6758-39.4043L92.9199-48.3887L92.9199-108.252C92.9199-110.01 91.4062-111.475 89.5996-111.475C87.8418-111.475 86.3281-110.01 86.3281-108.252L86.3281-48.3887L86.5723-39.3555L80.2246-45.8496L68.9453-57.4219C68.3594-58.1055 67.4316-58.4473 66.6504-58.4473C64.9414-58.4473 63.6719-57.1777 63.6719-55.5176C63.6719-54.6387 64.0137-54.0039 64.6484-53.3691L87.2559-31.1035C88.0371-30.3223 88.7695-30.0293 89.5996-30.0293ZM34.0332 29.7852L145.117 29.7852C157.031 29.7852 163.086 23.6328 163.086 11.9141L163.086-23.584C163.086-27.9785 162.451-30.0781 160.303-32.7637L135.742-63.9648C129.736-71.4844 125.928-74.8535 116.406-74.8535L108.008-74.8535L108.008-68.9941L117.139-68.9941C122.168-68.9941 126.172-66.1621 129.248-62.2559L154.346-30.2734C156.006-28.0762 155.469-27.002 153.076-27.002L110.059-27.002C107.52-27.002 106.299-25.1953 106.299-22.998L106.299-22.6562C106.299-13.5254 99.3652-5.56641 89.5996-5.56641C79.834-5.56641 72.9004-13.5254 72.9004-22.6562L72.9004-22.998C72.9004-25.1953 71.6309-27.002 69.0918-27.002L26.123-27.002C23.6816-27.002 23.2422-28.1738 24.8535-30.2734L49.9512-62.2559C53.0273-66.1621 57.0312-68.9941 62.0605-68.9941L71.2402-68.9941L71.2402-74.8535L62.793-74.8535C53.2227-74.8535 49.4141-71.4844 43.4082-63.9648L18.8477-32.7637C16.6992-30.0781 16.0645-27.9785 16.0645-23.584L16.0645 11.9141C16.0645 23.7305 22.168 29.7852 34.0332 29.7852Z"/>
  </g>
  <g id="Thin-L" transform="matrix(1 0 0 1 767.433 1556)">
   <path d="M89.0137-29.9316C89.5508-29.9316 89.9902-30.0781 90.4297-30.5176L113.965-54.0527C114.355-54.4434 114.551-54.834 114.551-55.3223C114.551-56.3477 113.721-57.1777 112.793-57.1777C112.305-57.1777 111.719-56.8848 111.328-56.4941L98.7305-43.8477L90.8691-35.8887L91.0156-44.5801L91.0156-107.275C91.0156-108.35 90.0879-109.229 89.0137-109.229C87.9395-109.229 87.0605-108.35 87.0605-107.275L87.0605-44.5801L87.207-35.791L79.248-43.8477L66.6504-56.4941C66.2598-56.8848 65.6738-57.1777 65.1855-57.1777C64.209-57.1777 63.4277-56.3477 63.4277-55.3223C63.4277-54.834 63.623-54.4434 64.0137-54.0527L87.6465-30.5176C88.0859-30.0781 88.5254-29.9316 89.0137-29.9316ZM32.666 28.7109L145.312 28.7109C156.201 28.7109 161.914 22.8516 161.914 12.1094L161.914-22.0215C161.914-25.3906 161.426-26.9531 159.766-29.1016L133.057-63.5254C128.125-69.873 124.854-71.7773 116.553-71.7773L108.838-71.7773L108.838-68.1641L117.285-68.1641C122.656-68.1641 126.025-66.2598 129.102-62.4023L156.299-27.4902C157.324-26.0742 157.031-25.1465 155.518-25.1465L109.326-25.1465C107.52-25.1465 106.592-24.0234 106.592-22.2656L106.592-21.8262C106.592-11.6211 98.9746-3.85742 89.0137-3.85742C79.0039-3.85742 71.3867-11.6211 71.3867-21.8262L71.3867-22.2656C71.3867-24.0234 70.5078-25.1465 68.7012-25.1465L22.5098-25.1465C20.9473-25.1465 20.6543-26.0742 21.7285-27.4902L48.9258-62.4023C51.9531-66.2598 55.3711-68.1641 60.7422-68.1641L69.3359-68.1641L69.3359-71.7773L61.4258-71.7773C53.1738-71.7773 49.9023-69.873 44.9219-63.5254L18.2129-29.1016C16.6016-26.9531 16.0645-25.3906 16.0645-22.0215L16.0645 12.1094C16.0645 22.998 21.7773 28.7109 32.666 28.7109Z"/>
  </g>
  <g id="Ultralight-L" transform="matrix(1 0 0 1 471.015 1556)">
   <path d="M88.7207-29.834C89.0625-29.834 89.4043-29.9805 89.5996-30.2246L113.672-54.4434C113.916-54.6875 114.062-54.9316 114.062-55.2734C114.062-55.9082 113.428-56.4941 112.891-56.4941C112.598-56.4941 112.158-56.2988 111.914-56.0059L98.6328-42.8223L89.9414-34.082L90.0391-42.627L90.0391-106.738C90.0391-107.471 89.4531-108.057 88.7207-108.057C88.0371-108.057 87.4512-107.471 87.4512-106.738L87.4512-42.627L87.5-33.9844L78.7598-42.8223L65.4785-56.0059C65.1855-56.2988 64.7949-56.4941 64.502-56.4941C63.8672-56.4941 63.3301-55.9082 63.3301-55.2734C63.3301-54.9316 63.4766-54.6875 63.7207-54.4434L87.8418-30.2246C88.0859-29.9805 88.4277-29.834 88.7207-29.834ZM31.9824 28.1738L145.41 28.1738C155.811 28.1738 161.328 22.4609 161.328 12.207L161.328-21.1914C161.328-24.1211 160.889-25.3418 159.473-27.1973L131.689-63.3301C127.295-69.043 124.268-70.2148 116.602-70.2148L109.229-70.2148L109.229-67.7246L117.334-67.7246C122.9-67.7246 125.977-66.3574 129.004-62.5L157.275-26.0742C158.008-25.0488 157.812-24.2188 156.738-24.2188L108.936-24.2188C107.52-24.2188 106.787-23.3887 106.787-21.9238L106.787-21.3867C106.787-10.6934 98.8281-2.97852 88.7207-2.97852C78.6133-2.97852 70.6055-10.6934 70.6055-21.3867L70.6055-21.9238C70.6055-23.3887 69.9219-24.2188 68.457-24.2188L20.6543-24.2188C19.5801-24.2188 19.3848-25.0488 20.1172-26.0742L48.3887-62.5C51.416-66.3574 54.4922-67.7246 60.0586-67.7246L68.3594-67.7246L68.3594-70.2148L60.791-70.2148C53.125-70.2148 50.0977-69.043 45.7031-63.3301L17.9199-27.1973C16.5039-25.3418 16.0645-24.1211 16.0645-21.1914L16.0645 12.207C16.0645 22.6074 21.582 28.1738 31.9824 28.1738Z"/>
  </g>
  <g id="Black-M" transform="matrix(1 0 0 1 2861.84 1126)">
   <path d="M71.582-32.4219C73.7305-32.4219 75.9277-33.1543 78.0273-35.2051L93.8965-50.3906C95.166-51.6602 95.8496-52.9785 95.8496-54.834C95.8496-58.5449 92.5781-61.084 89.4043-61.084C87.4512-61.084 85.7422-60.2539 84.4727-58.9355L80.3711-54.5898L78.6621-50.293L79.3457-57.2754L79.3457-89.7461C79.3457-93.8477 76.0254-97.4609 71.582-97.4609C67.1875-97.4609 63.8672-93.8477 63.8672-89.7461L63.8672-57.2754L64.5508-50.293L62.8418-54.5898L58.6914-58.9355C57.4707-60.2539 55.7617-61.084 53.8086-61.084C50.5859-61.084 47.3145-58.5449 47.3145-54.834C47.3145-52.9785 47.998-51.6602 49.2676-50.3906L65.1855-35.2051C67.2363-33.1543 69.4336-32.4219 71.582-32.4219ZM31.9824 18.1152L111.133 18.1152C123.389 18.1152 130.664 10.8398 130.664-1.41602L130.664-25.0977C130.664-32.373 130.127-35.7422 127.539-40.8691L114.209-67.4316C108.74-78.3691 102.979-80.2246 92.7246-80.2246L88.7207-80.2246L88.7207-67.041L92.7734-67.041C95.5078-67.041 97.6562-65.7227 98.6816-63.4277L112.061-34.375C112.402-33.5449 112.109-32.8125 110.645-32.8125L85.8398-32.8125C82.4219-32.8125 81.25-31.2988 81.25-29.4434L81.25-29.2969C81.25-24.8047 77.8809-19.5801 71.582-19.5801C65.2344-19.5801 61.8652-24.8047 61.8652-29.2969L61.8652-29.4434C61.8652-31.2988 60.6934-32.8125 57.2754-32.8125L32.4707-32.8125C31.0547-32.8125 30.7129-33.5449 31.0547-34.375L44.4824-63.4277C45.5078-65.7227 47.6074-67.041 50.3418-67.041L54.4434-67.041L54.4434-80.2246L50.3906-80.2246C40.1367-80.2246 34.375-78.3691 28.9062-67.4316L15.5762-40.8691C12.9883-35.7422 12.4512-32.373 12.4512-25.0977L12.4512-1.41602C12.4512 10.8398 19.7266 18.1152 31.9824 18.1152Z"/>
  </g>
  <g id="Heavy-M" transform="matrix(1 0 0 1 2565.5 1126)">
   <path d="M71.2402-32.1777C73.0957-32.1777 75-32.8125 76.8066-34.5703L92.8223-49.9512C93.9941-51.0742 94.5801-52.2949 94.5801-53.9551C94.5801-57.2754 91.748-59.5215 88.8184-59.5215C87.1094-59.5215 85.5469-58.8379 84.4238-57.6172L79.541-52.4414L77.4414-48.3398L78.0762-55.4199L78.0762-90.4785C78.0762-94.0918 75.0977-97.2656 71.2402-97.2656C67.3828-97.2656 64.4043-94.0918 64.4043-90.4785L64.4043-55.4199L64.9902-48.3398L62.8906-52.4414L58.0078-57.6172C56.8848-58.8379 55.3223-59.5215 53.6133-59.5215C50.7324-59.5215 47.8516-57.2754 47.8516-53.9551C47.8516-52.2949 48.4863-51.0742 49.6094-49.9512L65.6738-34.5703C67.4805-32.8125 69.3848-32.1777 71.2402-32.1777ZM31.0059 17.6758L111.426 17.6758C123.193 17.6758 129.932 10.9375 129.932-0.830078L129.932-25.7324C129.932-32.3242 129.395-35.4492 126.904-39.9414L112.744-65.2344C107.227-75.1953 101.953-77.5879 92.0898-77.5879L87.3047-77.5879L87.3047-65.8691L92.2852-65.8691C95.2148-65.8691 97.7051-64.1602 99.0723-61.6699L113.379-34.3262C114.062-33.1055 113.672-32.3242 111.963-32.3242L85.8887-32.3242C82.6172-32.3242 81.4453-30.7129 81.4453-28.7598L81.4453-28.5645C81.4453-23.7305 77.7832-18.2617 71.1914-18.2617C64.6484-18.2617 60.9863-23.7305 60.9863-28.5645L60.9863-28.7598C60.9863-30.7129 59.7656-32.3242 56.4941-32.3242L30.4688-32.3242C28.7109-32.3242 28.3203-33.1543 29.0039-34.3262L43.3594-61.6699C44.6777-64.1602 47.2168-65.8691 50.1465-65.8691L55.0781-65.8691L55.0781-77.5879L50.293-77.5879C40.4297-77.5879 35.2051-75.1953 29.6875-65.2344L15.4785-39.9414C13.0371-35.4492 12.4512-32.3242 12.4512-25.7324L12.4512-0.830078C12.4512 10.9375 19.2383 17.6758 31.0059 17.6758Z"/>
  </g>
  <g id="Bold-M" transform="matrix(1 0 0 1 2269.18 1126)">
   <path d="M70.8496-31.8848C72.4121-31.8848 73.9258-32.4219 75.4395-33.8867L91.6504-49.4629C92.627-50.4883 93.2129-51.5137 93.2129-52.9785C93.2129-55.8594 90.7715-57.8125 88.1836-57.8125C86.7188-57.8125 85.4004-57.2266 84.4238-56.1523L78.6621-50.0488L76.123-46.1914L76.6602-53.3203L76.6602-91.3086C76.6602-94.3848 74.0723-97.0215 70.8496-97.0215C67.5781-97.0215 65.0391-94.3848 65.0391-91.3086L65.0391-53.3203L65.5273-46.1426L62.9883-50.0488L57.2266-56.1523C56.25-57.2266 54.8828-57.8125 53.418-57.8125C50.8301-57.8125 48.4375-55.8594 48.4375-52.9785C48.4375-51.5137 49.0234-50.4883 50-49.4629L66.2109-33.8867C67.7246-32.4219 69.2383-31.8848 70.8496-31.8848ZM29.8828 17.1875L111.719 17.1875C122.949 17.1875 129.15 10.9863 129.15-0.146484L129.15-26.416C129.15-32.2754 128.564-35.0586 126.172-38.9648L111.084-62.6953C105.469-71.6797 100.83-74.6582 91.4062-74.6582L85.791-74.6582L85.791-64.6484L91.6992-64.6484C94.8242-64.6484 97.7539-62.4023 99.5117-59.7168L114.844-34.2773C115.967-32.6172 115.479-31.7871 113.428-31.7871L85.9863-31.7871C82.9102-31.7871 81.6406-29.9805 81.6406-27.9785L81.6406-27.7832C81.6406-22.5586 77.6367-16.7969 70.8008-16.7969C63.9648-16.7969 59.9609-22.5586 59.9609-27.7832L59.9609-27.9785C59.9609-29.9805 58.6914-31.7871 55.6152-31.7871L28.2227-31.7871C26.0742-31.7871 25.6348-32.7148 26.7578-34.2773L42.0898-59.7168C43.7988-62.4023 46.7285-64.6484 49.9023-64.6484L55.8105-64.6484L55.8105-74.6582L50.1953-74.6582C40.7227-74.6582 36.084-71.6797 30.5176-62.6953L15.3809-38.9648C13.0371-35.0586 12.4512-32.2754 12.4512-26.416L12.4512-0.146484C12.4512 11.0352 18.6523 17.1875 29.8828 17.1875Z"/>
  </g>
  <g id="Semibold-M" transform="matrix(1 0 0 1 1972.76 1126)">
   <path d="M70.5566-31.6895C71.9238-31.6895 73.1934-32.1289 74.5117-33.4473L90.8203-49.1211C91.6992-50.0488 92.2363-50.9766 92.2363-52.2949C92.2363-54.834 90.1367-56.6406 87.7441-56.6406C86.4746-56.6406 85.2539-56.1035 84.375-55.127L78.0273-48.3887L75.2441-44.6777L75.6348-51.8555L75.6348-91.8945C75.6348-94.5801 73.3887-96.875 70.5566-96.875C67.7246-96.875 65.4297-94.5801 65.4297-91.8945L65.4297-51.8555L65.8691-44.6777L63.0371-48.3887L56.6895-55.127C55.8594-56.1035 54.5898-56.6406 53.3203-56.6406C50.9277-56.6406 48.877-54.834 48.877-52.2949C48.877-50.9766 49.3652-50.0488 50.2441-49.1211L66.5527-33.4473C67.9199-32.1289 69.1895-31.6895 70.5566-31.6895ZM29.1016 16.8457L111.914 16.8457C122.803 16.8457 128.564 11.084 128.564 0.292969L128.564-26.9043C128.564-32.2754 127.979-34.8145 125.684-38.2812L109.912-60.9863C104.297-69.2383 100.098-72.6074 90.918-72.6074L84.7168-72.6074L84.7168-63.7695L91.3086-63.7695C94.5801-63.7695 97.8027-61.1816 99.8047-58.3984L115.869-34.2773C117.285-32.2754 116.748-31.3965 114.404-31.3965L85.9863-31.3965C83.0566-31.3965 81.7871-29.541 81.7871-27.4414L81.7871-27.2461C81.7871-21.7285 77.5391-15.7715 70.5078-15.7715C63.4766-15.7715 59.2285-21.7285 59.2285-27.2461L59.2285-27.4414C59.2285-29.541 57.959-31.3965 55.0293-31.3965L26.6602-31.3965C24.2676-31.3965 23.8281-32.373 25.1953-34.2773L41.2598-58.3984C43.2129-61.1816 46.4355-63.7695 49.707-63.7695L56.2988-63.7695L56.2988-72.6074L50.0977-72.6074C40.9668-72.6074 36.7188-69.2383 31.1035-60.9863L15.332-38.2812C13.0371-34.8145 12.4512-32.2754 12.4512-26.9043L12.4512 0.292969C12.4512 11.084 18.2617 16.8457 29.1016 16.8457Z"/>
  </g>
  <g id="Medium-M" transform="matrix(1 0 0 1 1676.24 1126)">
   <path d="M70.3125-31.543C71.5332-31.543 72.6074-31.9336 73.8281-33.1055L90.1855-48.877C91.0156-49.707 91.5039-50.5859 91.5039-51.8066C91.5039-54.1016 89.6484-55.7129 87.4023-55.7129C86.2793-55.7129 85.1562-55.2734 84.375-54.3945L77.5391-47.1191L74.5117-43.5059L74.9023-50.7812L74.9023-92.2852C74.9023-94.7266 72.8516-96.7773 70.3125-96.7773C67.8223-96.7773 65.7715-94.7266 65.7715-92.2852L65.7715-50.7812L66.1133-43.5059L63.0859-47.1191L56.2988-54.3945C55.5176-55.2734 54.3457-55.7129 53.2227-55.7129C50.9766-55.7129 49.1699-54.1016 49.1699-51.8066C49.1699-50.5859 49.6094-49.707 50.4395-48.877L66.8457-33.1055C68.0176-31.9336 69.1406-31.543 70.3125-31.543ZM28.5156 16.6016L112.061 16.6016C122.656 16.6016 128.174 11.1328 128.174 0.683594L128.174-27.2949C128.174-32.2266 127.539-34.668 125.293-37.7441L109.082-59.668C103.418-67.3828 99.4629-71.0938 90.5273-71.0938L83.9355-71.0938L83.9355-63.0859L91.0156-63.0859C94.4336-63.0859 97.8516-60.2539 100-57.373L116.602-34.2285C118.262-32.0312 117.676-31.1035 115.186-31.1035L86.0352-31.1035C83.2031-31.1035 81.9336-29.1504 81.9336-27.0508L81.9336-26.8555C81.9336-21.1426 77.4902-14.9902 70.3125-14.9902C63.1348-14.9902 58.6914-21.1426 58.6914-26.8555L58.6914-27.0508C58.6914-29.1504 57.4219-31.1035 54.5898-31.1035L25.4395-31.1035C22.9004-31.1035 22.4121-32.1777 23.9746-34.2285L40.5762-57.373C42.7734-60.2539 46.1914-63.0859 49.6094-63.0859L56.6895-63.0859L56.6895-71.0938L50.0488-71.0938C41.1133-71.0938 37.207-67.3828 31.543-59.668L15.2832-37.7441C13.0371-34.668 12.4512-32.2266 12.4512-27.2949L12.4512 0.683594C12.4512 11.1328 17.9688 16.6016 28.5156 16.6016Z"/>
  </g>
  <g id="Regular-M" transform="matrix(1 0 0 1 1379.82 1126)">
   <path d="M70.0684-31.3477C71.0449-31.3477 71.9238-31.6406 72.9004-32.6172L89.3555-48.5352C90.1367-49.2676 90.5273-50.0977 90.5273-51.123C90.5273-53.125 89.0137-54.541 86.9629-54.541C86.0352-54.541 85.0098-54.1504 84.3262-53.3691L76.9043-45.5078L73.6328-42.041L73.9258-49.3652L73.9258-92.8711C73.9258-94.9219 72.168-96.6309 70.0684-96.6309C67.9688-96.6309 66.1621-94.9219 66.1621-92.8711L66.1621-49.3652L66.5039-42.041L63.1836-45.5078L55.7617-53.3691C55.0781-54.1504 54.0039-54.541 53.0762-54.541C51.0254-54.541 49.5605-53.125 49.5605-51.123C49.5605-50.0977 50-49.2676 50.7324-48.5352L67.2363-32.6172C68.2129-31.6406 69.043-31.3477 70.0684-31.3477ZM27.7832 16.2598L112.256 16.2598C122.51 16.2598 127.588 11.1816 127.588 1.12305L127.588-27.7832C127.588-32.2266 127.002-34.4238 124.805-37.0605L107.959-57.959C102.246-64.9902 98.7305-69.0918 90.0879-69.0918L82.9102-69.0918L82.9102-62.207L90.625-62.207C94.1895-62.207 97.9004-59.082 100.293-56.0547L117.627-34.2285C119.58-31.7383 118.896-30.7617 116.211-30.7617L86.084-30.7617C83.3496-30.7617 82.0801-28.6621 82.0801-26.5137L82.0801-26.3184C82.0801-20.3125 77.3926-14.0137 70.0195-14.0137C62.6953-14.0137 58.0078-20.3125 58.0078-26.3184L58.0078-26.5137C58.0078-28.6621 56.6895-30.7617 53.9551-30.7617L23.9258-30.7617C21.0938-30.7617 20.5566-31.8848 22.4609-34.2285L39.7461-56.0547C42.1387-59.082 45.8496-62.207 49.4141-62.207L57.1777-62.207L57.1777-69.0918L50-69.0918C41.3086-69.0918 37.8418-64.9902 32.1289-57.959L15.2344-37.0605C13.0859-34.4238 12.4512-32.2266 12.4512-27.7832L12.4512 1.12305C12.4512 11.1816 17.5781 16.2598 27.7832 16.2598Z"/>
  </g>
  <g id="Light-M" transform="matrix(1 0 0 1 1083.5 1126)">
   <path d="M69.6777-31.25C70.4102-31.25 71.0938-31.4941 71.8262-32.2266L88.9648-49.0234C89.5508-49.6094 89.8926-50.1953 89.8926-51.0254C89.8926-52.5391 88.6719-53.6621 87.1582-53.6621C86.4258-53.6621 85.5957-53.3691 85.0586-52.7344L76.7578-44.1406L72.4121-39.6484L72.6562-46.7285L72.6562-92.1875C72.6562-93.75 71.2891-95.1172 69.6777-95.1172C68.0176-95.1172 66.6504-93.75 66.6504-92.1875L66.6504-46.7285L66.8945-39.5996L62.5-44.1406L54.1992-52.7344C53.6621-53.3691 52.832-53.6621 52.0996-53.6621C50.5859-53.6621 49.4141-52.5391 49.4141-51.0254C49.4141-50.1953 49.7559-49.6094 50.293-49.0234L67.4805-32.2266C68.2129-31.4941 68.8965-31.25 69.6777-31.25ZM26.8555 15.5273L112.402 15.5273C121.973 15.5273 126.807 10.6445 126.807 1.26953L126.807-26.709C126.807-30.4688 126.27-32.2754 124.463-34.5703L106.104-57.666C101.123-63.8672 97.998-66.9922 90.1855-66.9922L83.4473-66.9922L83.4473-61.6699L90.7227-61.6699C94.5312-61.6699 97.8027-59.1797 100.195-56.1523L118.945-32.3242C120.459-30.3711 119.971-29.4922 117.822-29.4922L85.5469-29.4922C83.3496-29.4922 82.2754-27.8809 82.2754-26.0254L82.2754-25.7812C82.2754-19.043 77.1484-12.8418 69.6289-12.8418C62.1094-12.8418 56.9824-19.043 56.9824-25.7812L56.9824-26.0254C56.9824-27.8809 55.9082-29.4922 53.7109-29.4922L21.4355-29.4922C19.2871-29.4922 18.8477-30.4688 20.3125-32.3242L39.0625-56.1523C41.4551-59.1797 44.7266-61.6699 48.5352-61.6699L55.8594-61.6699L55.8594-66.9922L49.0723-66.9922C41.2598-66.9922 38.1348-63.8672 33.1543-57.666L14.7949-34.5703C12.9883-32.2754 12.4512-30.4688 12.4512-26.709L12.4512 1.26953C12.4512 10.6934 17.334 15.5273 26.8555 15.5273Z"/>
  </g>
  <g id="Thin-M" transform="matrix(1 0 0 1 787.33 1126)">
   <path d="M69.1406-31.1523C69.5801-31.1523 70.0195-31.2988 70.4102-31.6895L88.4766-49.6582C88.8184-50 89.0137-50.3906 89.0137-50.8301C89.0137-51.7578 88.2324-52.4902 87.3535-52.4902C86.9141-52.4902 86.4258-52.2949 86.0352-51.9043L76.5625-42.334L70.8008-36.4746L70.9473-43.3105L70.9473-91.2598C70.9473-92.2363 70.1172-93.0664 69.1406-93.0664C68.1641-93.0664 67.334-92.2363 67.334-91.2598L67.334-43.3105L67.4316-36.4258L61.6211-42.334L52.1484-51.9043C51.8066-52.2949 51.3184-52.4902 50.8301-52.4902C49.9023-52.4902 49.2188-51.7578 49.2188-50.8301C49.2188-50.3906 49.4141-50 49.7559-49.6582L67.8711-31.6895C68.2617-31.2988 68.7012-31.1523 69.1406-31.1523ZM25.6348 14.5508L112.598 14.5508C121.24 14.5508 125.732 9.96094 125.732 1.41602L125.732-25.3418C125.732-28.1738 125.342-29.4922 123.926-31.25L103.711-57.2754C99.6582-62.4512 96.9727-64.209 90.2832-64.209L84.1797-64.209L84.1797-60.9375L90.8691-60.9375C94.9707-60.9375 97.7051-59.2773 100.098-56.25L120.703-29.834C121.631-28.5645 121.338-27.832 120.02-27.832L84.8633-27.832C83.3008-27.832 82.5684-26.8066 82.5684-25.3418L82.5684-25C82.5684-17.334 76.8066-11.2793 69.0918-11.2793C61.4258-11.2793 55.6641-17.334 55.6641-25L55.6641-25.3418C55.6641-26.8066 54.8828-27.832 53.3203-27.832L18.2129-27.832C16.8457-27.832 16.6016-28.6133 17.5293-29.834L38.1348-56.25C40.5273-59.2773 43.2617-60.9375 47.3633-60.9375L54.1504-60.9375L54.1504-64.209L47.9004-64.209C41.2109-64.209 38.5742-62.4512 34.5215-57.2754L14.2578-31.25C12.8906-29.4922 12.4512-28.1738 12.4512-25.3418L12.4512 1.41602C12.4512 10.0586 16.9922 14.5508 25.6348 14.5508Z"/>
  </g>
  <g id="Ultralight-M" transform="matrix(1 0 0 1 490.888 1126)">
   <path d="M68.8477-31.1035C69.1406-31.1035 69.4824-31.2012 69.6777-31.4453L88.1836-50C88.4277-50.2441 88.5254-50.4883 88.5254-50.7812C88.5254-51.3672 87.9883-51.9043 87.4512-51.9043C87.1582-51.9043 86.8164-51.709 86.5723-51.5137L76.4648-41.4062L70.0195-34.8633L70.0684-41.5527L70.0684-90.8203C70.0684-91.4551 69.5312-91.9922 68.8477-91.9922C68.2129-91.9922 67.6758-91.4551 67.6758-90.8203L67.6758-41.5527L67.7246-34.8145L61.1816-41.4062L51.123-51.5137C50.8789-51.709 50.4883-51.9043 50.1953-51.9043C49.6094-51.9043 49.1211-51.3672 49.1211-50.7812C49.1211-50.4883 49.2188-50.2441 49.4629-50L68.0176-31.4453C68.2617-31.2012 68.5547-31.1035 68.8477-31.1035ZM25 14.0625L112.695 14.0625C120.85 14.0625 125.195 9.57031 125.195 1.51367L125.195-24.6094C125.195-27.002 124.854-28.0273 123.682-29.5898L102.49-57.0801C98.877-61.6699 96.4844-62.8418 90.3809-62.8418L84.5215-62.8418L84.5215-60.5469L90.918-60.5469C95.166-60.5469 97.6562-59.3262 100-56.3477L121.582-28.5645C122.266-27.6367 122.07-26.9531 121.094-26.9531L84.5215-26.9531C83.3008-26.9531 82.7148-26.2207 82.7148-25L82.7148-24.6582C82.7148-16.5039 76.6113-10.498 68.8477-10.498C61.0352-10.498 54.9805-16.5039 54.9805-24.6582L54.9805-25C54.9805-26.2207 54.3457-26.9531 53.125-26.9531L16.5527-26.9531C15.5762-26.9531 15.4297-27.6367 16.0645-28.5645L37.6465-56.3477C40.0391-59.3262 42.4805-60.5469 46.7285-60.5469L53.2715-60.5469L53.2715-62.8418L47.3145-62.8418C41.1621-62.8418 38.7695-61.6699 35.2051-57.0801L13.9648-29.5898C12.8418-28.0273 12.4512-27.002 12.4512-24.6094L12.4512 1.51367C12.4512 9.7168 16.7969 14.0625 25 14.0625Z"/>
  </g>
  <g id="Black-S" transform="matrix(1 0 0 1 2877.35 696)">
   <path d="M56.0547-33.0078C57.7148-33.0078 59.4238-33.5938 61.0352-35.1562L73.4863-47.0703C74.4629-48.0469 75-49.0723 75-50.5371C75-53.418 72.4609-55.3711 69.9707-55.3711C68.457-55.3711 67.1387-54.7363 66.1621-53.7109L62.8906-50.2441L61.5234-46.9238L62.0605-52.3926L62.0605-78.0273C62.0605-81.2012 59.4727-83.9844 56.0547-83.9844C52.6367-83.9844 50.0488-81.2012 50.0488-78.0273L50.0488-52.3926L50.5859-46.9238L49.2188-50.2441L45.9473-53.7109C44.9707-54.7363 43.6523-55.3711 42.1387-55.3711C39.6484-55.3711 37.1094-53.418 37.1094-50.5371C37.1094-49.0723 37.6465-48.0469 38.623-47.0703L51.0742-35.1562C52.6855-33.5938 54.3945-33.0078 56.0547-33.0078ZM25 6.54297L87.1094 6.54297C96.6797 6.54297 102.344 0.878906 102.344-8.69141L102.344-27.3438C102.344-33.0078 101.904-35.6445 99.9023-39.5996L89.4043-60.3027C85.1074-68.7988 80.6152-70.3125 72.6074-70.3125L69.3848-70.3125L69.3848-60.0586L72.6562-60.0586C74.8047-60.0586 76.5137-58.9844 77.3438-57.1777L87.8906-34.5703C88.1836-33.8867 87.9395-33.3008 86.7676-33.3008L67.2852-33.3008C64.5996-33.3008 63.6719-32.1289 63.6719-30.6641L63.6719-30.5176C63.6719-27.002 61.0352-22.9004 56.0547-22.9004C51.0742-22.9004 48.4375-27.002 48.4375-30.5176L48.4375-30.6641C48.4375-32.1289 47.5098-33.3008 44.8242-33.3008L25.3418-33.3008C24.1699-33.3008 23.9258-33.8867 24.2188-34.5703L34.7656-57.1777C35.5957-58.9844 37.3047-60.0586 39.4531-60.0586L42.7246-60.0586L42.7246-70.3125L39.502-70.3125C31.4941-70.3125 27.002-68.7988 22.7051-60.3027L12.207-39.5996C10.2051-35.6445 9.76562-33.0078 9.76562-27.3438L9.76562-8.69141C9.76562 0.878906 15.4297 6.54297 25 6.54297Z"/>
  </g>
  <g id="Heavy-S" transform="matrix(1 0 0 1 2580.88 696)">
   <path d="M55.8105-32.8125C57.3242-32.8125 58.7891-33.3496 60.2051-34.7168L72.7051-46.6797C73.6328-47.6074 74.1211-48.5352 74.1211-49.8535C74.1211-52.4902 71.8262-54.2969 69.5312-54.2969C68.1641-54.2969 66.9434-53.7109 66.0645-52.7832L62.3047-48.7305L60.7422-45.7031L61.2305-51.2695L61.2305-78.6621C61.2305-81.4941 58.8867-83.9844 55.8105-83.9844C52.7832-83.9844 50.3906-81.4941 50.3906-78.6621L50.3906-51.2695L50.8789-45.7031L49.3652-48.7305L45.6055-52.7832C44.6777-53.7109 43.457-54.2969 42.1387-54.2969C39.7949-54.2969 37.5488-52.4902 37.5488-49.8535C37.5488-48.5352 38.0371-47.6074 38.916-46.6797L51.416-34.7168C52.8809-33.3496 54.3457-32.8125 55.8105-32.8125ZM24.3652 6.29883L87.3047 6.29883C96.582 6.29883 101.855 0.976562 101.855-8.25195L101.855-27.9297C101.855-33.1543 101.416-35.6445 99.4629-39.209L88.4766-58.6426C84.0332-66.5039 79.9316-68.5547 72.1191-68.5547L68.2617-68.5547L68.2617-59.2773L72.2656-59.2773C74.5117-59.2773 76.5625-57.7637 77.6367-55.8105L88.7695-34.7656C89.4043-33.6914 89.0625-33.0566 87.5977-33.0566L67.3828-33.0566C64.7949-33.0566 63.8184-31.7383 63.8184-30.1758L63.8184-30.0293C63.8184-26.3184 60.9863-22.0215 55.8105-22.0215C50.6836-22.0215 47.8516-26.3184 47.8516-30.0293L47.8516-30.1758C47.8516-31.7383 46.875-33.0566 44.2383-33.0566L24.0723-33.0566C22.5586-33.0566 22.2656-33.7402 22.9004-34.7656L33.9844-55.8105C35.0586-57.7637 37.1094-59.2773 39.4043-59.2773L43.3594-59.2773L43.3594-68.5547L39.5508-68.5547C31.6895-68.5547 27.5879-66.5039 23.1934-58.6426L12.207-39.209C10.2051-35.6445 9.76562-33.1543 9.76562-27.9297L9.76562-8.25195C9.76562 0.976562 15.0879 6.29883 24.3652 6.29883Z"/>
  </g>
  <g id="Bold-S" transform="matrix(1 0 0 1 2284.41 696)">
   <path d="M55.5664-32.6172C56.8359-32.6172 58.0566-33.0566 59.3262-34.2773L71.8262-46.2402C72.6562-47.0703 73.0957-47.9492 73.0957-49.1211C73.0957-51.4648 71.1426-53.0762 68.9941-53.0762C67.8223-53.0762 66.6992-52.5879 65.918-51.7578L61.6211-47.0703L59.9121-44.3359L60.3027-49.9512L60.3027-79.3457C60.3027-81.8848 58.2031-84.0332 55.5664-84.0332C52.9297-84.0332 50.8301-81.8848 50.8301-79.3457L50.8301-49.9512L51.2207-44.3359L49.5117-47.0703L45.2148-51.7578C44.3848-52.5879 43.2617-53.0762 42.0898-53.0762C39.9414-53.0762 37.9883-51.4648 37.9883-49.1211C37.9883-47.9492 38.4766-47.0703 39.2578-46.2402L51.8066-34.2773C53.0762-33.0566 54.2969-32.6172 55.5664-32.6172ZM23.6328 6.00586L87.5 6.00586C96.4844 6.00586 101.367 1.12305 101.367-7.76367L101.367-28.6133C101.367-33.3496 100.879-35.6445 98.9258-38.7695L87.4512-56.7383C82.8613-63.916 79.1504-66.5527 71.582-66.5527L67.041-66.5527L67.041-58.3496L71.8262-58.3496C74.2188-58.3496 76.6113-56.4453 77.9785-54.3457L89.6973-34.9609C90.7227-33.4961 90.2832-32.8125 88.5254-32.8125L67.4805-32.8125C64.9414-32.8125 63.916-31.2988 63.916-29.6387L63.916-29.541C63.916-25.5859 60.8887-21.0449 55.5664-21.0449C50.2441-21.0449 47.168-25.5859 47.168-29.541L47.168-29.6387C47.168-31.2988 46.1426-32.8125 43.6523-32.8125L22.6562-32.8125C20.8008-32.8125 20.459-33.5938 21.4355-34.9609L33.1055-54.3457C34.4727-56.4453 36.9141-58.3496 39.3066-58.3496L44.0918-58.3496L44.0918-66.5527L39.5508-66.5527C31.9336-66.5527 28.2715-63.916 23.6816-56.7383L12.1582-38.7695C10.2539-35.6445 9.76562-33.3496 9.76562-28.6133L9.76562-7.76367C9.76562 1.12305 14.6973 6.00586 23.6328 6.00586Z"/>
  </g>
  <g id="Semibold-S" transform="matrix(1 0 0 1 1987.9 696)">
   <path d="M55.3711-32.4707C56.4941-32.4707 57.5684-32.8613 58.6914-33.9355L71.2402-45.9473C72.0215-46.7285 72.4121-47.5098 72.4121-48.6328C72.4121-50.7812 70.7031-52.2461 68.6523-52.2461C67.5781-52.2461 66.5527-51.8066 65.8203-51.0254L61.1328-45.9473L59.2773-43.3594L59.668-49.0723L59.668-79.834C59.668-82.1289 57.7637-84.0332 55.3711-84.0332C53.0273-84.0332 51.123-82.1289 51.123-79.834L51.123-49.0723L51.4648-43.3594L49.6094-45.9473L44.9219-51.0254C44.1895-51.8066 43.1152-52.2461 42.0898-52.2461C40.0391-52.2461 38.3301-50.7812 38.3301-48.6328C38.3301-47.5098 38.7695-46.7285 39.502-45.9473L52.0508-33.9355C53.1738-32.8613 54.248-32.4707 55.3711-32.4707ZM23.0957 5.81055L87.6465 5.81055C96.3867 5.81055 100.977 1.2207 100.977-7.42188L100.977-29.1016C100.977-33.4961 100.488-35.5957 98.584-38.4277L86.7188-55.4199C82.0801-62.1582 78.6621-65.1855 71.1914-65.1855L66.1621-65.1855L66.1621-57.7148L71.4844-57.7148C74.0234-57.7148 76.6602-55.5176 78.2227-53.2715L90.3809-35.1074C91.6504-33.3984 91.1621-32.6172 89.1602-32.6172L67.5781-32.6172C65.0879-32.6172 64.0137-31.0059 64.0137-29.2969L64.0137-29.1504C64.0137-25.0488 60.8398-20.3613 55.3711-20.3613C49.9023-20.3613 46.7285-25.0488 46.7285-29.1504L46.7285-29.2969C46.7285-31.0059 45.6543-32.6172 43.2129-32.6172L21.6309-32.6172C19.5801-32.6172 19.1895-33.4473 20.4102-35.1074L32.5195-53.2715C34.082-55.5176 36.7676-57.7148 39.2578-57.7148L44.5801-57.7148L44.5801-65.1855L39.5508-65.1855C32.1289-65.1855 28.7109-62.1582 24.0234-55.4199L12.1582-38.4277C10.2539-35.5957 9.76562-33.4961 9.76562-29.1016L9.76562-7.42188C9.76562 1.2207 14.4043 5.81055 23.0957 5.81055Z"/>
  </g>
  <g id="Medium-S" transform="matrix(1 0 0 1 1691.31 696)">
   <path d="M55.2246-32.373C56.25-32.373 57.1777-32.7148 58.2031-33.6914L70.8008-45.752C71.4844-46.4355 71.9238-47.2168 71.9238-48.2422C71.9238-50.2441 70.3125-51.6113 68.4082-51.6113C67.4316-51.6113 66.4551-51.2207 65.7715-50.4883L60.791-45.0684L58.8379-42.6758L59.1797-48.4375L59.1797-80.2246C59.1797-82.2754 57.4219-84.082 55.2246-84.082C53.0762-84.082 51.3184-82.2754 51.3184-80.2246L51.3184-48.4375L51.6602-42.6758L49.707-45.0684L44.7266-50.4883C44.043-51.2207 43.0176-51.6113 42.041-51.6113C40.0879-51.6113 38.5742-50.2441 38.5742-48.2422C38.5742-47.2168 38.9648-46.4355 39.6973-45.752L52.2461-33.6914C53.2715-32.7148 54.1992-32.373 55.2246-32.373ZM22.7051 5.66406L87.7441 5.66406C96.3379 5.66406 100.732 1.26953 100.732-7.12891L100.732-29.4434C100.732-33.5938 100.195-35.5957 98.3398-38.1836L86.1816-54.4434C81.4453-60.791 78.2227-64.1113 70.8984-64.1113L65.5273-64.1113L65.5273-57.2754L71.2891-57.2754C73.8281-57.2754 76.709-54.7852 78.418-52.4902L90.8691-35.2051C92.334-33.252 91.7969-32.5195 89.5996-32.5195L67.627-32.5195C65.1855-32.5195 64.1113-30.7617 64.1113-29.0039L64.1113-28.9062C64.1113-24.6582 60.791-19.8242 55.2246-19.8242C49.707-19.8242 46.3867-24.6582 46.3867-28.9062L46.3867-29.0039C46.3867-30.7617 45.3125-32.5195 42.8711-32.5195L20.8984-32.5195C18.6523-32.5195 18.2129-33.3984 19.6289-35.2051L32.0801-52.4902C33.7891-54.7852 36.6211-57.2754 39.209-57.2754L44.9707-57.2754L44.9707-64.1113L39.5996-64.1113C32.2266-64.1113 29.0527-60.791 24.3164-54.4434L12.1582-38.1836C10.2539-35.5957 9.76562-33.5938 9.76562-29.4434L9.76562-7.12891C9.76562 1.31836 14.209 5.66406 22.7051 5.66406Z"/>
  </g>
  <g id="Regular-S" transform="matrix(1 0 0 1 1394.79 696)">
   <path d="M55.0781-32.2266C55.957-32.2266 56.6895-32.5195 57.6172-33.3984L70.2148-45.459C70.8496-46.0938 71.2402-46.7773 71.2402-47.7539C71.2402-49.5117 69.873-50.7812 68.0664-50.7812C67.1875-50.7812 66.3086-50.4395 65.6738-49.7559L60.3516-43.9453L58.252-41.6992L58.5449-47.5586L58.5449-80.7129C58.5449-82.5195 56.9336-84.082 55.0781-84.082C53.1738-84.082 51.6113-82.5195 51.6113-80.7129L51.6113-47.5586L51.8555-41.6992L49.8047-43.9453L44.4336-49.7559C43.8477-50.4395 42.8711-50.7812 42.041-50.7812C40.1855-50.7812 38.916-49.5117 38.916-47.7539C38.916-46.7773 39.2578-46.0938 39.9414-45.459L52.5391-33.3984C53.418-32.5195 54.1504-32.2266 55.0781-32.2266ZM22.2168 5.46875L87.8906 5.46875C96.2402 5.46875 100.342 1.36719 100.342-6.83594L100.342-29.9316C100.342-33.6914 99.8535-35.5957 97.998-37.8906L85.4492-53.1738C80.6152-59.082 77.7344-62.7441 70.5078-62.7441L64.6973-62.7441L64.6973-56.6406L70.9473-56.6406C73.6328-56.6406 76.7578-53.8574 78.6621-51.4648L91.5039-35.3516C93.2617-33.1543 92.627-32.3242 90.2344-32.3242L67.6758-32.3242C65.332-32.3242 64.209-30.4688 64.209-28.6133L64.209-28.5156C64.209-24.1699 60.7422-19.1406 55.0781-19.1406C49.3652-19.1406 45.9473-24.1699 45.9473-28.5156L45.9473-28.6133C45.9473-30.4688 44.8242-32.3242 42.4316-32.3242L19.9219-32.3242C17.4316-32.3242 16.9922-33.3008 18.6035-35.3516L31.4941-51.4648C33.3984-53.8574 36.4746-56.6406 39.1602-56.6406L45.459-56.6406L45.459-62.7441L39.5996-62.7441C32.4219-62.7441 29.4922-59.082 24.6582-53.1738L12.1582-37.8906C10.3027-35.5957 9.76562-33.6914 9.76562-29.9316L9.76562-6.83594C9.76562 1.36719 13.916 5.46875 22.2168 5.46875Z"/>
  </g>
  <g id="Light-S" transform="matrix(1 0 0 1 1098.42 696)">
   <path d="M54.7363-32.1289C55.4199-32.1289 56.0059-32.373 56.6406-33.0566L69.873-45.8496C70.3613-46.3867 70.6543-46.9238 70.6543-47.6562C70.6543-49.0234 69.5801-50 68.2129-50C67.5293-50 66.8457-49.7559 66.3574-49.2188L60.2051-42.7246L57.1777-39.5996L57.373-45.2637L57.373-80.127C57.373-81.543 56.1523-82.7148 54.7363-82.7148C53.2715-82.7148 52.0508-81.543 52.0508-80.127L52.0508-45.2637L52.2461-39.5996L49.2188-42.7246L43.0664-49.2188C42.5781-49.7559 41.8457-50 41.2109-50C39.7949-50 38.7695-49.0234 38.7695-47.6562C38.7695-46.9238 39.0625-46.3867 39.5508-45.8496L52.7832-33.0566C53.418-32.373 54.0039-32.1289 54.7363-32.1289ZM21.3867 4.78516L88.0371 4.78516C95.752 4.78516 99.6582 0.927734 99.6582-6.68945L99.6582-28.9551C99.6582-32.1777 99.2188-33.7402 97.6562-35.6934L83.8379-52.9297C79.6387-58.1055 77.0508-60.9375 70.6055-60.9375L65.1855-60.9375L65.1855-56.1523L71.0449-56.1523C73.9258-56.1523 76.6602-53.9551 78.5645-51.5625L92.6758-33.6914C94.043-31.9336 93.6035-31.2012 91.6992-31.2012L67.2363-31.2012C65.332-31.2012 64.4043-29.7852 64.4043-28.1738L64.4043-28.0273C64.4043-23.0469 60.5469-18.1152 54.7363-18.1152C48.877-18.1152 45.0195-23.0469 45.0195-28.0273L45.0195-28.1738C45.0195-29.7852 44.0918-31.2012 42.1875-31.2012L17.7734-31.2012C15.8203-31.2012 15.4297-32.0312 16.748-33.6914L30.8594-51.5625C32.7637-53.9551 35.498-56.1523 38.3789-56.1523L44.2871-56.1523L44.2871-60.9375L38.8184-60.9375C32.373-60.9375 29.7852-58.1055 25.5859-52.9297L11.7676-35.6934C10.2051-33.7402 9.76562-32.1777 9.76562-28.9551L9.76562-6.68945C9.76562 0.927734 13.6719 4.78516 21.3867 4.78516Z"/>
  </g>
  <g id="Thin-S" transform="matrix(1 0 0 1 802.174 696)">
   <path d="M54.248-32.0312C54.6875-32.0312 55.0293-32.1777 55.4199-32.5684L69.3848-46.4355C69.7266-46.7285 69.873-47.0703 69.873-47.5098C69.873-48.3398 69.1895-48.9746 68.3594-48.9746C67.9688-48.9746 67.5293-48.7793 67.2363-48.4863L60.0098-41.1621L55.7617-36.8164L55.9082-42.1875L55.9082-79.2969C55.9082-80.1758 55.127-80.9082 54.248-80.9082C53.3691-80.9082 52.5879-80.1758 52.5879-79.2969L52.5879-42.1875L52.7344-36.7676L48.4375-41.1621L41.2598-48.4863C40.918-48.7793 40.4785-48.9746 40.0879-48.9746C39.209-48.9746 38.5742-48.3398 38.5742-47.5098C38.5742-47.0703 38.7695-46.7285 39.0625-46.4355L53.0762-32.5684C53.4668-32.1777 53.8574-32.0312 54.248-32.0312ZM20.3125 3.95508L88.1836 3.95508C95.1172 3.95508 98.7305 0.292969 98.7305-6.54297L98.7305-27.7344C98.7305-30.127 98.3887-31.25 97.2168-32.7637L81.7383-52.5879C78.3691-56.8359 76.1719-58.4961 70.7031-58.4961L65.8203-58.4961L65.8203-55.5176L71.1426-55.5176C74.3164-55.5176 76.5625-54.0527 78.4668-51.6602L94.2383-31.4941C95.0684-30.3711 94.8242-29.7363 93.6035-29.7363L66.6504-29.7363C65.2832-29.7363 64.6484-28.8086 64.6484-27.6367L64.6484-27.3926C64.6484-21.5332 60.2539-16.7969 54.248-16.7969C48.2422-16.7969 43.8477-21.5332 43.8477-27.3926L43.8477-27.6367C43.8477-28.8086 43.2129-29.7363 41.8457-29.7363L14.8926-29.7363C13.6719-29.7363 13.4277-30.3711 14.2578-31.4941L30.0781-51.6602C31.9336-54.0527 34.1797-55.5176 37.3535-55.5176L42.7734-55.5176L42.7734-58.4961L37.793-58.4961C32.3242-58.4961 30.127-56.8359 26.7578-52.5879L11.2793-32.7637C10.1074-31.25 9.76562-30.127 9.76562-27.7344L9.76562-6.54297C9.76562 0.390625 13.3789 3.95508 20.3125 3.95508Z"/>
  </g>
  <g id="Ultralight-S" transform="matrix(1 0 0 1 505.707 696)">
   <path d="M54.0039-31.9824C54.2969-31.9824 54.541-32.0801 54.7852-32.3242L69.1406-46.7285C69.3848-46.9238 69.4824-47.168 69.4824-47.4121C69.4824-47.998 68.9941-48.4375 68.5059-48.4375C68.2129-48.4375 67.8711-48.291 67.6758-48.0957L59.9121-40.332L55.0293-35.4004L55.127-40.625L55.127-78.9062C55.127-79.4922 54.5898-79.9805 54.0039-79.9805C53.418-79.9805 52.9297-79.4922 52.9297-78.9062L52.9297-40.625L52.9785-35.3516L48.0469-40.332L40.2832-48.0957C40.0879-48.291 39.7461-48.4375 39.502-48.4375C38.916-48.4375 38.4766-47.998 38.4766-47.4121C38.4766-47.168 38.623-46.9238 38.8184-46.7285L53.2227-32.3242C53.4668-32.0801 53.7109-31.9824 54.0039-31.9824ZM19.7754 3.51562L88.2812 3.51562C94.8242 3.51562 98.2422-0.0488281 98.2422-6.44531L98.2422-27.0996C98.2422-29.1016 97.9492-29.9805 96.9727-31.25L80.6152-52.3926C77.6855-56.1523 75.7324-57.2266 70.8008-57.2266L66.1133-57.2266L66.1133-55.1758L71.2402-55.1758C74.5117-55.1758 76.5137-54.1016 78.3691-51.7578L95.0195-30.3223C95.6055-29.541 95.459-29.0039 94.5801-29.0039L66.3086-29.0039C65.2832-29.0039 64.7461-28.3203 64.7461-27.2949L64.7461-27.0508C64.7461-20.8008 60.1074-16.0645 54.0039-16.0645C47.9492-16.0645 43.2617-20.8008 43.2617-27.0508L43.2617-27.2949C43.2617-28.3203 42.7246-29.0039 41.6992-29.0039L13.4277-29.0039C12.5488-29.0039 12.4023-29.541 12.9883-30.3223L29.6387-51.7578C31.4941-54.1016 33.4961-55.1758 36.8164-55.1758L41.9922-55.1758L41.9922-57.2266L37.2559-57.2266C32.2754-57.2266 30.3223-56.1523 27.3926-52.3926L11.0352-31.25C10.0586-29.9805 9.76562-29.1016 9.76562-27.0996L9.76562-6.44531C9.76562 0.0488281 13.2324 3.51562 19.7754 3.51562Z"/>
  </g>
 </g>
</svg>
