<?xml version="1.0" encoding="UTF-8"?>
<!--Generator: Apple Native CoreSVG 149-->
<!DOCTYPE svg
PUBLIC "-//W3C//DTD SVG 1.1//EN"
       "http://www.w3.org/Graphics/SVG/1.1/DTD/svg11.dtd">
<svg version="1.1" xmlns="http://www.w3.org/2000/svg" xmlns:xlink="http://www.w3.org/1999/xlink" width="3300" height="2200">
 <!--glyph: "uni100077.medium", point size: 100.000000, font version: "Version 16.0d18e1", template writer version: "8"-->
 <g id="Notes">
  <rect height="2200" id="artboard" style="fill:white;opacity:1" width="3300" x="0" y="0"/>
  <line id="" style="fill:none;stroke:black;opacity:1;stroke-width:0.5;" x1="263" x2="3036" y1="292" y2="292"/>
  <text style="stroke:none;fill:black;font-family:-apple-system,&quot;SF Pro Display&quot;,&quot;SF Pro Text&quot;,Helvetica,sans-serif;font-weight:bold;" transform="matrix(1 0 0 1 263 322)">Weight/Scale Variations</text>
  <text style="stroke:none;fill:black;font-family:-apple-system,&quot;SF Pro Display&quot;,&quot;SF Pro Text&quot;,Helvetica,sans-serif;text-anchor:middle;" transform="matrix(1 0 0 1 559.711 322)">Ultralight</text>
  <text style="stroke:none;fill:black;font-family:-apple-system,&quot;SF Pro Display&quot;,&quot;SF Pro Text&quot;,Helvetica,sans-serif;text-anchor:middle;" transform="matrix(1 0 0 1 856.422 322)">Thin</text>
  <text style="stroke:none;fill:black;font-family:-apple-system,&quot;SF Pro Display&quot;,&quot;SF Pro Text&quot;,Helvetica,sans-serif;text-anchor:middle;" transform="matrix(1 0 0 1 1153.13 322)">Light</text>
  <text style="stroke:none;fill:black;font-family:-apple-system,&quot;SF Pro Display&quot;,&quot;SF Pro Text&quot;,Helvetica,sans-serif;text-anchor:middle;" transform="matrix(1 0 0 1 1449.84 322)">Regular</text>
  <text style="stroke:none;fill:black;font-family:-apple-system,&quot;SF Pro Display&quot;,&quot;SF Pro Text&quot;,Helvetica,sans-serif;text-anchor:middle;" transform="matrix(1 0 0 1 1746.56 322)">Medium</text>
  <text style="stroke:none;fill:black;font-family:-apple-system,&quot;SF Pro Display&quot;,&quot;SF Pro Text&quot;,Helvetica,sans-serif;text-anchor:middle;" transform="matrix(1 0 0 1 2043.27 322)">Semibold</text>
  <text style="stroke:none;fill:black;font-family:-apple-system,&quot;SF Pro Display&quot;,&quot;SF Pro Text&quot;,Helvetica,sans-serif;text-anchor:middle;" transform="matrix(1 0 0 1 2339.98 322)">Bold</text>
  <text style="stroke:none;fill:black;font-family:-apple-system,&quot;SF Pro Display&quot;,&quot;SF Pro Text&quot;,Helvetica,sans-serif;text-anchor:middle;" transform="matrix(1 0 0 1 2636.69 322)">Heavy</text>
  <text style="stroke:none;fill:black;font-family:-apple-system,&quot;SF Pro Display&quot;,&quot;SF Pro Text&quot;,Helvetica,sans-serif;text-anchor:middle;" transform="matrix(1 0 0 1 2933.4 322)">Black</text>
  <line id="" style="fill:none;stroke:black;opacity:1;stroke-width:0.5;" x1="263" x2="3036" y1="1903" y2="1903"/>
  <g id="" transform="matrix(1 0 0 1 263 1933)">
   <path d="M9.24805 0.830078C13.5547 0.830078 17.1387-2.74414 17.1387-7.05078C17.1387-11.3574 13.5449-14.9316 9.23828-14.9316C4.94141-14.9316 1.36719-11.3574 1.36719-7.05078C1.36719-2.74414 4.95117 0.830078 9.24805 0.830078ZM9.24805-0.654297C5.70312-0.654297 2.87109-3.49609 2.87109-7.05078C2.87109-10.6055 5.69336-13.4473 9.23828-13.4473C12.793-13.4473 15.6348-10.6055 15.6445-7.05078C15.6543-3.49609 12.8027-0.654297 9.24805-0.654297ZM6.39648-6.31836L8.50586-6.31836L8.50586-4.19922C8.50586-3.75977 8.79883-3.45703 9.22852-3.45703C9.67773-3.45703 9.9707-3.75977 9.9707-4.19922L9.9707-6.31836L12.0996-6.31836C12.5391-6.31836 12.8418-6.61133 12.8418-7.04102C12.8418-7.48047 12.5391-7.7832 12.0996-7.7832L9.9707-7.7832L9.9707-9.89258C9.9707-10.3418 9.67773-10.6445 9.22852-10.6445C8.79883-10.6445 8.50586-10.3418 8.50586-9.89258L8.50586-7.7832L6.39648-7.7832C5.94727-7.7832 5.64453-7.48047 5.64453-7.04102C5.64453-6.61133 5.94727-6.31836 6.39648-6.31836Z"/>
  </g>
  <g id="" transform="matrix(1 0 0 1 281.506 1933)">
   <path d="M11.709 2.91016C17.1582 2.91016 21.6699-1.61133 21.6699-7.05078C21.6699-12.5 17.1484-17.0117 11.6992-17.0117C6.25977-17.0117 1.74805-12.5 1.74805-7.05078C1.74805-1.61133 6.26953 2.91016 11.709 2.91016ZM11.709 1.25C7.09961 1.25 3.41797-2.44141 3.41797-7.05078C3.41797-11.6602 7.08984-15.3516 11.6992-15.3516C16.3086-15.3516 20-11.6602 20.0098-7.05078C20.0195-2.44141 16.3184 1.25 11.709 1.25ZM7.98828-6.23047L10.8789-6.23047L10.8789-3.32031C10.8789-2.83203 11.2109-2.5 11.6895-2.5C12.1777-2.5 12.5195-2.83203 12.5195-3.32031L12.5195-6.23047L15.4297-6.23047C15.918-6.23047 16.25-6.5625 16.25-7.04102C16.25-7.5293 15.918-7.87109 15.4297-7.87109L12.5195-7.87109L12.5195-10.7617C12.5195-11.2695 12.1777-11.6016 11.6895-11.6016C11.2109-11.6016 10.8789-11.2598 10.8789-10.7617L10.8789-7.87109L7.98828-7.87109C7.48047-7.87109 7.14844-7.5293 7.14844-7.04102C7.14844-6.5625 7.49023-6.23047 7.98828-6.23047Z"/>
  </g>
  <g id="" transform="matrix(1 0 0 1 304.924 1933)">
   <path d="M14.9707 5.66406C21.9336 5.66406 27.6953-0.0976562 27.6953-7.05078C27.6953-14.0137 21.9238-19.7754 14.9609-19.7754C8.00781-19.7754 2.25586-14.0137 2.25586-7.05078C2.25586-0.0976562 8.01758 5.66406 14.9707 5.66406ZM14.9707 3.84766C8.93555 3.84766 4.08203-1.01562 4.08203-7.05078C4.08203-13.0957 8.92578-17.9492 14.9609-17.9492C21.0059-17.9492 25.8594-13.0957 25.8691-7.05078C25.8789-1.01562 21.0156 3.84766 14.9707 3.84766ZM10.0586-6.14258L14.0625-6.14258L14.0625-2.12891C14.0625-1.5918 14.4336-1.2207 14.9512-1.2207C15.4883-1.2207 15.8594-1.5918 15.8594-2.12891L15.8594-6.14258L19.8828-6.14258C20.4102-6.14258 20.791-6.51367 20.791-7.03125C20.791-7.56836 20.4199-7.94922 19.8828-7.94922L15.8594-7.94922L15.8594-11.9531C15.8594-12.5098 15.4883-12.8809 14.9512-12.8809C14.4336-12.8809 14.0625-12.5 14.0625-11.9531L14.0625-7.94922L10.0586-7.94922C9.50195-7.94922 9.13086-7.56836 9.13086-7.03125C9.13086-6.51367 9.51172-6.14258 10.0586-6.14258Z"/>
  </g>
  <text style="stroke:none;fill:black;font-family:-apple-system,&quot;SF Pro Display&quot;,&quot;SF Pro Text&quot;,Helvetica,sans-serif;font-weight:bold;" transform="matrix(1 0 0 1 263 1953)">Design Variations</text>
  <text style="stroke:none;fill:black;font-family:-apple-system,&quot;SF Pro Display&quot;,&quot;SF Pro Text&quot;,Helvetica,sans-serif;" transform="matrix(1 0 0 1 263 1971)">Symbols are supported in up to nine weights and three scales.</text>
  <text style="stroke:none;fill:black;font-family:-apple-system,&quot;SF Pro Display&quot;,&quot;SF Pro Text&quot;,Helvetica,sans-serif;" transform="matrix(1 0 0 1 263 1989)">For optimal layout with text and other symbols, vertically align</text>
  <text style="stroke:none;fill:black;font-family:-apple-system,&quot;SF Pro Display&quot;,&quot;SF Pro Text&quot;,Helvetica,sans-serif;" transform="matrix(1 0 0 1 263 2007)">symbols with the adjacent text.</text>
  <line id="" style="fill:none;stroke:#00AEEF;stroke-width:0.5;opacity:1.0;" x1="776" x2="776" y1="1919" y2="1933"/>
  <g id="" transform="matrix(1 0 0 1 776 1933)">
   <path d="M3.31055 0.126953C3.82812 0.126953 4.08203-0.0683594 4.26758-0.605469L5.52734-4.0625L11.2891-4.0625L12.5488-0.605469C12.7344-0.0683594 12.9883 0.126953 13.4961 0.126953C14.0137 0.126953 14.3457-0.185547 14.3457-0.673828C14.3457-0.839844 14.3164-0.986328 14.2383-1.20117L9.6582-13.3887C9.43359-13.9941 9.0332-14.2871 8.4082-14.2871C7.80273-14.2871 7.39258-13.9941 7.17773-13.3984L2.59766-1.19141C2.51953-0.976562 2.49023-0.830078 2.49023-0.664062C2.49023-0.175781 2.80273 0.126953 3.31055 0.126953ZM6.00586-5.53711L8.37891-12.1094L8.42773-12.1094L10.8008-5.53711Z"/>
  </g>
  <line id="" style="fill:none;stroke:#00AEEF;stroke-width:0.5;opacity:1.0;" x1="792.836" x2="792.836" y1="1919" y2="1933"/>
  <text style="stroke:none;fill:black;font-family:-apple-system,&quot;SF Pro Display&quot;,&quot;SF Pro Text&quot;,Helvetica,sans-serif;font-weight:bold;" transform="matrix(1 0 0 1 776 1953)">Margins</text>
  <text style="stroke:none;fill:black;font-family:-apple-system,&quot;SF Pro Display&quot;,&quot;SF Pro Text&quot;,Helvetica,sans-serif;" transform="matrix(1 0 0 1 776 1971)">Leading and trailing margins on the left and right side of each symbol</text>
  <text style="stroke:none;fill:black;font-family:-apple-system,&quot;SF Pro Display&quot;,&quot;SF Pro Text&quot;,Helvetica,sans-serif;" transform="matrix(1 0 0 1 776 1989)">can be adjusted by modifying the x-location of the margin guidelines.</text>
  <text style="stroke:none;fill:black;font-family:-apple-system,&quot;SF Pro Display&quot;,&quot;SF Pro Text&quot;,Helvetica,sans-serif;" transform="matrix(1 0 0 1 776 2007)">Modifications are automatically applied proportionally to all</text>
  <text style="stroke:none;fill:black;font-family:-apple-system,&quot;SF Pro Display&quot;,&quot;SF Pro Text&quot;,Helvetica,sans-serif;" transform="matrix(1 0 0 1 776 2025)">scales and weights.</text>
  <g id="" transform="matrix(1 0 0 1 1289 1933)">
   <path d="M2.8418 1.86523L4.54102 3.57422C5.40039 4.44336 6.38672 4.38477 7.31445 3.35938L17.4902-7.85156C17.7539-7.76367 18.0273-7.7832 18.3398-7.8418L19.4043-8.03711L20.0684-7.36328L20.0293-6.80664C19.9902-6.30859 20.1172-5.92773 20.6055-5.44922L21.3672-4.70703C21.8457-4.22852 22.4609-4.19922 22.9297-4.66797L25.8398-7.58789C26.3086-8.05664 26.2891-8.65234 25.8105-9.13086L25.0391-9.89258C24.5605-10.3711 24.1895-10.5273 23.7109-10.4883L23.1348-10.4395L22.4902-11.0742L22.7344-12.1973C22.8613-12.7637 22.7051-13.2031 22.1191-13.7891L19.9219-15.9766C16.582-19.2969 12.1484-19.2188 9.25781-16.3281C8.83789-15.918 8.80859-15.3418 9.04297-14.9512C9.27734-14.5898 9.73633-14.3555 10.3809-14.5215C11.8457-14.8633 13.3691-14.9219 14.7949-13.9844L14.209-12.5293C14.0137-12.0508 13.9844-11.6504 14.1113-11.2891L3.04688-0.898438C2.06055 0.0195312 1.98242 0.996094 2.8418 1.86523ZM10.752-15.957C13.1836-17.7344 16.4746-17.4316 18.7012-15.2051L21.1328-12.793C21.3672-12.5586 21.4062-12.373 21.3379-12.0312L21.0156-10.5469L22.5195-9.0625L23.5059-9.12109C23.7598-9.13086 23.8379-9.11133 24.0332-8.91602L24.6094-8.33984L22.168-5.89844L21.5918-6.47461C21.3965-6.66992 21.3672-6.74805 21.377-7.01172L21.4453-7.98828L19.9512-9.47266L18.4277-9.21875C18.1055-9.15039 17.959-9.17969 17.7148-9.41406L15.7129-11.416C15.459-11.6504 15.4297-11.8164 15.5859-12.1875L16.4648-14.2773C14.9023-15.7324 12.8711-16.3574 10.8398-15.7617C10.6836-15.7227 10.625-15.8496 10.752-15.957ZM5.27344 2.30469L4.10156 1.14258C3.63281 0.683594 3.74023 0.341797 4.14062-0.0195312L14.9512-10.1953L16.416-8.71094L6.42578 2.27539C6.07422 2.67578 5.74219 2.77344 5.27344 2.30469Z"/>
  </g>
  <text style="stroke:none;fill:black;font-family:-apple-system,&quot;SF Pro Display&quot;,&quot;SF Pro Text&quot;,Helvetica,sans-serif;font-weight:bold;" transform="matrix(1 0 0 1 1289 1953)">Exporting</text>
  <text style="stroke:none;fill:black;font-family:-apple-system,&quot;SF Pro Display&quot;,&quot;SF Pro Text&quot;,Helvetica,sans-serif;" transform="matrix(1 0 0 1 1289 1971)">Symbols should be outlined when exporting to ensure the</text>
  <text style="stroke:none;fill:black;font-family:-apple-system,&quot;SF Pro Display&quot;,&quot;SF Pro Text&quot;,Helvetica,sans-serif;" transform="matrix(1 0 0 1 1289 1989)">design is preserved when submitting to Xcode.</text>
  <text id="template-version" style="stroke:none;fill:black;font-family:-apple-system,&quot;SF Pro Display&quot;,&quot;SF Pro Text&quot;,Helvetica,sans-serif;text-anchor:end;" transform="matrix(1 0 0 1 3036 1933)">Template v.2.0</text>
  <text style="stroke:none;fill:black;font-family:-apple-system,&quot;SF Pro Display&quot;,&quot;SF Pro Text&quot;,Helvetica,sans-serif;text-anchor:end;" transform="matrix(1 0 0 1 3036 1951)">Requires Xcode 12 or greater</text>
  <text style="stroke:none;fill:black;font-family:-apple-system,&quot;SF Pro Display&quot;,&quot;SF Pro Text&quot;,Helvetica,sans-serif;text-anchor:end;" transform="matrix(1 0 0 1 3036 1969)">Generated from arrow.up.circle.fill</text>
  <text style="stroke:none;fill:black;font-family:-apple-system,&quot;SF Pro Display&quot;,&quot;SF Pro Text&quot;,Helvetica,sans-serif;text-anchor:end;" transform="matrix(1 0 0 1 3036 1987)">Typeset at 100 points</text>
  <text style="stroke:none;fill:black;font-family:-apple-system,&quot;SF Pro Display&quot;,&quot;SF Pro Text&quot;,Helvetica,sans-serif;" transform="matrix(1 0 0 1 263 726)">Small</text>
  <text style="stroke:none;fill:black;font-family:-apple-system,&quot;SF Pro Display&quot;,&quot;SF Pro Text&quot;,Helvetica,sans-serif;" transform="matrix(1 0 0 1 263 1156)">Medium</text>
  <text style="stroke:none;fill:black;font-family:-apple-system,&quot;SF Pro Display&quot;,&quot;SF Pro Text&quot;,Helvetica,sans-serif;" transform="matrix(1 0 0 1 263 1586)">Large</text>
 </g>
 <g id="Guides">
  <g id="H-reference" style="fill:#27AAE1;stroke:none;" transform="matrix(1 0 0 1 339 696)">
   <path d="M0.976562 0L3.66211 0L12.9883-24.4629L45.752-24.4629L55.127 0L57.7637 0L30.6152-70.459L28.125-70.459ZM29.3457-67.1387L29.4434-67.1387L44.873-26.709L13.8672-26.709Z"/>
  </g>
  <line id="Baseline-S" style="fill:none;stroke:#27AAE1;opacity:1;stroke-width:0.5;" x1="263" x2="3036" y1="696" y2="696"/>
  <line id="Capline-S" style="fill:none;stroke:#27AAE1;opacity:1;stroke-width:0.5;" x1="263" x2="3036" y1="625.541" y2="625.541"/>
  <g id="H-reference" style="fill:#27AAE1;stroke:none;" transform="matrix(1 0 0 1 339 1126)">
   <path d="M0.976562 0L3.66211 0L12.9883-24.4629L45.752-24.4629L55.127 0L57.7637 0L30.6152-70.459L28.125-70.459ZM29.3457-67.1387L29.4434-67.1387L44.873-26.709L13.8672-26.709Z"/>
  </g>
  <line id="Baseline-M" style="fill:none;stroke:#27AAE1;opacity:1;stroke-width:0.5;" x1="263" x2="3036" y1="1126" y2="1126"/>
  <line id="Capline-M" style="fill:none;stroke:#27AAE1;opacity:1;stroke-width:0.5;" x1="263" x2="3036" y1="1055.54" y2="1055.54"/>
  <g id="H-reference" style="fill:#27AAE1;stroke:none;" transform="matrix(1 0 0 1 339 1556)">
   <path d="M0.976562 0L3.66211 0L12.9883-24.4629L45.752-24.4629L55.127 0L57.7637 0L30.6152-70.459L28.125-70.459ZM29.3457-67.1387L29.4434-67.1387L44.873-26.709L13.8672-26.709Z"/>
  </g>
  <line id="Baseline-L" style="fill:none;stroke:#27AAE1;opacity:1;stroke-width:0.5;" x1="263" x2="3036" y1="1556" y2="1556"/>
  <line id="Capline-L" style="fill:none;stroke:#27AAE1;opacity:1;stroke-width:0.5;" x1="263" x2="3036" y1="1485.54" y2="1485.54"/>
  <line id="left-margin" style="fill:none;stroke:#00AEEF;stroke-width:0.5;opacity:1.0;" x1="1391.3" x2="1391.3" y1="1030.79" y2="1150.12"/>
  <line id="right-margin" style="fill:none;stroke:#00AEEF;stroke-width:0.5;opacity:1.0;" x1="1508.39" x2="1508.39" y1="1030.79" y2="1150.12"/>
 </g>
 <g id="Symbols">
  <g id="Black-L" transform="matrix(1 0 0 1 2854.05 1556)">
   <path d="M79.3457 32.8613C116.748 32.8613 147.412 2.19727 147.412-35.2051C147.412-72.6074 116.748-103.271 79.2969-103.271C41.8945-103.271 11.2793-72.6074 11.2793-35.2051C11.2793 2.19727 41.9434 32.8613 79.3457 32.8613ZM79.3457-0.0976562C74.0723-0.0976562 70.0195-3.66211 70.0195-8.69141L70.0195-33.3008L70.9961-46.1914L67.2363-40.4297L61.4258-33.4961C60.1562-31.8848 57.8613-30.9082 55.6152-30.9082C51.0254-30.9082 47.8516-33.9355 47.8516-38.3301C47.8516-40.7715 48.4863-42.4316 50.293-44.3848L71.6797-67.1875C73.7305-69.4824 76.2207-70.6055 79.3457-70.6055C82.4707-70.6055 84.9609-69.4824 87.0117-67.1875L108.35-44.3848C110.156-42.4316 110.84-40.7715 110.84-38.3301C110.84-33.9355 107.666-30.9082 103.027-30.9082C100.83-30.9082 98.584-31.8848 97.2168-33.4961L91.5039-40.1367L87.6953-46.1914L88.623-33.3008L88.623-8.69141C88.623-3.66211 84.5703-0.0976562 79.3457-0.0976562Z"/>
  </g>
  <g id="Heavy-L" transform="matrix(1 0 0 1 2558.39 1556)">
   <path d="M78.2715 31.7871C115.088 31.7871 145.312 1.5625 145.312-35.2051C145.312-72.0215 115.039-102.246 78.2715-102.246C41.4551-102.246 11.2793-72.0215 11.2793-35.2051C11.2793 1.5625 41.5039 31.7871 78.2715 31.7871ZM78.2715-0.78125C73.6816-0.78125 70.166-3.95508 70.166-8.34961L70.166-35.498L70.9961-48.3398L66.5039-42.0898L60.0586-34.7656C58.8867-33.3008 56.9336-32.4707 54.9316-32.4707C50.8301-32.4707 47.998-35.2051 47.998-39.0625C47.998-41.2109 48.584-42.7246 50.1465-44.3848L71.6797-66.9922C73.5352-68.9941 75.6348-69.9707 78.2715-69.9707C80.957-69.9707 83.1055-68.9941 84.9121-66.9922L106.396-44.3848C107.959-42.7246 108.594-41.2109 108.594-39.0625C108.594-35.2051 105.713-32.4707 101.66-32.4707C99.707-32.4707 97.7051-33.3008 96.5332-34.7656L90.1367-41.8457L85.5469-48.3398L86.377-35.498L86.377-8.34961C86.377-3.95508 82.8613-0.78125 78.2715-0.78125Z"/>
  </g>
  <g id="Bold-L" transform="matrix(1 0 0 1 2262.88 1556)">
   <path d="M77.0996 30.5664C113.232 30.5664 142.92 0.878906 142.92-35.2539C142.92-71.3379 113.184-101.074 77.0508-101.074C40.9668-101.074 11.2793-71.3379 11.2793-35.2539C11.2793 0.878906 41.0156 30.5664 77.0996 30.5664ZM77.0996-1.61133C73.2422-1.61133 70.3613-4.24805 70.3613-8.00781L70.3613-37.9883L71.0449-50.7324L65.7227-43.9453L58.4961-36.1328C57.4707-34.9121 55.8594-34.1797 54.1504-34.1797C50.6836-34.1797 48.1934-36.5723 48.1934-39.9414C48.1934-41.6992 48.7305-43.0176 50-44.3848L71.6797-66.748C73.2422-68.457 74.9512-69.2383 77.0996-69.2383C79.2969-69.2383 81.0059-68.4082 82.5684-66.748L104.199-44.3848C105.518-43.0176 106.055-41.6992 106.055-39.9414C106.055-36.5723 103.564-34.1797 100.098-34.1797C98.3887-34.1797 96.7773-34.8633 95.7031-36.1328L88.5254-43.7988L83.1543-50.7812L83.8379-37.9883L83.8379-8.00781C83.8379-4.24805 80.957-1.61133 77.0996-1.61133Z"/>
  </g>
  <g id="Semibold-L" transform="matrix(1 0 0 1 1966.97 1556)">
   <path d="M76.2695 29.7363C111.914 29.7363 141.309 0.390625 141.309-35.2539C141.309-70.8984 111.865-100.244 76.2695-100.244C40.625-100.244 11.2793-70.8984 11.2793-35.2539C11.2793 0.390625 40.6738 29.7363 76.2695 29.7363ZM76.2695-2.14844C72.9492-2.14844 70.459-4.49219 70.459-7.76367L70.459-39.6973L71.0449-52.3926L65.1855-45.2148L57.4707-37.0605C56.4941-36.0352 55.0781-35.4004 53.5645-35.4004C50.5371-35.4004 48.3398-37.5488 48.3398-40.4785C48.3398-42.0898 48.7793-43.2617 49.9023-44.4336L71.6797-66.6016C73.0957-68.0664 74.5117-68.75 76.2695-68.75C78.125-68.75 79.5898-68.0176 80.957-66.6016L102.686-44.4336C103.809-43.2617 104.297-42.0898 104.297-40.4785C104.297-37.5488 102.051-35.4004 99.0234-35.4004C97.5098-35.4004 96.0938-35.9863 95.1172-37.0605L87.4512-45.1172L81.4941-52.4414L82.1289-39.6973L82.1289-7.76367C82.1289-4.49219 79.6387-2.14844 76.2695-2.14844Z"/>
  </g>
  <g id="Medium-L" transform="matrix(1 0 0 1 1670.87 1556)">
   <path d="M75.6836 29.1504C110.938 29.1504 140.088 0 140.088-35.2539C140.088-70.5078 110.889-99.6582 75.6348-99.6582C40.3809-99.6582 11.2793-70.5078 11.2793-35.2539C11.2793 0 40.3809 29.1504 75.6836 29.1504ZM75.6836-2.58789C72.7051-2.58789 70.5566-4.63867 70.5566-7.56836L70.5566-41.0156L71.0938-53.6621L64.7949-46.1914L56.6406-37.793C55.7617-36.8652 54.541-36.3281 53.1738-36.3281C50.4395-36.3281 48.4375-38.2812 48.4375-40.918C48.4375-42.334 48.877-43.4082 49.8047-44.4336L71.6797-66.4551C72.9492-67.7734 74.1211-68.3594 75.6836-68.3594C77.2461-68.3594 78.4668-67.7734 79.7363-66.4551L101.562-44.4336C102.49-43.4082 102.979-42.334 102.979-40.918C102.979-38.2812 100.928-36.3281 98.1934-36.3281C96.8262-36.3281 95.6055-36.8164 94.7266-37.793L86.6211-46.1426L80.2246-53.7109L80.8105-41.0156L80.8105-7.56836C80.8105-4.63867 78.6621-2.58789 75.6836-2.58789Z"/>
  </g>
  <g id="Regular-L" transform="matrix(1 0 0 1 1374.97 1556)">
   <path d="M74.8535 28.3203C109.668 28.3203 138.477-0.488281 138.477-35.2539C138.477-70.0684 109.619-98.877 74.8047-98.877C40.0391-98.877 11.2793-70.0684 11.2793-35.2539C11.2793-0.488281 40.0879 28.3203 74.8535 28.3203ZM74.8535-3.125C72.4121-3.125 70.6543-4.88281 70.6543-7.32422L70.6543-42.6758L71.0938-55.3223L64.2578-47.4121L55.6152-38.7695C54.834-37.9395 53.8086-37.5 52.6367-37.5C50.293-37.5 48.584-39.209 48.584-41.5039C48.584-42.6758 48.9258-43.6523 49.707-44.4336L71.6797-66.3086C72.7539-67.4316 73.6816-67.8711 74.8535-67.8711C76.123-67.8711 77.0508-67.3828 78.125-66.3086L100.049-44.4336C100.83-43.6523 101.221-42.6758 101.221-41.5039C101.221-39.209 99.4629-37.5 97.1191-37.5C95.9473-37.5 94.9707-37.8906 94.1406-38.7695L85.5469-47.4121L78.6133-55.3711L79.0527-42.6758L79.0527-7.32422C79.0527-4.88281 77.3438-3.125 74.8535-3.125Z"/>
  </g>
  <g id="Light-L" transform="matrix(1 0 0 1 1079.18 1556)">
   <path d="M73.9258 27.3926C108.301 27.3926 136.621-0.927734 136.621-35.2539C136.621-69.6289 108.252-97.9492 73.9258-97.9492C39.5508-97.9492 11.2793-69.6289 11.2793-35.2539C11.2793-0.927734 39.5996 27.3926 73.9258 27.3926ZM73.9258-3.61328C72.0703-3.61328 70.6543-4.98047 70.6543-6.88477L70.6543-46.3379L70.9961-57.373L63.6719-49.4141L53.7109-39.4531C53.0762-38.7695 52.2949-38.4277 51.3672-38.4277C49.6094-38.4277 48.291-39.7461 48.291-41.5039C48.291-42.4316 48.584-43.1152 49.1699-43.75L71.5332-66.0645C72.3145-66.8945 73.0469-67.2363 73.9258-67.2363C74.8535-67.2363 75.5859-66.8457 76.416-66.0645L98.7793-43.75C99.3652-43.1152 99.6582-42.4316 99.6582-41.5039C99.6582-39.7461 98.3398-38.4277 96.5332-38.4277C95.6055-38.4277 94.873-38.7695 94.2383-39.4531L84.3262-49.4141L76.8555-57.4707L77.1973-46.3379L77.1973-6.88477C77.1973-4.98047 75.8789-3.61328 73.9258-3.61328Z"/>
  </g>
  <g id="Thin-L" transform="matrix(1 0 0 1 783.693 1556)">
   <path d="M72.7051 26.1719C106.494 26.1719 134.18-1.51367 134.18-35.2539C134.18-69.043 106.494-96.7285 72.7051-96.7285C38.9648-96.7285 11.2793-69.043 11.2793-35.2539C11.2793-1.51367 38.9648 26.1719 72.7051 26.1719ZM72.7051-4.29688C71.5332-4.29688 70.7031-5.07812 70.7031-6.29883L70.7031-51.2207L70.8984-60.1074L62.8906-52.0508L51.1719-40.332C50.7324-39.8926 50.3418-39.6973 49.7559-39.6973C48.6816-39.6973 47.9004-40.4785 47.9004-41.4551C47.9004-42.041 48.0957-42.4316 48.4375-42.8223L71.3379-65.7715C71.7285-66.1621 72.2168-66.3574 72.7051-66.3574C73.2422-66.3574 73.6816-66.1621 74.1211-65.7715L97.0703-42.8223C97.4121-42.4316 97.6074-42.041 97.6074-41.4551C97.6074-40.4785 96.8262-39.6973 95.752-39.6973C95.166-39.6973 94.7754-39.8926 94.3359-40.332L82.666-52.0508L74.5117-60.2051L74.7559-51.2207L74.7559-6.29883C74.7559-5.07812 73.9258-4.29688 72.7051-4.29688Z"/>
  </g>
  <g id="Ultralight-L" transform="matrix(1 0 0 1 487.616 1556)">
   <path d="M72.1191 25.5371C105.566 25.5371 132.91-1.80664 132.91-35.2539C132.91-68.75 105.566-96.0938 72.1191-96.0938C38.623-96.0938 11.2793-68.75 11.2793-35.2539C11.2793-1.80664 38.623 25.5371 72.1191 25.5371ZM72.0703-4.63867C71.2891-4.63867 70.7031-5.12695 70.7031-6.00586L70.7031-53.6621L70.8496-61.5234L62.4512-53.3691L49.9023-40.8203C49.5605-40.4297 49.3164-40.332 48.9258-40.332C48.1934-40.332 47.7051-40.8203 47.7051-41.4551C47.7051-41.8457 47.8027-42.0898 48.0957-42.3828L71.2402-65.5762C71.4355-65.8203 71.7773-65.918 72.0703-65.918C72.4121-65.918 72.7051-65.8203 72.9492-65.5762L96.1914-42.3828C96.4355-42.0898 96.582-41.8457 96.582-41.4551C96.582-40.8203 96.0938-40.332 95.3613-40.332C94.9707-40.332 94.7266-40.4297 94.3848-40.8203L81.7871-53.3691L73.3398-61.6211L73.4863-53.6621L73.4863-6.00586C73.4863-5.12695 72.9492-4.63867 72.0703-4.63867Z"/>
  </g>
  <g id="Black-M" transform="matrix(1 0 0 1 2870.97 1126)">
   <path d="M62.4023 18.457C91.9922 18.457 116.113-5.61523 116.113-35.2051C116.113-64.7949 91.9922-88.8672 62.4023-88.8672C32.8125-88.8672 8.74023-64.7949 8.74023-35.2051C8.74023-5.61523 32.8125 18.457 62.4023 18.457ZM62.4023-7.27539C57.7637-7.27539 54.1016-10.4492 54.1016-14.8438L54.1016-32.666L54.9316-41.8945L52.7344-38.0859L48.4375-32.6172C47.3633-31.1523 45.3613-30.2734 43.4082-30.2734C39.4043-30.2734 36.7188-32.8613 36.7188-36.6211C36.7188-38.7695 37.2559-40.1367 38.916-41.9434L55.4688-60.1562C57.2266-62.1582 59.5703-63.1836 62.4023-63.1836C65.2344-63.1836 67.5781-62.1582 69.3359-60.1562L85.9375-41.9434C87.5977-40.1367 88.1348-38.7695 88.1348-36.6211C88.1348-32.8613 85.4492-30.2734 81.3965-30.2734C79.541-30.2734 77.5391-31.1523 76.3672-32.6172L72.168-37.793L69.9219-41.8945L70.752-32.666L70.752-14.8438C70.752-10.4492 67.0898-7.27539 62.4023-7.27539Z"/>
  </g>
  <g id="Heavy-M" transform="matrix(1 0 0 1 2575.19 1126)">
   <path d="M61.5234 17.5293C90.5273 17.5293 114.258-6.20117 114.258-35.2051C114.258-64.2578 90.5273-87.9883 61.4746-87.9883C32.4707-87.9883 8.74023-64.2578 8.74023-35.2051C8.74023-6.20117 32.4707 17.5293 61.5234 17.5293ZM61.5234-7.95898C57.4219-7.95898 54.248-10.6934 54.248-14.5996L54.248-34.1797L54.9805-43.7012L52.0996-39.4043L47.4609-33.7891C46.4844-32.5195 44.7266-31.7383 42.9688-31.7383C39.4043-31.7383 36.9629-34.082 36.9629-37.4512C36.9629-39.3066 37.4512-40.5762 38.8672-42.1387L55.5176-59.9609C57.0801-61.7676 59.082-62.6465 61.5234-62.6465C63.9648-62.6465 65.918-61.7676 67.5293-59.9609L84.1309-42.1387C85.5469-40.5762 86.084-39.3066 86.084-37.4512C86.084-34.082 83.6426-31.7383 80.0293-31.7383C78.3691-31.7383 76.6113-32.4707 75.5859-33.7891L70.9473-39.1602L68.0176-43.75L68.75-34.1797L68.75-14.5996C68.75-10.6934 65.5762-7.95898 61.5234-7.95898Z"/>
  </g>
  <g id="Bold-M" transform="matrix(1 0 0 1 2279.5 1126)">
   <path d="M60.498 16.5039C88.8672 16.5039 112.207-6.83594 112.207-35.2051C112.207-63.623 88.8672-86.9629 60.4492-86.9629C32.0312-86.9629 8.74023-63.623 8.74023-35.2051C8.74023-6.83594 32.0801 16.5039 60.498 16.5039ZM60.498-8.69141C57.0312-8.69141 54.4434-11.0352 54.4434-14.3555L54.4434-35.791L55.0293-45.752L51.416-40.8203L46.3379-35.1074C45.4102-33.9844 43.9453-33.3496 42.4316-33.3496C39.4043-33.3496 37.2559-35.4492 37.2559-38.3789C37.2559-39.9414 37.6953-41.1133 38.8672-42.334L55.5664-59.8145C56.9336-61.3281 58.4961-62.0117 60.498-62.0117C62.4512-62.0117 64.0625-61.2793 65.4297-59.8145L82.1289-42.334C83.252-41.1133 83.7402-39.9414 83.7402-38.3789C83.7402-35.4492 81.5918-33.3496 78.5156-33.3496C77.0508-33.3496 75.5859-33.9844 74.6582-35.1074L69.5801-40.6738L65.918-45.8008L66.5527-35.791L66.5527-14.3555C66.5527-11.0352 63.916-8.69141 60.498-8.69141Z"/>
  </g>
  <g id="Semibold-M" transform="matrix(1 0 0 1 1983.5 1126)">
   <path d="M59.7656 15.8203C87.7441 15.8203 110.791-7.27539 110.791-35.2539C110.791-63.2324 87.6953-86.2793 59.7656-86.2793C31.7871-86.2793 8.74023-63.2324 8.74023-35.2539C8.74023-7.27539 31.7871 15.8203 59.7656 15.8203ZM59.7656-9.17969C56.7871-9.17969 54.541-11.2793 54.541-14.1602L54.541-36.9629L55.0781-47.168L50.9766-41.8457L45.5566-35.9863C44.7266-35.0586 43.457-34.4727 42.0898-34.4727C39.4043-34.4727 37.4512-36.377 37.4512-39.0137C37.4512-40.3809 37.8418-41.4551 38.8672-42.4805L55.5664-59.668C56.8359-61.0352 58.1543-61.6211 59.7656-61.6211C61.4746-61.6211 62.793-60.9863 64.0137-59.668L80.7129-42.4805C81.6895-41.4551 82.1289-40.3809 82.1289-39.0137C82.1289-36.377 80.1758-34.4727 77.4414-34.4727C76.123-34.4727 74.8535-35.0098 74.0234-35.9863L68.6523-41.6992L64.4531-47.2168L65.0391-36.9629L65.0391-14.1602C65.0391-11.2793 62.793-9.17969 59.7656-9.17969Z"/>
  </g>
  <g id="Medium-M" transform="matrix(1 0 0 1 1687.3 1126)">
   <path d="M59.2285 15.2344C86.9141 15.2344 109.766-7.61719 109.766-35.2539C109.766-62.8906 86.8652-85.7422 59.1797-85.7422C31.543-85.7422 8.74023-62.8906 8.74023-35.2539C8.74023-7.61719 31.5918 15.2344 59.2285 15.2344ZM59.2285-9.57031C56.5918-9.57031 54.6387-11.4258 54.6387-14.0625L54.6387-37.793L55.127-48.2422L50.5859-42.5781L44.9707-36.6699C44.1895-35.8398 43.0664-35.3516 41.8457-35.3516C39.4043-35.3516 37.5977-37.1094 37.5977-39.502C37.5977-40.7227 37.9883-41.6992 38.8184-42.5781L55.6152-59.5703C56.7383-60.791 57.8613-61.3281 59.2285-61.3281C60.6934-61.3281 61.8164-60.7422 62.9395-59.5703L79.6387-42.5781C80.5176-41.6992 80.9082-40.7227 80.9082-39.502C80.9082-37.1094 79.1016-35.3516 76.6602-35.3516C75.4395-35.3516 74.3164-35.791 73.5352-36.6699L67.9688-42.5293L63.3789-48.291L63.8672-37.793L63.8672-14.0625C63.8672-11.4258 61.9141-9.57031 59.2285-9.57031Z"/>
  </g>
  <g id="Regular-M" transform="matrix(1 0 0 1 1391.3 1126)">
   <path d="M58.5449 14.5508C85.791 14.5508 108.35-8.05664 108.35-35.2539C108.35-62.5 85.7422-85.0586 58.4961-85.0586C31.2988-85.0586 8.74023-62.5 8.74023-35.2539C8.74023-8.05664 31.3477 14.5508 58.5449 14.5508ZM58.5449-10.0586C56.3477-10.0586 54.7363-11.6211 54.7363-13.8672L54.7363-38.916L55.1758-49.6094L50.1465-43.5547L44.1895-37.5488C43.5059-36.8652 42.5293-36.4258 41.5039-36.4258C39.4043-36.4258 37.8418-38.0371 37.8418-40.0879C37.8418-41.1621 38.1348-42.041 38.8184-42.7246L55.6152-59.4727C56.6406-60.498 57.4707-60.8887 58.5449-60.8887C59.668-60.8887 60.5469-60.4492 61.5234-59.4727L78.2715-42.7246C78.9551-42.041 79.3457-41.1621 79.3457-40.0879C79.3457-38.0371 77.7344-36.4258 75.6348-36.4258C74.5605-36.4258 73.6328-36.8164 72.9492-37.5488L67.041-43.5547L61.9141-49.6582L62.3535-38.916L62.3535-13.8672C62.3535-11.6211 60.791-10.0586 58.5449-10.0586Z"/>
  </g>
  <g id="Light-M" transform="matrix(1 0 0 1 1095.42 1126)">
   <path d="M57.7148 13.7207C84.5215 13.7207 106.689-8.44727 106.689-35.2539C106.689-62.1094 84.5215-84.2285 57.666-84.2285C30.8594-84.2285 8.74023-62.1094 8.74023-35.2539C8.74023-8.44727 30.9082 13.7207 57.7148 13.7207ZM57.7148-10.498C56.0059-10.498 54.7852-11.7188 54.7852-13.4766L54.7852-42.2363L55.0781-51.4648L49.6094-45.3125L42.4805-38.1836C41.8945-37.5977 41.2109-37.3047 40.3809-37.3047C38.7695-37.3047 37.5488-38.5254 37.5488-40.0879C37.5488-40.918 37.793-41.6016 38.3301-42.1387L55.5176-59.2285C56.25-60.0098 56.8848-60.3027 57.7148-60.3027C58.5938-60.3027 59.2285-59.9609 59.9609-59.2285L77.1484-42.1387C77.6855-41.6016 77.9297-40.918 77.9297-40.0879C77.9297-38.5254 76.709-37.3047 75.0977-37.3047C74.2676-37.3047 73.584-37.5977 72.998-38.1836L65.918-45.3125L60.3516-51.5137L60.6934-42.2363L60.6934-13.4766C60.6934-11.7188 59.4727-10.498 57.7148-10.498Z"/>
  </g>
  <g id="Thin-M" transform="matrix(1 0 0 1 799.806 1126)">
   <path d="M56.6406 12.5977C82.9102 12.5977 104.492-8.98438 104.492-35.2539C104.492-61.5723 82.9102-83.1543 56.5918-83.1543C30.3223-83.1543 8.74023-61.5723 8.74023-35.2539C8.74023-8.98438 30.3223 12.5977 56.6406 12.5977ZM56.6406-11.1328C55.5664-11.1328 54.7852-11.8164 54.7852-12.9395L54.7852-46.5332L54.9805-53.9062L48.877-47.7051L40.2344-39.0137C39.8438-38.5742 39.4531-38.4277 38.916-38.4277C37.9395-38.4277 37.207-39.1602 37.207-40.0879C37.207-40.5762 37.3535-40.9668 37.6953-41.3086L55.3223-58.9355C55.7129-59.375 56.1523-59.5703 56.6406-59.5703C57.1289-59.5703 57.5195-59.375 57.959-58.9355L75.5859-41.3086C75.9277-40.9668 76.123-40.5762 76.123-40.0879C76.123-39.1602 75.3906-38.4277 74.3652-38.4277C73.877-38.4277 73.4863-38.5742 73.0957-39.0137L64.4043-47.7051L58.252-54.0039L58.4473-46.5332L58.4473-12.9395C58.4473-11.8164 57.7148-11.1328 56.6406-11.1328Z"/>
  </g>
  <g id="Ultralight-M" transform="matrix(1 0 0 1 503.656 1126)">
   <path d="M56.0547 12.0605C82.0801 12.0605 103.369-9.22852 103.369-35.2539C103.369-61.2793 82.0801-82.5684 56.0547-82.5684C30.0293-82.5684 8.74023-61.2793 8.74023-35.2539C8.74023-9.22852 30.0293 12.0605 56.0547 12.0605ZM56.0547-11.4258C55.3223-11.4258 54.7852-11.9141 54.7852-12.6953L54.7852-48.7793L54.9316-55.1758L48.5352-48.877L39.0625-39.4043C38.7695-39.1113 38.5254-38.9648 38.1836-38.9648C37.5-38.9648 37.0117-39.4531 37.0117-40.0391C37.0117-40.4297 37.1582-40.6738 37.4023-40.918L55.2246-58.7891C55.4688-59.0332 55.7617-59.1797 56.0547-59.1797C56.3477-59.1797 56.6406-59.0332 56.8848-58.7891L74.8047-40.918C75.0488-40.6738 75.1465-40.4297 75.1465-40.0391C75.1465-39.4531 74.707-38.9648 74.0234-38.9648C73.6816-38.9648 73.4375-39.1113 73.1445-39.4043L63.6719-48.877L57.2266-55.2246L57.3242-48.7793L57.3242-12.6953C57.3242-11.9141 56.8359-11.4258 56.0547-11.4258Z"/>
  </g>
  <g id="Black-S" transform="matrix(1 0 0 1 2884.57 696)">
   <path d="M48.8281 6.78711C71.9727 6.78711 90.8203-12.0605 90.8203-35.2051C90.8203-58.3496 71.9727-77.1973 48.8281-77.1973C25.6836-77.1973 6.83594-58.3496 6.83594-35.2051C6.83594-12.0605 25.6836 6.78711 48.8281 6.78711ZM48.8281-13.3789C45.2148-13.3789 42.3828-15.8203 42.3828-19.2383L42.3828-33.3008L43.0176-40.5762L41.2598-37.5488L37.8906-33.252C37.0605-32.1289 35.498-31.4453 33.9844-31.4453C30.8594-31.4453 28.7598-33.4473 28.7598-36.377C28.7598-38.0371 29.1992-39.1113 30.4688-40.5273L43.457-54.7363C44.8242-56.2988 46.6309-57.0801 48.8281-57.0801C51.0254-57.0801 52.832-56.2988 54.1992-54.7363L67.1875-40.5273C68.457-39.1113 68.8965-38.0371 68.8965-36.377C68.8965-33.4473 66.7969-31.4453 63.6719-31.4453C62.207-31.4453 60.6445-32.1289 59.7656-33.252L56.4453-37.3047L54.6387-40.5762L55.2734-33.3008L55.2734-19.2383C55.2734-15.8203 52.4414-13.3789 48.8281-13.3789Z"/>
  </g>
  <g id="Heavy-S" transform="matrix(1 0 0 1 2588.47 696)">
   <path d="M48.2422 6.15234C70.9961 6.15234 89.5996-12.4512 89.5996-35.2051C89.5996-57.959 70.9961-76.6113 48.1934-76.6113C25.4395-76.6113 6.83594-57.959 6.83594-35.2051C6.83594-12.4512 25.4395 6.15234 48.2422 6.15234ZM48.2422-13.8184C45.0195-13.8184 42.4805-16.0156 42.4805-19.0918L42.4805-34.082L43.0664-41.748L40.8691-38.3301L37.3047-34.082C36.5234-33.0566 35.1562-32.4707 33.7402-32.4707C30.9082-32.4707 29.0039-34.3262 29.0039-37.0117C29.0039-38.4766 29.3945-39.502 30.5176-40.7227L43.5059-54.6387C44.7754-56.0547 46.2891-56.7383 48.2422-56.7383C50.1465-56.7383 51.709-56.0547 52.9785-54.6387L65.918-40.7227C67.041-39.502 67.4805-38.4766 67.4805-37.0117C67.4805-34.3262 65.5273-32.4707 62.6953-32.4707C61.3281-32.4707 59.9609-33.0566 59.1309-34.082L55.6641-38.1348L53.3691-41.7969L53.9551-34.082L53.9551-19.0918C53.9551-16.0156 51.4648-13.8184 48.2422-13.8184Z"/>
  </g>
  <g id="Bold-S" transform="matrix(1 0 0 1 2292.44 696)">
   <path d="M47.5586 5.46875C69.873 5.46875 88.2324-12.8906 88.2324-35.2539C88.2324-57.5684 69.873-75.9277 47.5098-75.9277C25.1953-75.9277 6.83594-57.5684 6.83594-35.2539C6.83594-12.8906 25.1953 5.46875 47.5586 5.46875ZM47.5586-14.3555C44.7266-14.3555 42.627-16.2598 42.627-18.9453L42.627-34.9121L43.1152-43.0664L40.3809-39.209L36.6699-35.0098C35.9375-34.1309 34.7168-33.5938 33.4961-33.5938C31.0059-33.5938 29.248-35.3027 29.248-37.6953C29.248-39.0137 29.5898-39.9414 30.5664-40.9668L43.5547-54.541C44.6777-55.7617 45.9473-56.3477 47.5586-56.3477C49.1699-56.3477 50.4395-55.7617 51.5625-54.541L64.5508-40.9668C65.4785-39.9414 65.8691-39.0137 65.8691-37.6953C65.8691-35.3027 64.0625-33.5938 61.5723-33.5938C60.4004-33.5938 59.1797-34.1309 58.4473-35.0098L54.7363-39.1113L51.9531-43.1152L52.4414-34.9121L52.4414-18.9453C52.4414-16.2598 50.3418-14.3555 47.5586-14.3555Z"/>
  </g>
  <g id="Semibold-S" transform="matrix(1 0 0 1 1996.2 696)">
   <path d="M47.0703 4.98047C69.0918 4.98047 87.3047-13.1836 87.3047-35.2539C87.3047-57.2754 69.0918-75.4883 47.0215-75.4883C25-75.4883 6.83594-57.2754 6.83594-35.2539C6.83594-13.1836 25.0488 4.98047 47.0703 4.98047ZM47.0703-14.6973C44.5801-14.6973 42.7246-16.4062 42.7246-18.8477L42.7246-35.498L43.1641-43.9941L40.0879-39.8438L36.2305-35.6445C35.5469-34.8633 34.4727-34.375 33.3496-34.375C31.0547-34.375 29.4434-35.9863 29.4434-38.1836C29.4434-39.3555 29.7852-40.2832 30.5664-41.1133L43.5547-54.4434C44.6289-55.5664 45.7031-56.1035 47.0703-56.1035C48.4863-56.1035 49.5605-55.5664 50.5859-54.4434L63.5742-41.1133C64.4043-40.2832 64.7461-39.3555 64.7461-38.1836C64.7461-35.9863 63.0859-34.375 60.8398-34.375C59.7168-34.375 58.6426-34.8633 57.959-35.6445L54.1504-39.7461L50.9766-44.043L51.416-35.498L51.416-18.8477C51.416-16.4062 49.5605-14.6973 47.0703-14.6973Z"/>
  </g>
  <g id="Medium-S" transform="matrix(1 0 0 1 1699.83 696)">
   <path d="M46.7285 4.63867C68.5547 4.63867 86.6211-13.4277 86.6211-35.2539C86.6211-57.0801 68.5059-75.1465 46.6797-75.1465C24.8535-75.1465 6.83594-57.0801 6.83594-35.2539C6.83594-13.4277 24.9023 4.63867 46.7285 4.63867ZM46.7285-14.9414C44.4336-14.9414 42.7734-16.5527 42.7734-18.7988L42.7734-35.9375L43.2129-44.6777L39.8438-40.2832L35.8887-36.1328C35.2051-35.4492 34.2285-35.0098 33.2031-35.0098C31.1035-35.0098 29.5898-36.5234 29.5898-38.5742C29.5898-39.6484 29.8828-40.4785 30.6152-41.2598L43.6035-54.3945C44.6289-55.4199 45.5078-55.9082 46.7285-55.9082C47.9492-55.9082 48.9258-55.4199 49.9023-54.3945L62.8418-41.2598C63.5742-40.4785 63.916-39.6484 63.916-38.5742C63.916-36.5234 62.3535-35.0098 60.2539-35.0098C59.2285-35.0098 58.252-35.4004 57.5684-36.1328L53.6621-40.2344L50.2441-44.7266L50.6348-35.9375L50.6348-18.7988C50.6348-16.5527 48.9746-14.9414 46.7285-14.9414Z"/>
  </g>
  <g id="Regular-S" transform="matrix(1 0 0 1 1403.58 696)">
   <path d="M46.2402 4.15039C67.7734 4.15039 85.6934-13.7207 85.6934-35.2539C85.6934-56.7871 67.7246-74.6582 46.1914-74.6582C24.707-74.6582 6.83594-56.7871 6.83594-35.2539C6.83594-13.7207 24.7559 4.15039 46.2402 4.15039ZM46.2402-15.2832C44.2871-15.2832 42.8711-16.6992 42.8711-18.7012L42.8711-36.5234L43.2617-45.6055L39.502-40.918L35.4492-36.7676C34.8145-36.1328 33.9844-35.791 33.0078-35.791C31.1523-35.791 29.7363-37.207 29.7363-39.0625C29.7363-39.9902 30.0293-40.8203 30.6152-41.4062L43.6523-54.2969C44.5801-55.2246 45.2637-55.6152 46.2402-55.6152C47.2656-55.6152 48.0469-55.2246 48.9258-54.2969L61.8652-41.4062C62.5-40.8203 62.8418-39.9902 62.8418-39.0625C62.8418-37.207 61.377-35.791 59.4727-35.791C58.5449-35.791 57.7148-36.084 57.0801-36.7676L53.0273-40.918L49.2676-45.6543L49.6582-36.5234L49.6582-18.7012C49.6582-16.6992 48.2422-15.2832 46.2402-15.2832Z"/>
  </g>
  <g id="Light-S" transform="matrix(1 0 0 1 1107.6 696)">
   <path d="M45.5078 3.41797C66.6992 3.41797 84.2285-14.0625 84.2285-35.2539C84.2285-56.4453 66.6504-73.9258 45.5078-73.9258C24.3164-73.9258 6.83594-56.4453 6.83594-35.2539C6.83594-14.0625 24.3652 3.41797 45.5078 3.41797ZM45.5078-15.7227C43.9941-15.7227 42.8711-16.7969 42.8711-18.3594L42.8711-39.4531L43.1641-47.2656L39.0625-42.4805L33.9355-37.3047C33.3984-36.8164 32.7637-36.5234 32.0312-36.5234C30.6152-36.5234 29.4922-37.5977 29.4922-39.0625C29.4922-39.7949 29.7363-40.3809 30.2246-40.8691L43.5059-54.1016C44.2383-54.834 44.7754-55.127 45.5078-55.127C46.2891-55.127 46.875-54.7852 47.5586-54.1016L60.8398-40.8691C61.3281-40.3809 61.5723-39.7949 61.5723-39.0625C61.5723-37.5977 60.4492-36.5234 59.0332-36.5234C58.3008-36.5234 57.666-36.7676 57.1289-37.3047L52.0508-42.4805L47.8516-47.3145L48.1445-39.4531L48.1445-18.3594C48.1445-16.7969 47.0703-15.7227 45.5078-15.7227Z"/>
  </g>
  <g id="Thin-S" transform="matrix(1 0 0 1 811.867 696)">
   <path d="M44.5801 2.49023C65.2832 2.49023 82.2754-14.5508 82.2754-35.2539C82.2754-55.957 65.2344-72.998 44.5312-72.998C23.8281-72.998 6.83594-55.957 6.83594-35.2539C6.83594-14.5508 23.877 2.49023 44.5801 2.49023ZM44.5801-16.2109C43.6035-16.2109 42.9199-16.8945 42.9199-17.8711L42.9199-43.2617L43.0664-49.4141L38.4277-44.5312L31.9336-38.0371C31.5918-37.6953 31.2012-37.5 30.7617-37.5C29.8828-37.5 29.1992-38.1836 29.1992-39.0137C29.1992-39.502 29.3457-39.8438 29.6387-40.1367L43.3594-53.8574C43.75-54.248 44.1406-54.4434 44.5801-54.4434C45.0195-54.4434 45.4102-54.248 45.752-53.8574L59.5215-40.1367C59.8145-39.8438 59.9609-39.502 59.9609-39.0137C59.9609-38.1836 59.2773-37.5 58.3984-37.5C57.959-37.5 57.5684-37.6465 57.2266-38.0371L50.7324-44.5312L46.0449-49.4629L46.1914-43.2617L46.1914-17.8711C46.1914-16.8945 45.5566-16.2109 44.5801-16.2109Z"/>
  </g>
  <g id="Ultralight-S" transform="matrix(1 0 0 1 515.644 696)">
   <path d="M44.043 1.95312C64.502 1.95312 81.2988-14.7949 81.2988-35.2539C81.2988-55.7129 64.502-72.4609 44.043-72.4609C23.584-72.4609 6.83594-55.7129 6.83594-35.2539C6.83594-14.7949 23.584 1.95312 44.043 1.95312ZM44.043-16.5039C43.4082-16.5039 42.9199-16.9434 42.9199-17.627L42.9199-45.2637L43.0176-50.5371L38.0859-45.6055L30.9082-38.3789C30.6152-38.1348 30.4199-38.0371 30.0781-38.0371C29.4922-38.0371 29.0527-38.4766 29.0527-39.0137C29.0527-39.3555 29.1504-39.5508 29.3457-39.7949L43.2617-53.7598C43.5059-53.9551 43.7988-54.1016 44.043-54.1016C44.3359-54.1016 44.6289-53.9551 44.8242-53.7598L58.7891-39.7949C59.0332-39.5508 59.1309-39.3555 59.1309-39.0137C59.1309-38.4766 58.6914-38.0371 58.0566-38.0371C57.7637-38.0371 57.5195-38.1348 57.2754-38.3789L50.0488-45.6055L45.0684-50.5859L45.2148-45.2637L45.2148-17.627C45.2148-16.9434 44.7754-16.5039 44.043-16.5039Z"/>
  </g>
 </g>
</svg>
