<?xml version="1.0" encoding="UTF-8"?>
<!--Generator: Apple Native CoreSVG 149-->
<!DOCTYPE svg
PUBLIC "-//W3C//DTD SVG 1.1//EN"
       "http://www.w3.org/Graphics/SVG/1.1/DTD/svg11.dtd">
<svg version="1.1" xmlns="http://www.w3.org/2000/svg" xmlns:xlink="http://www.w3.org/1999/xlink" width="3300" height="2200">
 <!--glyph: "uni10039F.medium", point size: 100.000000, font version: "Version 16.0d18e1", template writer version: "8"-->
 <g id="Notes">
  <rect height="2200" id="artboard" style="fill:white;opacity:1" width="3300" x="0" y="0"/>
  <line id="" style="fill:none;stroke:black;opacity:1;stroke-width:0.5;" x1="263" x2="3036" y1="292" y2="292"/>
  <text style="stroke:none;fill:black;font-family:-apple-system,&quot;SF Pro Display&quot;,&quot;SF Pro Text&quot;,Helvetica,sans-serif;font-weight:bold;" transform="matrix(1 0 0 1 263 322)">Weight/Scale Variations</text>
  <text style="stroke:none;fill:black;font-family:-apple-system,&quot;SF Pro Display&quot;,&quot;SF Pro Text&quot;,Helvetica,sans-serif;text-anchor:middle;" transform="matrix(1 0 0 1 559.711 322)">Ultralight</text>
  <text style="stroke:none;fill:black;font-family:-apple-system,&quot;SF Pro Display&quot;,&quot;SF Pro Text&quot;,Helvetica,sans-serif;text-anchor:middle;" transform="matrix(1 0 0 1 856.422 322)">Thin</text>
  <text style="stroke:none;fill:black;font-family:-apple-system,&quot;SF Pro Display&quot;,&quot;SF Pro Text&quot;,Helvetica,sans-serif;text-anchor:middle;" transform="matrix(1 0 0 1 1153.13 322)">Light</text>
  <text style="stroke:none;fill:black;font-family:-apple-system,&quot;SF Pro Display&quot;,&quot;SF Pro Text&quot;,Helvetica,sans-serif;text-anchor:middle;" transform="matrix(1 0 0 1 1449.84 322)">Regular</text>
  <text style="stroke:none;fill:black;font-family:-apple-system,&quot;SF Pro Display&quot;,&quot;SF Pro Text&quot;,Helvetica,sans-serif;text-anchor:middle;" transform="matrix(1 0 0 1 1746.56 322)">Medium</text>
  <text style="stroke:none;fill:black;font-family:-apple-system,&quot;SF Pro Display&quot;,&quot;SF Pro Text&quot;,Helvetica,sans-serif;text-anchor:middle;" transform="matrix(1 0 0 1 2043.27 322)">Semibold</text>
  <text style="stroke:none;fill:black;font-family:-apple-system,&quot;SF Pro Display&quot;,&quot;SF Pro Text&quot;,Helvetica,sans-serif;text-anchor:middle;" transform="matrix(1 0 0 1 2339.98 322)">Bold</text>
  <text style="stroke:none;fill:black;font-family:-apple-system,&quot;SF Pro Display&quot;,&quot;SF Pro Text&quot;,Helvetica,sans-serif;text-anchor:middle;" transform="matrix(1 0 0 1 2636.69 322)">Heavy</text>
  <text style="stroke:none;fill:black;font-family:-apple-system,&quot;SF Pro Display&quot;,&quot;SF Pro Text&quot;,Helvetica,sans-serif;text-anchor:middle;" transform="matrix(1 0 0 1 2933.4 322)">Black</text>
  <line id="" style="fill:none;stroke:black;opacity:1;stroke-width:0.5;" x1="263" x2="3036" y1="1903" y2="1903"/>
  <g id="" transform="matrix(1 0 0 1 263 1933)">
   <path d="M9.24805 0.830078C13.5547 0.830078 17.1387-2.74414 17.1387-7.05078C17.1387-11.3574 13.5449-14.9316 9.23828-14.9316C4.94141-14.9316 1.36719-11.3574 1.36719-7.05078C1.36719-2.74414 4.95117 0.830078 9.24805 0.830078ZM9.24805-0.654297C5.70312-0.654297 2.87109-3.49609 2.87109-7.05078C2.87109-10.6055 5.69336-13.4473 9.23828-13.4473C12.793-13.4473 15.6348-10.6055 15.6445-7.05078C15.6543-3.49609 12.8027-0.654297 9.24805-0.654297ZM6.39648-6.31836L8.50586-6.31836L8.50586-4.19922C8.50586-3.75977 8.79883-3.45703 9.22852-3.45703C9.67773-3.45703 9.9707-3.75977 9.9707-4.19922L9.9707-6.31836L12.0996-6.31836C12.5391-6.31836 12.8418-6.61133 12.8418-7.04102C12.8418-7.48047 12.5391-7.7832 12.0996-7.7832L9.9707-7.7832L9.9707-9.89258C9.9707-10.3418 9.67773-10.6445 9.22852-10.6445C8.79883-10.6445 8.50586-10.3418 8.50586-9.89258L8.50586-7.7832L6.39648-7.7832C5.94727-7.7832 5.64453-7.48047 5.64453-7.04102C5.64453-6.61133 5.94727-6.31836 6.39648-6.31836Z"/>
  </g>
  <g id="" transform="matrix(1 0 0 1 281.506 1933)">
   <path d="M11.709 2.91016C17.1582 2.91016 21.6699-1.61133 21.6699-7.05078C21.6699-12.5 17.1484-17.0117 11.6992-17.0117C6.25977-17.0117 1.74805-12.5 1.74805-7.05078C1.74805-1.61133 6.26953 2.91016 11.709 2.91016ZM11.709 1.25C7.09961 1.25 3.41797-2.44141 3.41797-7.05078C3.41797-11.6602 7.08984-15.3516 11.6992-15.3516C16.3086-15.3516 20-11.6602 20.0098-7.05078C20.0195-2.44141 16.3184 1.25 11.709 1.25ZM7.98828-6.23047L10.8789-6.23047L10.8789-3.32031C10.8789-2.83203 11.2109-2.5 11.6895-2.5C12.1777-2.5 12.5195-2.83203 12.5195-3.32031L12.5195-6.23047L15.4297-6.23047C15.918-6.23047 16.25-6.5625 16.25-7.04102C16.25-7.5293 15.918-7.87109 15.4297-7.87109L12.5195-7.87109L12.5195-10.7617C12.5195-11.2695 12.1777-11.6016 11.6895-11.6016C11.2109-11.6016 10.8789-11.2598 10.8789-10.7617L10.8789-7.87109L7.98828-7.87109C7.48047-7.87109 7.14844-7.5293 7.14844-7.04102C7.14844-6.5625 7.49023-6.23047 7.98828-6.23047Z"/>
  </g>
  <g id="" transform="matrix(1 0 0 1 304.924 1933)">
   <path d="M14.9707 5.66406C21.9336 5.66406 27.6953-0.0976562 27.6953-7.05078C27.6953-14.0137 21.9238-19.7754 14.9609-19.7754C8.00781-19.7754 2.25586-14.0137 2.25586-7.05078C2.25586-0.0976562 8.01758 5.66406 14.9707 5.66406ZM14.9707 3.84766C8.93555 3.84766 4.08203-1.01562 4.08203-7.05078C4.08203-13.0957 8.92578-17.9492 14.9609-17.9492C21.0059-17.9492 25.8594-13.0957 25.8691-7.05078C25.8789-1.01562 21.0156 3.84766 14.9707 3.84766ZM10.0586-6.14258L14.0625-6.14258L14.0625-2.12891C14.0625-1.5918 14.4336-1.2207 14.9512-1.2207C15.4883-1.2207 15.8594-1.5918 15.8594-2.12891L15.8594-6.14258L19.8828-6.14258C20.4102-6.14258 20.791-6.51367 20.791-7.03125C20.791-7.56836 20.4199-7.94922 19.8828-7.94922L15.8594-7.94922L15.8594-11.9531C15.8594-12.5098 15.4883-12.8809 14.9512-12.8809C14.4336-12.8809 14.0625-12.5 14.0625-11.9531L14.0625-7.94922L10.0586-7.94922C9.50195-7.94922 9.13086-7.56836 9.13086-7.03125C9.13086-6.51367 9.51172-6.14258 10.0586-6.14258Z"/>
  </g>
  <text style="stroke:none;fill:black;font-family:-apple-system,&quot;SF Pro Display&quot;,&quot;SF Pro Text&quot;,Helvetica,sans-serif;font-weight:bold;" transform="matrix(1 0 0 1 263 1953)">Design Variations</text>
  <text style="stroke:none;fill:black;font-family:-apple-system,&quot;SF Pro Display&quot;,&quot;SF Pro Text&quot;,Helvetica,sans-serif;" transform="matrix(1 0 0 1 263 1971)">Symbols are supported in up to nine weights and three scales.</text>
  <text style="stroke:none;fill:black;font-family:-apple-system,&quot;SF Pro Display&quot;,&quot;SF Pro Text&quot;,Helvetica,sans-serif;" transform="matrix(1 0 0 1 263 1989)">For optimal layout with text and other symbols, vertically align</text>
  <text style="stroke:none;fill:black;font-family:-apple-system,&quot;SF Pro Display&quot;,&quot;SF Pro Text&quot;,Helvetica,sans-serif;" transform="matrix(1 0 0 1 263 2007)">symbols with the adjacent text.</text>
  <line id="" style="fill:none;stroke:#00AEEF;stroke-width:0.5;opacity:1.0;" x1="776" x2="776" y1="1919" y2="1933"/>
  <g id="" transform="matrix(1 0 0 1 776 1933)">
   <path d="M3.31055 0.126953C3.82812 0.126953 4.08203-0.0683594 4.26758-0.605469L5.52734-4.0625L11.2891-4.0625L12.5488-0.605469C12.7344-0.0683594 12.9883 0.126953 13.4961 0.126953C14.0137 0.126953 14.3457-0.185547 14.3457-0.673828C14.3457-0.839844 14.3164-0.986328 14.2383-1.20117L9.6582-13.3887C9.43359-13.9941 9.0332-14.2871 8.4082-14.2871C7.80273-14.2871 7.39258-13.9941 7.17773-13.3984L2.59766-1.19141C2.51953-0.976562 2.49023-0.830078 2.49023-0.664062C2.49023-0.175781 2.80273 0.126953 3.31055 0.126953ZM6.00586-5.53711L8.37891-12.1094L8.42773-12.1094L10.8008-5.53711Z"/>
  </g>
  <line id="" style="fill:none;stroke:#00AEEF;stroke-width:0.5;opacity:1.0;" x1="792.836" x2="792.836" y1="1919" y2="1933"/>
  <text style="stroke:none;fill:black;font-family:-apple-system,&quot;SF Pro Display&quot;,&quot;SF Pro Text&quot;,Helvetica,sans-serif;font-weight:bold;" transform="matrix(1 0 0 1 776 1953)">Margins</text>
  <text style="stroke:none;fill:black;font-family:-apple-system,&quot;SF Pro Display&quot;,&quot;SF Pro Text&quot;,Helvetica,sans-serif;" transform="matrix(1 0 0 1 776 1971)">Leading and trailing margins on the left and right side of each symbol</text>
  <text style="stroke:none;fill:black;font-family:-apple-system,&quot;SF Pro Display&quot;,&quot;SF Pro Text&quot;,Helvetica,sans-serif;" transform="matrix(1 0 0 1 776 1989)">can be adjusted by modifying the x-location of the margin guidelines.</text>
  <text style="stroke:none;fill:black;font-family:-apple-system,&quot;SF Pro Display&quot;,&quot;SF Pro Text&quot;,Helvetica,sans-serif;" transform="matrix(1 0 0 1 776 2007)">Modifications are automatically applied proportionally to all</text>
  <text style="stroke:none;fill:black;font-family:-apple-system,&quot;SF Pro Display&quot;,&quot;SF Pro Text&quot;,Helvetica,sans-serif;" transform="matrix(1 0 0 1 776 2025)">scales and weights.</text>
  <g id="" transform="matrix(1 0 0 1 1289 1933)">
   <path d="M2.8418 1.86523L4.54102 3.57422C5.40039 4.44336 6.38672 4.38477 7.31445 3.35938L17.4902-7.85156C17.7539-7.76367 18.0273-7.7832 18.3398-7.8418L19.4043-8.03711L20.0684-7.36328L20.0293-6.80664C19.9902-6.30859 20.1172-5.92773 20.6055-5.44922L21.3672-4.70703C21.8457-4.22852 22.4609-4.19922 22.9297-4.66797L25.8398-7.58789C26.3086-8.05664 26.2891-8.65234 25.8105-9.13086L25.0391-9.89258C24.5605-10.3711 24.1895-10.5273 23.7109-10.4883L23.1348-10.4395L22.4902-11.0742L22.7344-12.1973C22.8613-12.7637 22.7051-13.2031 22.1191-13.7891L19.9219-15.9766C16.582-19.2969 12.1484-19.2188 9.25781-16.3281C8.83789-15.918 8.80859-15.3418 9.04297-14.9512C9.27734-14.5898 9.73633-14.3555 10.3809-14.5215C11.8457-14.8633 13.3691-14.9219 14.7949-13.9844L14.209-12.5293C14.0137-12.0508 13.9844-11.6504 14.1113-11.2891L3.04688-0.898438C2.06055 0.0195312 1.98242 0.996094 2.8418 1.86523ZM10.752-15.957C13.1836-17.7344 16.4746-17.4316 18.7012-15.2051L21.1328-12.793C21.3672-12.5586 21.4062-12.373 21.3379-12.0312L21.0156-10.5469L22.5195-9.0625L23.5059-9.12109C23.7598-9.13086 23.8379-9.11133 24.0332-8.91602L24.6094-8.33984L22.168-5.89844L21.5918-6.47461C21.3965-6.66992 21.3672-6.74805 21.377-7.01172L21.4453-7.98828L19.9512-9.47266L18.4277-9.21875C18.1055-9.15039 17.959-9.17969 17.7148-9.41406L15.7129-11.416C15.459-11.6504 15.4297-11.8164 15.5859-12.1875L16.4648-14.2773C14.9023-15.7324 12.8711-16.3574 10.8398-15.7617C10.6836-15.7227 10.625-15.8496 10.752-15.957ZM5.27344 2.30469L4.10156 1.14258C3.63281 0.683594 3.74023 0.341797 4.14062-0.0195312L14.9512-10.1953L16.416-8.71094L6.42578 2.27539C6.07422 2.67578 5.74219 2.77344 5.27344 2.30469Z"/>
  </g>
  <text style="stroke:none;fill:black;font-family:-apple-system,&quot;SF Pro Display&quot;,&quot;SF Pro Text&quot;,Helvetica,sans-serif;font-weight:bold;" transform="matrix(1 0 0 1 1289 1953)">Exporting</text>
  <text style="stroke:none;fill:black;font-family:-apple-system,&quot;SF Pro Display&quot;,&quot;SF Pro Text&quot;,Helvetica,sans-serif;" transform="matrix(1 0 0 1 1289 1971)">Symbols should be outlined when exporting to ensure the</text>
  <text style="stroke:none;fill:black;font-family:-apple-system,&quot;SF Pro Display&quot;,&quot;SF Pro Text&quot;,Helvetica,sans-serif;" transform="matrix(1 0 0 1 1289 1989)">design is preserved when submitting to Xcode.</text>
  <text id="template-version" style="stroke:none;fill:black;font-family:-apple-system,&quot;SF Pro Display&quot;,&quot;SF Pro Text&quot;,Helvetica,sans-serif;text-anchor:end;" transform="matrix(1 0 0 1 3036 1933)">Template v.2.0</text>
  <text style="stroke:none;fill:black;font-family:-apple-system,&quot;SF Pro Display&quot;,&quot;SF Pro Text&quot;,Helvetica,sans-serif;text-anchor:end;" transform="matrix(1 0 0 1 3036 1951)">Requires Xcode 12 or greater</text>
  <text style="stroke:none;fill:black;font-family:-apple-system,&quot;SF Pro Display&quot;,&quot;SF Pro Text&quot;,Helvetica,sans-serif;text-anchor:end;" transform="matrix(1 0 0 1 3036 1969)">Generated from house.fill</text>
  <text style="stroke:none;fill:black;font-family:-apple-system,&quot;SF Pro Display&quot;,&quot;SF Pro Text&quot;,Helvetica,sans-serif;text-anchor:end;" transform="matrix(1 0 0 1 3036 1987)">Typeset at 100 points</text>
  <text style="stroke:none;fill:black;font-family:-apple-system,&quot;SF Pro Display&quot;,&quot;SF Pro Text&quot;,Helvetica,sans-serif;" transform="matrix(1 0 0 1 263 726)">Small</text>
  <text style="stroke:none;fill:black;font-family:-apple-system,&quot;SF Pro Display&quot;,&quot;SF Pro Text&quot;,Helvetica,sans-serif;" transform="matrix(1 0 0 1 263 1156)">Medium</text>
  <text style="stroke:none;fill:black;font-family:-apple-system,&quot;SF Pro Display&quot;,&quot;SF Pro Text&quot;,Helvetica,sans-serif;" transform="matrix(1 0 0 1 263 1586)">Large</text>
 </g>
 <g id="Guides">
  <g id="H-reference" style="fill:#27AAE1;stroke:none;" transform="matrix(1 0 0 1 339 696)">
   <path d="M0.976562 0L3.66211 0L12.9883-24.4629L45.752-24.4629L55.127 0L57.7637 0L30.6152-70.459L28.125-70.459ZM29.3457-67.1387L29.4434-67.1387L44.873-26.709L13.8672-26.709Z"/>
  </g>
  <line id="Baseline-S" style="fill:none;stroke:#27AAE1;opacity:1;stroke-width:0.5;" x1="263" x2="3036" y1="696" y2="696"/>
  <line id="Capline-S" style="fill:none;stroke:#27AAE1;opacity:1;stroke-width:0.5;" x1="263" x2="3036" y1="625.541" y2="625.541"/>
  <g id="H-reference" style="fill:#27AAE1;stroke:none;" transform="matrix(1 0 0 1 339 1126)">
   <path d="M0.976562 0L3.66211 0L12.9883-24.4629L45.752-24.4629L55.127 0L57.7637 0L30.6152-70.459L28.125-70.459ZM29.3457-67.1387L29.4434-67.1387L44.873-26.709L13.8672-26.709Z"/>
  </g>
  <line id="Baseline-M" style="fill:none;stroke:#27AAE1;opacity:1;stroke-width:0.5;" x1="263" x2="3036" y1="1126" y2="1126"/>
  <line id="Capline-M" style="fill:none;stroke:#27AAE1;opacity:1;stroke-width:0.5;" x1="263" x2="3036" y1="1055.54" y2="1055.54"/>
  <g id="H-reference" style="fill:#27AAE1;stroke:none;" transform="matrix(1 0 0 1 339 1556)">
   <path d="M0.976562 0L3.66211 0L12.9883-24.4629L45.752-24.4629L55.127 0L57.7637 0L30.6152-70.459L28.125-70.459ZM29.3457-67.1387L29.4434-67.1387L44.873-26.709L13.8672-26.709Z"/>
  </g>
  <line id="Baseline-L" style="fill:none;stroke:#27AAE1;opacity:1;stroke-width:0.5;" x1="263" x2="3036" y1="1556" y2="1556"/>
  <line id="Capline-L" style="fill:none;stroke:#27AAE1;opacity:1;stroke-width:0.5;" x1="263" x2="3036" y1="1485.54" y2="1485.54"/>
  <line id="left-margin" style="fill:none;stroke:#00AEEF;stroke-width:0.5;opacity:1.0;" x1="1379.12" x2="1379.12" y1="1030.79" y2="1150.12"/>
  <line id="right-margin" style="fill:none;stroke:#00AEEF;stroke-width:0.5;opacity:1.0;" x1="1520.57" x2="1520.57" y1="1030.79" y2="1150.12"/>
 </g>
 <g id="Symbols">
  <g id="Black-L" transform="matrix(1 0 0 1 2834.28 1556)">
   <path d="M16.0645-37.207C16.0645-31.5918 20.0684-27.5879 26.2207-27.5879C28.8574-27.5879 31.6895-28.8574 34.0332-30.8594L95.0195-81.9824C97.7051-84.2773 100.635-84.2285 103.369-81.9824L164.258-30.8594C166.602-28.8574 169.385-27.5879 172.07-27.5879C178.076-27.5879 182.178-31.3477 182.178-37.1582C182.178-40.1367 180.713-43.2129 178.125-45.3613L159.961-60.5957L159.961-89.4531C159.961-92.627 157.959-94.6289 154.834-94.6289L140.234-94.6289C137.109-94.6289 135.01-92.627 135.01-89.4531L135.01-81.5918L112.402-100.586C104.443-107.227 93.9453-107.227 86.0352-100.586L20.166-45.3125C17.5293-43.0664 16.0645-40.0391 16.0645-37.207ZM39.1602 20.6543C39.1602 30.8105 46.2402 37.4023 57.1777 37.4023L141.016 37.4023C151.953 37.4023 159.033 30.8105 159.033 20.6543L159.033-20.2637L103.369-66.9922C100.732-69.2383 97.5586-69.2383 94.9707-66.9922L39.1602-20.2637ZM116.602 20.0684L81.6895 20.0684L81.6895-16.3574C81.6895-19.4824 83.7402-21.5332 86.9141-21.5332L111.475-21.5332C114.6-21.5332 116.602-19.4824 116.602-16.3574Z"/>
  </g>
  <g id="Heavy-L" transform="matrix(1 0 0 1 2539.79 1556)">
   <path d="M16.0645-37.7441C16.0645-32.9102 19.5312-29.3945 24.9023-29.3945C27.2949-29.3945 29.7363-30.5664 31.7871-32.2754L93.2129-83.7891C95.6055-85.8398 98.291-85.8398 100.732-83.7891L162.061-32.2754C164.111-30.5664 166.504-29.3945 168.896-29.3945C174.121-29.3945 177.734-32.6172 177.734-37.6465C177.734-40.332 176.465-42.9199 174.219-44.8242L156.396-59.8145L156.396-87.8906C156.396-90.8691 154.443-92.7734 151.514-92.7734L138.867-92.7734C135.938-92.7734 133.936-90.8691 133.936-87.8906L133.936-78.6621L108.691-99.8535C101.611-105.811 92.334-105.811 85.2051-99.8535L19.5801-44.7754C17.334-42.8223 16.0645-40.2344 16.0645-37.7441ZM38.1348 19.873C38.1348 29.5898 44.7266 35.791 55.0293 35.791L138.721 35.791C149.072 35.791 155.664 29.5898 155.664 19.873L155.664-23.7793L101.025-69.6289C98.4375-71.8262 95.3613-71.7773 92.8223-69.6289L38.1348-23.7793ZM114.062 20.5078L79.7852 20.5078L79.7852-17.2852C79.7852-20.3613 81.7871-22.3145 84.8145-22.3145L109.082-22.3145C112.109-22.3145 114.062-20.3613 114.062-17.2852Z"/>
  </g>
  <g id="Bold-L" transform="matrix(1 0 0 1 2245.59 1556)">
   <path d="M16.0645-38.3301C16.0645-34.4238 18.9453-31.3965 23.4375-31.3965C25.5371-31.3965 27.5391-32.4707 29.248-33.8867L91.1621-85.8398C93.2617-87.6465 95.6055-87.6465 97.7539-85.8398L159.57-33.8867C161.279-32.4707 163.281-31.3965 165.381-31.3965C169.629-31.3965 172.705-34.082 172.705-38.2324C172.705-40.5762 171.729-42.627 169.824-44.1895L152.344-58.8867L152.344-86.084C152.344-88.8672 150.537-90.6738 147.754-90.6738L137.354-90.6738C134.57-90.6738 132.715-88.8672 132.715-86.084L132.715-75.4395L104.59-99.0234C98.4375-104.248 90.5273-104.248 84.3262-99.0234L18.9941-44.1895C17.0898-42.5781 16.0645-40.4297 16.0645-38.3301ZM36.9629 18.9941C36.9629 28.2227 42.9688 33.9355 52.6367 33.9355L136.182 33.9355C145.85 33.9355 151.855 28.2227 151.855 18.9941L151.855-27.6855L98.4375-72.5098C95.8984-74.707 92.9199-74.6582 90.3809-72.5098L36.9629-27.7344ZM111.182 20.9961L77.6367 20.9961L77.6367-18.3594C77.6367-21.2891 79.5898-23.1445 82.5195-23.1445L106.348-23.1445C109.326-23.1445 111.182-21.2891 111.182-18.3594Z"/>
  </g>
  <g id="Semibold-L" transform="matrix(1 0 0 1 1950.59 1556)">
   <path d="M16.0645-38.7695C16.0645-35.498 18.5059-32.8125 22.4609-32.8125C24.3164-32.8125 26.0254-33.7402 27.4902-35.0098L89.7949-87.2559C91.6504-88.8672 93.75-88.916 95.7031-87.2559L157.861-35.0098C159.375-33.7402 161.084-32.8125 162.939-32.8125C166.602-32.8125 169.287-35.0586 169.287-38.623C169.287-40.7227 168.457-42.4316 166.797-43.7988L149.561-58.3008L149.561-84.8633C149.561-87.5 147.852-89.209 145.166-89.209L136.279-89.209C133.643-89.209 131.836-87.5 131.836-84.8633L131.836-73.1934L101.758-98.4863C96.2402-103.125 89.3066-103.125 83.7402-98.4863L18.5547-43.7988C16.8945-42.3828 16.0645-40.5273 16.0645-38.7695ZM36.1328 18.4082C36.1328 27.2949 41.7969 32.7148 50.9766 32.7148L134.424 32.7148C143.604 32.7148 149.268 27.2949 149.268 18.4082L149.268-30.4199L96.6797-74.5605C94.1406-76.709 91.2109-76.6113 88.7207-74.5605L36.1328-30.4199ZM109.229 21.2891L76.1719 21.2891L76.1719-19.043C76.1719-21.9238 78.0762-23.7793 80.9082-23.7793L104.492-23.7793C107.373-23.7793 109.229-21.9238 109.229-19.043Z"/>
  </g>
  <g id="Medium-L" transform="matrix(1 0 0 1 1655.2 1556)">
   <path d="M16.0645-39.0625C16.0645-36.2793 18.2129-33.8379 21.6797-33.8379C23.3887-33.8379 24.8535-34.7168 26.1719-35.8398L88.7207-88.2812C90.4297-89.7949 92.3828-89.8438 94.1895-88.2812L156.592-35.8398C157.91-34.7168 159.375-33.8379 161.084-33.8379C164.258-33.8379 166.65-35.8398 166.65-38.9648C166.65-40.8203 165.967-42.2852 164.502-43.5059L147.461-57.8125L147.461-83.9355C147.461-86.4746 145.801-88.1348 143.213-88.1348L135.498-88.1348C132.959-88.1348 131.201-86.4746 131.201-83.9355L131.201-71.4844L99.6094-98.0469C94.5801-102.295 88.3301-102.295 83.252-98.0469L18.2617-43.457C16.748-42.2363 16.0645-40.625 16.0645-39.0625ZM35.5469 17.9688C35.5469 26.5625 40.8691 31.7871 49.7559 31.7871L133.057 31.7871C141.943 31.7871 147.314 26.5625 147.314 17.9688L147.314-32.4707L95.3125-76.0742C92.7734-78.1738 89.9414-78.125 87.5-76.0742L35.5469-32.5195ZM107.715 21.5332L75.0488 21.5332L75.0488-19.6289C75.0488-22.4121 76.9043-24.2188 79.7363-24.2188L103.125-24.2188C105.908-24.2188 107.715-22.4121 107.715-19.6289Z"/>
  </g>
  <g id="Regular-L" transform="matrix(1 0 0 1 1360.2 1556)">
   <path d="M16.0645-39.502C16.0645-37.3047 17.7734-35.2051 20.7031-35.2051C22.168-35.2051 23.3887-36.0352 24.4629-36.9629L87.3535-89.6973C88.8184-91.0156 90.5273-91.0645 92.1387-89.6973L154.883-36.9629C156.006-36.0352 157.178-35.2051 158.691-35.2051C161.23-35.2051 163.232-36.8164 163.232-39.3555C163.232-40.9668 162.695-42.041 161.523-43.0664L144.727-57.2266L144.727-82.7148C144.727-85.1562 143.115-86.7188 140.674-86.7188L134.473-86.7188C132.031-86.7188 130.371-85.1562 130.371-82.7148L130.371-69.2383L96.8262-97.4609C92.4316-101.221 87.1094-101.221 82.666-97.4609L17.8223-43.0664C16.6016-42.041 16.0645-40.7715 16.0645-39.502ZM34.7168 17.334C34.7168 25.6348 39.6973 30.5176 48.0957 30.5176L131.348 30.5176C139.746 30.5176 144.727 25.6348 144.727 17.334L144.727-35.1074L93.5547-78.0273C91.0645-80.1758 88.2324-80.0781 85.8398-78.0273L34.7168-35.2051ZM105.762 21.875L73.584 21.875L73.584-20.3125C73.584-23.0469 75.3906-24.8047 78.125-24.8047L101.27-24.8047C104.004-24.8047 105.762-23.0469 105.762-20.3125Z"/>
  </g>
  <g id="Light-L" transform="matrix(1 0 0 1 1065.68 1556)">
   <path d="M16.0645-40.4785C16.0645-38.8184 17.3828-37.2559 19.5801-37.2559C20.7031-37.2559 21.5332-37.8418 22.3633-38.5254L84.9609-91.0156C86.5723-92.4316 88.3301-92.627 90.1855-91.0156L152.588-38.5254C153.418-37.8418 154.248-37.2559 155.371-37.2559C157.324-37.2559 158.838-38.4766 158.838-40.3809C158.838-41.6504 158.447-42.4805 157.422-43.3105L141.748-56.4941L141.748-82.3242C141.748-84.375 140.381-85.6934 138.428-85.6934L132.91-85.6934C130.908-85.6934 129.492-84.375 129.492-82.3242L129.492-66.8457L93.9453-96.7285C89.9902-100.146 85.2539-100.146 81.2012-96.7285L17.5293-43.3105C16.5039-42.4805 16.0645-41.5039 16.0645-40.4785ZM33.3496 17.2363C33.3496 24.9023 37.9395 29.4434 45.7031 29.4434L129.443 29.4434C137.158 29.4434 141.748 24.9023 141.748 17.2363L141.748-38.7207L91.4551-80.957C88.8184-83.2031 86.1328-83.1055 83.5449-80.957L33.3496-38.8184ZM103.369 22.8027L71.582 22.8027L71.582-20.1172C71.582-22.6074 73.2422-24.2676 75.7324-24.2676L99.2188-24.2676C101.758-24.2676 103.369-22.6074 103.369-20.1172Z"/>
  </g>
  <g id="Thin-L" transform="matrix(1 0 0 1 771.876 1556)">
   <path d="M16.0645-41.748C16.0645-40.7715 16.8457-39.9414 18.0664-39.9414C18.75-39.9414 19.1406-40.1855 19.6289-40.5762L81.7871-92.7734C83.5938-94.3359 85.4492-94.6289 87.5977-92.7734L149.512-40.5762C150-40.1855 150.342-39.9414 151.025-39.9414C152.197-39.9414 153.027-40.7227 153.027-41.748C153.027-42.5293 152.734-43.0176 152.051-43.6523L137.891-55.5664L137.891-81.8848C137.891-83.3984 136.816-84.375 135.4-84.375L130.811-84.375C129.395-84.375 128.32-83.3984 128.32-81.8848L128.32-63.623L90.1855-95.752C86.7188-98.7793 82.8125-98.7793 79.248-95.752L17.0898-43.6523C16.3574-43.0176 16.0645-42.4805 16.0645-41.748ZM31.4941 17.041C31.4941 23.9258 35.5957 27.9785 42.4805 27.9785L126.904 27.9785C133.789 27.9785 137.891 23.9258 137.891 17.041L137.891-43.5059L88.6719-84.8145C85.8398-87.207 83.3008-87.1094 80.5664-84.8145L31.4941-43.6523ZM100.146 24.0723L68.9453 24.0723L68.9453-19.873C68.9453-22.0703 70.3613-23.4863 72.5586-23.4863L96.5332-23.4863C98.7305-23.4863 100.146-22.0703 100.146-19.873Z"/>
  </g>
  <g id="Ultralight-L" transform="matrix(1 0 0 1 476.654 1556)">
   <path d="M16.0645-42.4316C16.0645-41.7969 16.5527-41.3086 17.2852-41.3086C17.7734-41.3086 17.8711-41.4062 18.2129-41.6504L80.1758-93.7012C82.0801-95.3125 83.9355-95.7031 86.2793-93.7012L147.9-41.6504C148.242-41.4062 148.34-41.3086 148.828-41.3086C149.561-41.3086 150.049-41.8457 150.049-42.4316C150.049-42.9688 149.854-43.2617 149.268-43.7988L135.889-55.0781L135.889-81.6406C135.889-82.8613 135.01-83.6914 133.838-83.6914L129.736-83.6914C128.613-83.6914 127.734-82.8613 127.734-81.6406L127.734-61.9629L88.2324-95.2637C85.0586-98.0469 81.543-98.0469 78.2227-95.2637L16.8457-43.7988C16.2598-43.2617 16.0645-42.9688 16.0645-42.4316ZM30.5664 16.9434C30.5664 23.4375 34.375 27.2461 40.8691 27.2461L125.635 27.2461C132.08 27.2461 135.889 23.4375 135.889 16.9434L135.889-45.9473L87.2559-86.8164C84.3262-89.2578 81.8848-89.1602 79.0039-86.8164L30.5664-46.0938ZM98.4863 24.707L67.627 24.707L67.627-19.7754C67.627-21.7773 68.8965-23.0957 70.9473-23.0957L95.166-23.0957C97.168-23.0957 98.4863-21.7773 98.4863-19.7754Z"/>
  </g>
  <g id="Black-M" transform="matrix(1 0 0 1 2854.74 1126)">
   <path d="M12.4512-36.5723C12.4512-31.3965 16.0645-27.9785 21.4355-27.9785C23.7305-27.9785 26.2207-29.0039 28.3203-30.7617L74.8047-69.7266C77.3438-71.875 80.0293-71.875 82.666-69.7266L129.004-30.7617C131.104-29.0039 133.594-27.9785 135.889-27.9785C141.309-27.9785 144.873-31.3965 144.873-36.5723C144.873-39.1113 143.506-41.9922 141.162-43.9453L127.295-55.6152L127.295-79.248C127.295-81.6895 125.732-83.2031 123.291-83.2031L109.717-83.2031C107.275-83.2031 105.664-81.6895 105.664-79.248L105.664-73.7793L90.5273-86.4746C83.4473-92.3828 74.0234-92.3828 66.9434-86.4746L16.1621-43.8477C13.8184-41.8457 12.4512-39.1602 12.4512-36.5723ZM31.0059 9.08203C31.0059 17.1875 36.9629 22.6562 45.9473 22.6562L111.328 22.6562C120.312 22.6562 126.27 17.1875 126.27 9.08203L126.27-20.8008L82.1289-57.9102C79.9805-59.7168 77.4414-59.7168 75.293-57.9102L31.0059-20.8008ZM92.5293 7.56836L64.7949 7.56836L64.7949-19.2383C64.7949-21.6797 66.4062-23.2422 68.8477-23.2422L88.5254-23.2422C90.9668-23.2422 92.5293-21.6797 92.5293-19.2383Z"/>
  </g>
  <g id="Heavy-M" transform="matrix(1 0 0 1 2559.91 1126)">
   <path d="M12.4512-36.8652C12.4512-32.4707 15.5762-29.4434 20.3125-29.4434C22.3633-29.4434 24.5605-30.3711 26.3672-31.8848L73.4375-71.3379C75.6348-73.2422 78.0273-73.2422 80.2734-71.3379L127.197-31.8848C129.053-30.3711 131.201-29.4434 133.252-29.4434C137.939-29.4434 141.113-32.373 141.113-36.8652C141.113-39.1602 139.941-41.6016 137.939-43.2617L124.121-54.8828L124.121-77.5879C124.121-79.9316 122.559-81.4453 120.215-81.4453L108.594-81.4453C106.25-81.4453 104.688-79.9316 104.688-77.5879L104.688-71.2402L87.2559-85.8887C81.0059-91.1133 72.7051-91.1133 66.4551-85.8887L15.6738-43.2129C13.623-41.5039 12.4512-39.1113 12.4512-36.8652ZM30.2246 8.25195C30.2246 16.0645 35.7422 21.1426 44.1895 21.1426L109.326 21.1426C117.822 21.1426 123.34 16.0645 123.34 8.25195L123.34-23.7305L80.127-60.0098C78.0762-61.7676 75.5859-61.7188 73.5352-60.0098L30.2246-23.7305ZM90.3809 7.76367L63.2324 7.76367L63.2324-20.3125C63.2324-22.7051 64.8438-24.2676 67.2363-24.2676L86.4258-24.2676C88.8184-24.2676 90.3809-22.7051 90.3809-20.3125Z"/>
  </g>
  <g id="Bold-M" transform="matrix(1 0 0 1 2265.27 1126)">
   <path d="M12.4512-37.2559C12.4512-33.6914 15.0391-31.0059 19.043-31.0059C20.8984-31.0059 22.7051-31.8848 24.2188-33.2031L71.9238-73.1934C73.7305-74.7559 75.7324-74.7559 77.5879-73.1934L125.195-33.2031C126.709-31.8848 128.564-31.0059 130.371-31.0059C134.229-31.0059 136.963-33.4473 136.963-37.207C136.963-39.209 136.035-41.1133 134.326-42.5293L120.557-54.1504L120.557-75.7324C120.557-78.0273 119.092-79.4922 116.797-79.4922L107.422-79.4922C105.127-79.4922 103.613-78.0273 103.613-75.7324L103.613-68.3594L83.5938-85.2051C78.2715-89.6973 71.2891-89.6973 65.918-85.2051L15.0879-42.5293C13.3789-41.0645 12.4512-39.1113 12.4512-37.2559ZM29.3457 7.32422C29.3457 14.7949 34.375 19.4824 42.2852 19.4824L107.08 19.4824C115.039 19.4824 120.02 14.7949 120.02 7.32422L120.02-26.9531L77.8809-62.3535C75.9277-64.0137 73.5352-64.0137 71.5332-62.3535L29.3457-26.9531ZM87.9395 8.00781L61.4746 8.00781L61.4746-21.5332C61.4746-23.877 63.0371-25.3906 65.3809-25.3906L84.082-25.3906C86.4258-25.3906 87.9395-23.877 87.9395-21.5332Z"/>
  </g>
  <g id="Semibold-M" transform="matrix(1 0 0 1 1970 1126)">
   <path d="M12.4512-37.5C12.4512-34.5215 14.6484-32.1289 18.2129-32.1289C19.8242-32.1289 21.3867-32.959 22.7539-34.082L70.8984-74.4629C72.4121-75.7812 74.1699-75.7812 75.7324-74.4629L123.779-34.082C125.146-32.959 126.709-32.1289 128.369-32.1289C131.641-32.1289 134.082-34.1797 134.082-37.4023C134.082-39.2578 133.301-40.8203 131.836-42.041L118.115-53.6133L118.115-74.4629C118.115-76.6602 116.65-78.125 114.453-78.125L106.543-78.125C104.346-78.125 102.832-76.6602 102.832-74.4629L102.832-66.4062L81.0547-84.7168C76.3672-88.6719 70.3125-88.6719 65.5762-84.7168L14.6973-42.041C13.2324-40.7715 12.4512-39.1113 12.4512-37.5ZM28.7598 6.68945C28.7598 13.916 33.4473 18.3594 40.9668 18.3594L105.566 18.3594C113.086 18.3594 117.773 13.916 117.773 6.68945L117.773-29.1992L76.3672-63.9648C74.4141-65.5762 72.0703-65.5273 70.2148-63.9648L28.7598-29.1992ZM86.2793 8.20312L60.3027 8.20312L60.3027-22.3633C60.3027-24.6582 61.8164-26.123 64.1113-26.123L82.4707-26.123C84.7656-26.123 86.2793-24.6582 86.2793-22.3633Z"/>
  </g>
  <g id="Medium-M" transform="matrix(1 0 0 1 1674.39 1126)">
   <path d="M12.4512-37.6953C12.4512-35.1562 14.4043-32.959 17.5293-32.959C19.043-32.959 20.4102-33.7891 21.6309-34.7656L70.0684-75.4395C71.4355-76.6113 72.998-76.6113 74.3652-75.4395L122.754-34.7656C123.926-33.7891 125.293-32.959 126.807-32.959C129.688-32.959 131.885-34.7656 131.885-37.5977C131.885-39.2578 131.25-40.5762 129.98-41.6504L116.26-53.1738L116.26-73.4863C116.26-75.6836 114.844-77.0508 112.646-77.0508L105.908-77.0508C103.76-77.0508 102.295-75.6836 102.295-73.4863L102.295-64.9414L79.1504-84.375C74.9023-87.9395 69.5312-87.9395 65.2832-84.375L14.4043-41.6504C13.0859-40.5762 12.4512-39.1113 12.4512-37.6953ZM28.3203 6.20117C28.3203 13.2324 32.7148 17.4805 39.9902 17.4805L104.395 17.4805C111.621 17.4805 116.064 13.2324 116.064 6.20117L116.064-30.9082L75.1953-65.1367C73.291-66.7969 70.9961-66.748 69.1406-65.1367L28.3203-30.9082ZM85.0098 8.30078L59.375 8.30078L59.375-22.9492C59.375-25.2441 60.8887-26.709 63.1836-26.709L81.25-26.709C83.5449-26.709 85.0098-25.2441 85.0098-22.9492Z"/>
  </g>
  <g id="Regular-M" transform="matrix(1 0 0 1 1379.12 1126)">
   <path d="M12.4512-37.9883C12.4512-35.9863 14.0137-34.082 16.6504-34.082C18.0176-34.082 19.1406-34.8145 20.166-35.6445L69.043-76.6602C70.1172-77.6367 71.4355-77.6367 72.5098-76.6602L121.387-35.6445C122.363-34.8145 123.486-34.082 124.854-34.082C127.148-34.082 129.004-35.498 129.004-37.8418C129.004-39.3066 128.516-40.2832 127.49-41.1621L113.818-52.6855L113.818-72.2168C113.818-74.3652 112.451-75.7324 110.303-75.7324L105.078-75.7324C102.979-75.7324 101.562-74.3652 101.562-72.2168L101.562-62.9883L76.6602-83.8867C73.0469-86.9629 68.5547-86.9629 64.8926-83.8867L14.0137-41.1621C12.9395-40.2832 12.4512-39.1113 12.4512-37.9883ZM27.6855 5.61523C27.6855 12.3535 31.7871 16.3574 38.6719 16.3574L102.881 16.3574C109.766 16.3574 113.818 12.3535 113.818 5.61523L113.818-33.1055L73.6816-66.748C71.8262-68.3105 69.6289-68.2617 67.8223-66.748L27.6855-33.1055ZM83.3496 8.49609L58.1543 8.49609L58.1543-23.7793C58.1543-26.0254 59.668-27.4902 61.9141-27.4902L79.6387-27.4902C81.8848-27.4902 83.3496-26.0254 83.3496-23.7793Z"/>
  </g>
  <g id="Light-M" transform="matrix(1 0 0 1 1084.36 1126)">
   <path d="M12.4512-38.8672C12.4512-37.3047 13.6719-35.8887 15.6738-35.8887C16.6992-35.8887 17.5293-36.4258 18.2617-37.0605L66.8945-77.8809C68.1152-78.9062 69.4336-79.0039 70.752-77.8809L119.287-37.0605C120.068-36.4258 120.85-35.8887 121.875-35.8887C123.682-35.8887 125.098-37.0117 125.098-38.7695C125.098-39.8926 124.707-40.6738 123.828-41.4062L111.182-52.0508L111.182-71.875C111.182-73.6816 110.01-74.8047 108.301-74.8047L103.711-74.8047C101.953-74.8047 100.732-73.6816 100.732-71.875L100.732-60.791L74.1211-83.252C70.8496-86.0352 66.8945-86.0352 63.5742-83.252L13.7207-41.4062C12.8418-40.6738 12.4512-39.7461 12.4512-38.8672ZM26.4648 5.46875C26.4648 11.7188 30.1758 15.3809 36.4746 15.3809L101.172 15.3809C107.471 15.3809 111.182 11.7188 111.182 5.46875L111.182-36.3281L71.8262-69.3848C69.8242-71.0449 67.6758-70.9961 65.7715-69.3848L26.4648-36.377ZM81.2012 9.32617L56.3965 9.32617L56.3965-23.6328C56.3965-25.6348 57.7148-26.9531 59.7656-26.9531L77.832-26.9531C79.8828-26.9531 81.2012-25.6348 81.2012-23.6328Z"/>
  </g>
  <g id="Thin-M" transform="matrix(1 0 0 1 790.26 1126)">
   <path d="M12.4512-39.9902C12.4512-39.1113 13.1836-38.2812 14.3066-38.2812C14.9414-38.2812 15.332-38.5742 15.8203-38.916L64.0625-79.4434C65.4297-80.6152 66.8457-80.8594 68.457-79.4434L116.504-38.916C116.992-38.5742 117.383-38.2812 118.018-38.2812C119.092-38.2812 119.873-39.0137 119.873-39.9902C119.873-40.6738 119.629-41.1621 118.994-41.6504L107.715-51.1719L107.715-71.4844C107.715-72.7539 106.836-73.584 105.566-73.584L101.807-73.584C100.586-73.584 99.707-72.7539 99.707-71.4844L99.707-57.9102L70.7031-82.373C67.9199-84.7656 64.6973-84.7656 61.8164-82.373L13.3301-41.6504C12.6953-41.1621 12.4512-40.625 12.4512-39.9902ZM24.8047 5.32227C24.8047 10.8398 28.0762 14.0625 33.6426 14.0625L98.877 14.0625C104.443 14.0625 107.715 10.8398 107.715 5.32227L107.715-40.625L69.3359-72.8516C67.1875-74.6582 65.1855-74.5605 63.0859-72.8516L24.8047-40.7227ZM78.3203 10.4492L54.0039 10.4492L54.0039-23.3887C54.0039-25.1465 55.1758-26.3184 56.9336-26.3184L75.3906-26.3184C77.1484-26.3184 78.3203-25.1465 78.3203-23.3887Z"/>
  </g>
  <g id="Ultralight-M" transform="matrix(1 0 0 1 494.892 1126)">
   <path d="M12.4512-40.625C12.4512-39.9902 12.9395-39.5508 13.623-39.5508C14.0625-39.5508 14.209-39.6484 14.5508-39.8926L62.6465-80.2734C64.0625-81.4941 65.5273-81.7871 67.2852-80.2734L115.088-39.8926C115.43-39.6484 115.576-39.5508 116.016-39.5508C116.699-39.5508 117.188-40.0391 117.188-40.625C117.188-41.1133 116.992-41.4062 116.504-41.7969L105.908-50.7324L105.908-71.2891C105.908-72.3145 105.176-72.998 104.199-72.998L100.879-72.998C99.9023-72.998 99.1699-72.3145 99.1699-71.2891L99.1699-56.4453L68.9453-81.8848C66.4062-84.1309 63.5742-84.1309 60.9375-81.8848L13.1348-41.7969C12.6465-41.4062 12.4512-41.1133 12.4512-40.625ZM23.9746 5.22461C23.9746 10.4004 27.002 13.4277 32.1289 13.4277L97.7539 13.4277C102.881 13.4277 105.908 10.4004 105.908 5.22461L105.908-42.7734L68.0664-74.6094C65.8203-76.4648 63.8672-76.416 61.7188-74.6094L23.9746-42.9199ZM76.8555 11.0352L52.7832 11.0352L52.7832-23.291C52.7832-24.9023 53.8574-25.9277 55.4688-25.9277L74.1699-25.9277C75.7812-25.9277 76.8555-24.9023 76.8555-23.291Z"/>
  </g>
  <g id="Black-S" transform="matrix(1 0 0 1 2871.88 696)">
   <path d="M9.76562-36.2793C9.76562-32.2754 12.5488-29.6387 16.748-29.6387C18.5059-29.6387 20.459-30.4199 22.0703-31.7871L58.5449-62.3535C60.498-64.0137 62.5977-64.0137 64.5996-62.3535L100.977-31.7871C102.588-30.4199 104.541-29.6387 106.299-29.6387C110.498-29.6387 113.281-32.2754 113.281-36.2793C113.281-38.2812 112.207-40.4785 110.4-41.9922L99.5117-51.123L99.5117-69.5801C99.5117-71.4844 98.291-72.7051 96.3867-72.7051L85.8887-72.7051C83.9844-72.7051 82.7148-71.4844 82.7148-69.5801L82.7148-65.2344L70.7031-75.3418C65.2344-79.9316 57.9102-79.9316 52.4414-75.3418L12.6465-41.9434C10.8398-40.3809 9.76562-38.2812 9.76562-36.2793ZM24.2676-0.585938C24.2676 5.76172 28.9062 10.0098 35.8887 10.0098L87.1094 10.0098C94.0918 10.0098 98.7305 5.76172 98.7305-0.585938L98.7305-24.1211L64.209-53.125C62.5488-54.541 60.5469-54.541 58.8867-53.125L24.2676-24.1211ZM72.3633-1.70898L50.6836-1.70898L50.6836-22.8027C50.6836-24.707 51.9531-25.9277 53.8574-25.9277L69.2383-25.9277C71.1426-25.9277 72.3633-24.707 72.3633-22.8027Z"/>
  </g>
  <g id="Heavy-S" transform="matrix(1 0 0 1 2576.39 696)">
   <path d="M9.76562-36.4258C9.76562-32.959 12.207-30.5176 16.0156-30.5176C17.627-30.5176 19.3848-31.2988 20.8008-32.5195L57.7637-63.4766C59.4238-64.8926 61.2793-64.8926 62.9883-63.4766L99.8047-32.5195C101.27-31.2988 103.027-30.5176 104.639-30.5176C108.35-30.5176 110.84-32.8613 110.84-36.4258C110.84-38.2324 109.912-40.1367 108.35-41.4551L97.3633-50.6836L97.3633-68.3594C97.3633-70.2148 96.1426-71.4355 94.2871-71.4355L85.2051-71.4355C83.3008-71.4355 82.0801-70.2148 82.0801-68.3594L82.0801-63.5254L68.5059-74.9512C63.5742-79.0527 57.1289-79.0527 52.1973-74.9512L12.3047-41.4551C10.6934-40.0391 9.76562-38.1836 9.76562-36.4258ZM23.8281-1.2207C23.8281 4.98047 28.125 8.98438 34.8145 8.98438L85.791 8.98438C92.4316 8.98438 96.7773 4.98047 96.7773-1.2207L96.7773-25.9766L62.8906-54.4434C61.2793-55.8105 59.3262-55.7617 57.7637-54.4434L23.8281-25.9766ZM70.9473-1.61133L49.707-1.61133L49.707-23.6328C49.707-25.5371 50.9277-26.7578 52.832-26.7578L67.8223-26.7578C69.7266-26.7578 70.9473-25.5371 70.9473-23.6328Z"/>
  </g>
  <g id="Bold-S" transform="matrix(1 0 0 1 2281.02 696)">
   <path d="M9.76562-36.6211C9.76562-33.7402 11.8652-31.543 15.1367-31.543C16.6504-31.543 18.1152-32.2754 19.3848-33.3496L56.8359-64.7461C58.2031-65.918 59.7656-65.918 61.1328-64.7461L98.5352-33.3496C99.8047-32.2754 101.27-31.543 102.783-31.543C105.908-31.543 108.154-33.4961 108.154-36.5234C108.154-38.1836 107.373-39.7461 106.055-40.8691L94.9707-50.1465L94.9707-66.9922C94.9707-68.8477 93.7988-70.0684 91.8945-70.0684L84.4727-70.0684C82.5684-70.0684 81.3477-68.8477 81.3477-66.9922L81.3477-61.6211L66.0156-74.5117C61.7676-78.0762 56.2012-78.0762 51.9531-74.5117L11.9141-40.8691C10.498-39.6973 9.76562-38.1348 9.76562-36.6211ZM23.291-1.9043C23.291 4.05273 27.2949 7.8125 33.6426 7.8125L84.2773 7.8125C90.5762 7.8125 94.5801 4.05273 94.5801-1.9043L94.5801-28.0762L61.4258-55.9082C59.9121-57.1777 58.0078-57.1777 56.4941-55.9082L23.291-28.0762ZM69.3848-1.5625L48.584-1.5625L48.584-24.5605C48.584-26.4648 49.8047-27.6855 51.709-27.6855L66.2598-27.6855C68.1641-27.6855 69.3848-26.4648 69.3848-24.5605Z"/>
  </g>
  <g id="Semibold-S" transform="matrix(1 0 0 1 1985.26 696)">
   <path d="M9.76562-36.7188C9.76562-34.2285 11.6211-32.2266 14.5996-32.2266C15.9668-32.2266 17.2852-32.959 18.4082-33.8867L56.2012-65.625C57.373-66.6016 58.7402-66.6016 59.8633-65.625L97.6562-33.8867C98.7793-32.959 100.098-32.2266 101.514-32.2266C104.248-32.2266 106.25-33.9355 106.25-36.6211C106.25-38.1836 105.664-39.502 104.443-40.4785L93.3594-49.8047L93.3594-66.0156C93.3594-67.8711 92.1387-69.0918 90.2832-69.0918L83.9355-69.0918C82.0801-69.0918 80.8105-67.8711 80.8105-66.0156L80.8105-60.3027L64.3066-74.2188C60.498-77.3926 55.6152-77.3926 51.8066-74.2188L11.6211-40.4785C10.4004-39.4531 9.76562-38.0371 9.76562-36.7188ZM22.9492-2.34375C22.9492 3.4668 26.709 7.03125 32.8125 7.03125L83.252 7.03125C89.3066 7.03125 93.0664 3.4668 93.0664-2.34375L93.0664-29.4922L60.4004-56.8848C58.9355-58.1543 57.0801-58.1055 55.6641-56.8848L22.9492-29.4922ZM68.2617-1.46484L47.8027-1.46484L47.8027-25.1953C47.8027-27.0996 49.0723-28.3203 50.9277-28.3203L65.1855-28.3203C67.041-28.3203 68.2617-27.0996 68.2617-25.1953Z"/>
  </g>
  <g id="Medium-S" transform="matrix(1 0 0 1 1689.26 696)">
   <path d="M9.76562-36.8164C9.76562-34.668 11.4258-32.7637 14.1602-32.7637C15.4785-32.7637 16.6504-33.4473 17.6758-34.3262L55.7617-66.2598C56.7383-67.1387 57.959-67.0898 58.9355-66.2598L96.9727-34.3262C97.998-33.4473 99.2188-32.7637 100.537-32.7637C102.979-32.7637 104.834-34.2773 104.834-36.7188C104.834-38.1348 104.297-39.3066 103.271-40.1855L92.0898-49.5605L92.0898-65.2832C92.0898-67.1387 90.918-68.3594 89.0625-68.3594L83.5449-68.3594C81.6895-68.3594 80.4688-67.1387 80.4688-65.2832L80.4688-59.3262L62.9883-73.9746C59.5703-76.9043 55.127-76.9043 51.6602-73.9746L11.4258-40.1855C10.3027-39.2578 9.76562-37.9883 9.76562-36.8164ZM22.6562-2.73438C22.6562 2.97852 26.2695 6.44531 32.1777 6.44531L82.4707 6.44531C88.3789 6.44531 91.9434 2.97852 91.9434-2.73438L91.9434-30.5664L59.668-57.666C58.2031-58.8867 56.3965-58.8379 54.9805-57.666L22.6562-30.5664ZM67.4316-1.46484L47.2168-1.46484L47.2168-25.6836C47.2168-27.5879 48.4863-28.8086 50.3418-28.8086L64.3555-28.8086C66.2598-28.8086 67.4316-27.5879 67.4316-25.6836Z"/>
  </g>
  <g id="Regular-S" transform="matrix(1 0 0 1 1393.47 696)">
   <path d="M9.76562-36.9629C9.76562-35.1562 11.1816-33.4473 13.5742-33.4473C14.7949-33.4473 15.8203-34.1309 16.6992-34.8633L55.127-67.1387C55.957-67.8223 56.9336-67.7734 57.666-67.1387L96.0938-34.8633C97.0215-34.1309 98.0469-33.4473 99.2676-33.4473C101.318-33.4473 102.979-34.7168 102.979-36.8164C102.979-38.1348 102.588-39.0137 101.66-39.7949L90.4785-49.2188L90.4785-64.3555C90.4785-66.2109 89.2578-67.3828 87.4512-67.3828L83.0566-67.3828C81.2012-67.3828 79.9316-66.2109 79.9316-64.3555L79.9316-58.0078L61.3281-73.6816C58.3008-76.2207 54.541-76.2207 51.5137-73.6816L11.1328-39.7949C10.2051-39.0137 9.76562-37.9395 9.76562-36.9629ZM22.3145-3.17383C22.3145 2.39258 25.6836 5.66406 31.3477 5.66406L81.4453 5.66406C87.1094 5.66406 90.4785 2.39258 90.4785-3.17383L90.4785-31.9824L58.6426-58.6426C57.2754-59.8633 55.4688-59.8145 54.1504-58.6426L22.3145-31.9824ZM66.3574-1.36719L46.4355-1.36719L46.4355-26.3184C46.4355-28.2227 47.7051-29.3945 49.5605-29.3945L63.2812-29.3945C65.1855-29.3945 66.3574-28.2227 66.3574-26.3184Z"/>
  </g>
  <g id="Light-S" transform="matrix(1 0 0 1 1098.49 696)">
   <path d="M9.76562-37.7441C9.76562-36.377 10.8398-35.0586 12.6465-35.0586C13.623-35.0586 14.3555-35.5469 15.0391-36.1328L53.2227-68.1641C54.1504-68.9941 55.1758-68.9941 56.1523-68.1641L94.2871-36.1328C94.9707-35.5469 95.7031-35.0586 96.6309-35.0586C98.2422-35.0586 99.5117-36.0352 99.5117-37.6465C99.5117-38.6719 99.1699-39.3555 98.4375-39.9902L88.1348-48.6328L88.1348-64.0625C88.1348-65.625 87.1094-66.6016 85.6445-66.6016L81.7871-66.6016C80.2734-66.6016 79.248-65.625 79.248-64.0625L79.248-56.1035L59.0332-73.0957C56.3477-75.3906 53.0762-75.3906 50.3418-73.0957L10.8887-39.9902C10.1074-39.3555 9.76562-38.5254 9.76562-37.7441ZM21.2402-3.27148C21.2402 1.80664 24.2676 4.78516 29.4434 4.78516L79.9316 4.78516C85.0586 4.78516 88.1348 1.80664 88.1348-3.27148L88.1348-34.8633L56.9824-60.9863C55.4688-62.2559 53.7598-62.207 52.3438-60.9863L21.2402-34.9121ZM64.4531-0.634766L44.873-0.634766L44.873-26.1719C44.873-27.8809 45.9961-28.9551 47.6562-28.9551L61.6699-28.9551C63.3789-28.9551 64.4531-27.8809 64.4531-26.1719Z"/>
  </g>
  <g id="Thin-S" transform="matrix(1 0 0 1 804.078 696)">
   <path d="M9.76562-38.7695C9.76562-37.9395 10.4492-37.1582 11.4746-37.1582C12.0605-37.1582 12.4512-37.4512 12.8418-37.793L50.7324-69.5801C51.8066-70.459 52.8809-70.6055 54.1016-69.5801L91.8457-37.793C92.2363-37.4512 92.627-37.1582 93.2129-37.1582C94.1895-37.1582 94.9219-37.793 94.9219-38.7207C94.9219-39.3555 94.6777-39.7461 94.1406-40.2344L85.0586-47.9004L85.0586-63.7207C85.0586-64.7949 84.3262-65.5273 83.252-65.5273L80.127-65.5273C79.1016-65.5273 78.3203-64.7949 78.3203-63.7207L78.3203-53.5645L56.0547-72.3145C53.7598-74.2676 51.123-74.2676 48.7793-72.3145L10.5469-40.2344C10.0098-39.7461 9.76562-39.3066 9.76562-38.7695ZM19.7754-3.41797C19.7754 1.02539 22.4121 3.66211 26.9043 3.66211L77.9297 3.66211C82.4219 3.66211 85.0586 1.02539 85.0586-3.41797L85.0586-38.623L54.7852-64.0137C53.125-65.4297 51.5625-65.3809 49.9512-64.0137L19.7754-38.7207ZM61.9141 0.341797L42.7734 0.341797L42.7734-26.0254C42.7734-27.4414 43.7012-28.3691 45.166-28.3691L59.5703-28.3691C60.9863-28.3691 61.9141-27.4414 61.9141-26.0254Z"/>
  </g>
  <g id="Ultralight-S" transform="matrix(1 0 0 1 508.564 696)">
   <path d="M9.76562-39.3066C9.76562-38.7207 10.2051-38.2812 10.8887-38.2812C11.2793-38.2812 11.4746-38.3789 11.7188-38.623L49.4629-70.3125C50.5859-71.2402 51.709-71.4355 53.0273-70.3125L90.5762-38.623C90.8691-38.3789 91.0156-38.2812 91.4062-38.2812C92.0898-38.2812 92.5293-38.7207 92.5293-39.2578C92.5293-39.6973 92.3828-39.9902 91.9434-40.332L83.4473-47.5098L83.4473-63.5254C83.4473-64.4043 82.8613-64.9902 82.0312-64.9902L79.2969-64.9902C78.4668-64.9902 77.832-64.4043 77.832-63.5254L77.832-52.2461L54.4922-71.9238C52.4414-73.7305 50.1465-73.7305 47.998-71.9238L10.3516-40.332C9.91211-39.9902 9.76562-39.6973 9.76562-39.3066ZM19.043-3.51562C19.043 0.634766 21.4355 3.07617 25.5859 3.07617L76.9043 3.07617C81.0059 3.07617 83.4473 0.634766 83.4473-3.51562L83.4473-40.5762L53.6621-65.625C51.9531-67.041 50.3906-66.9922 48.7305-65.625L19.043-40.6738ZM60.5957 0.878906L41.6992 0.878906L41.6992-25.8789C41.6992-27.1973 42.5293-28.0273 43.8477-28.0273L58.4473-28.0273C59.7656-28.0273 60.5957-27.1973 60.5957-25.8789Z"/>
  </g>
 </g>
</svg>
