<?xml version="1.0" encoding="UTF-8"?>
<!--Generator: Apple Native CoreSVG 149-->
<!DOCTYPE svg
PUBLIC "-//W3C//DTD SVG 1.1//EN"
       "http://www.w3.org/Graphics/SVG/1.1/DTD/svg11.dtd">
<svg version="1.1" xmlns="http://www.w3.org/2000/svg" xmlns:xlink="http://www.w3.org/1999/xlink" width="3300" height="2200">
 <!--glyph: "uni10044E.medium", point size: 100.000000, font version: "Version 16.0d18e1", template writer version: "8"-->
 <g id="Notes">
  <rect height="2200" id="artboard" style="fill:white;opacity:1" width="3300" x="0" y="0"/>
  <line id="" style="fill:none;stroke:black;opacity:1;stroke-width:0.5;" x1="263" x2="3036" y1="292" y2="292"/>
  <text style="stroke:none;fill:black;font-family:-apple-system,&quot;SF Pro Display&quot;,&quot;SF Pro Text&quot;,Helvetica,sans-serif;font-weight:bold;" transform="matrix(1 0 0 1 263 322)">Weight/Scale Variations</text>
  <text style="stroke:none;fill:black;font-family:-apple-system,&quot;SF Pro Display&quot;,&quot;SF Pro Text&quot;,Helvetica,sans-serif;text-anchor:middle;" transform="matrix(1 0 0 1 559.711 322)">Ultralight</text>
  <text style="stroke:none;fill:black;font-family:-apple-system,&quot;SF Pro Display&quot;,&quot;SF Pro Text&quot;,Helvetica,sans-serif;text-anchor:middle;" transform="matrix(1 0 0 1 856.422 322)">Thin</text>
  <text style="stroke:none;fill:black;font-family:-apple-system,&quot;SF Pro Display&quot;,&quot;SF Pro Text&quot;,Helvetica,sans-serif;text-anchor:middle;" transform="matrix(1 0 0 1 1153.13 322)">Light</text>
  <text style="stroke:none;fill:black;font-family:-apple-system,&quot;SF Pro Display&quot;,&quot;SF Pro Text&quot;,Helvetica,sans-serif;text-anchor:middle;" transform="matrix(1 0 0 1 1449.84 322)">Regular</text>
  <text style="stroke:none;fill:black;font-family:-apple-system,&quot;SF Pro Display&quot;,&quot;SF Pro Text&quot;,Helvetica,sans-serif;text-anchor:middle;" transform="matrix(1 0 0 1 1746.56 322)">Medium</text>
  <text style="stroke:none;fill:black;font-family:-apple-system,&quot;SF Pro Display&quot;,&quot;SF Pro Text&quot;,Helvetica,sans-serif;text-anchor:middle;" transform="matrix(1 0 0 1 2043.27 322)">Semibold</text>
  <text style="stroke:none;fill:black;font-family:-apple-system,&quot;SF Pro Display&quot;,&quot;SF Pro Text&quot;,Helvetica,sans-serif;text-anchor:middle;" transform="matrix(1 0 0 1 2339.98 322)">Bold</text>
  <text style="stroke:none;fill:black;font-family:-apple-system,&quot;SF Pro Display&quot;,&quot;SF Pro Text&quot;,Helvetica,sans-serif;text-anchor:middle;" transform="matrix(1 0 0 1 2636.69 322)">Heavy</text>
  <text style="stroke:none;fill:black;font-family:-apple-system,&quot;SF Pro Display&quot;,&quot;SF Pro Text&quot;,Helvetica,sans-serif;text-anchor:middle;" transform="matrix(1 0 0 1 2933.4 322)">Black</text>
  <line id="" style="fill:none;stroke:black;opacity:1;stroke-width:0.5;" x1="263" x2="3036" y1="1903" y2="1903"/>
  <g id="" transform="matrix(1 0 0 1 263 1933)">
   <path d="M9.24805 0.830078C13.5547 0.830078 17.1387-2.74414 17.1387-7.05078C17.1387-11.3574 13.5449-14.9316 9.23828-14.9316C4.94141-14.9316 1.36719-11.3574 1.36719-7.05078C1.36719-2.74414 4.95117 0.830078 9.24805 0.830078ZM9.24805-0.654297C5.70312-0.654297 2.87109-3.49609 2.87109-7.05078C2.87109-10.6055 5.69336-13.4473 9.23828-13.4473C12.793-13.4473 15.6348-10.6055 15.6445-7.05078C15.6543-3.49609 12.8027-0.654297 9.24805-0.654297ZM6.39648-6.31836L8.50586-6.31836L8.50586-4.19922C8.50586-3.75977 8.79883-3.45703 9.22852-3.45703C9.67773-3.45703 9.9707-3.75977 9.9707-4.19922L9.9707-6.31836L12.0996-6.31836C12.5391-6.31836 12.8418-6.61133 12.8418-7.04102C12.8418-7.48047 12.5391-7.7832 12.0996-7.7832L9.9707-7.7832L9.9707-9.89258C9.9707-10.3418 9.67773-10.6445 9.22852-10.6445C8.79883-10.6445 8.50586-10.3418 8.50586-9.89258L8.50586-7.7832L6.39648-7.7832C5.94727-7.7832 5.64453-7.48047 5.64453-7.04102C5.64453-6.61133 5.94727-6.31836 6.39648-6.31836Z"/>
  </g>
  <g id="" transform="matrix(1 0 0 1 281.506 1933)">
   <path d="M11.709 2.91016C17.1582 2.91016 21.6699-1.61133 21.6699-7.05078C21.6699-12.5 17.1484-17.0117 11.6992-17.0117C6.25977-17.0117 1.74805-12.5 1.74805-7.05078C1.74805-1.61133 6.26953 2.91016 11.709 2.91016ZM11.709 1.25C7.09961 1.25 3.41797-2.44141 3.41797-7.05078C3.41797-11.6602 7.08984-15.3516 11.6992-15.3516C16.3086-15.3516 20-11.6602 20.0098-7.05078C20.0195-2.44141 16.3184 1.25 11.709 1.25ZM7.98828-6.23047L10.8789-6.23047L10.8789-3.32031C10.8789-2.83203 11.2109-2.5 11.6895-2.5C12.1777-2.5 12.5195-2.83203 12.5195-3.32031L12.5195-6.23047L15.4297-6.23047C15.918-6.23047 16.25-6.5625 16.25-7.04102C16.25-7.5293 15.918-7.87109 15.4297-7.87109L12.5195-7.87109L12.5195-10.7617C12.5195-11.2695 12.1777-11.6016 11.6895-11.6016C11.2109-11.6016 10.8789-11.2598 10.8789-10.7617L10.8789-7.87109L7.98828-7.87109C7.48047-7.87109 7.14844-7.5293 7.14844-7.04102C7.14844-6.5625 7.49023-6.23047 7.98828-6.23047Z"/>
  </g>
  <g id="" transform="matrix(1 0 0 1 304.924 1933)">
   <path d="M14.9707 5.66406C21.9336 5.66406 27.6953-0.0976562 27.6953-7.05078C27.6953-14.0137 21.9238-19.7754 14.9609-19.7754C8.00781-19.7754 2.25586-14.0137 2.25586-7.05078C2.25586-0.0976562 8.01758 5.66406 14.9707 5.66406ZM14.9707 3.84766C8.93555 3.84766 4.08203-1.01562 4.08203-7.05078C4.08203-13.0957 8.92578-17.9492 14.9609-17.9492C21.0059-17.9492 25.8594-13.0957 25.8691-7.05078C25.8789-1.01562 21.0156 3.84766 14.9707 3.84766ZM10.0586-6.14258L14.0625-6.14258L14.0625-2.12891C14.0625-1.5918 14.4336-1.2207 14.9512-1.2207C15.4883-1.2207 15.8594-1.5918 15.8594-2.12891L15.8594-6.14258L19.8828-6.14258C20.4102-6.14258 20.791-6.51367 20.791-7.03125C20.791-7.56836 20.4199-7.94922 19.8828-7.94922L15.8594-7.94922L15.8594-11.9531C15.8594-12.5098 15.4883-12.8809 14.9512-12.8809C14.4336-12.8809 14.0625-12.5 14.0625-11.9531L14.0625-7.94922L10.0586-7.94922C9.50195-7.94922 9.13086-7.56836 9.13086-7.03125C9.13086-6.51367 9.51172-6.14258 10.0586-6.14258Z"/>
  </g>
  <text style="stroke:none;fill:black;font-family:-apple-system,&quot;SF Pro Display&quot;,&quot;SF Pro Text&quot;,Helvetica,sans-serif;font-weight:bold;" transform="matrix(1 0 0 1 263 1953)">Design Variations</text>
  <text style="stroke:none;fill:black;font-family:-apple-system,&quot;SF Pro Display&quot;,&quot;SF Pro Text&quot;,Helvetica,sans-serif;" transform="matrix(1 0 0 1 263 1971)">Symbols are supported in up to nine weights and three scales.</text>
  <text style="stroke:none;fill:black;font-family:-apple-system,&quot;SF Pro Display&quot;,&quot;SF Pro Text&quot;,Helvetica,sans-serif;" transform="matrix(1 0 0 1 263 1989)">For optimal layout with text and other symbols, vertically align</text>
  <text style="stroke:none;fill:black;font-family:-apple-system,&quot;SF Pro Display&quot;,&quot;SF Pro Text&quot;,Helvetica,sans-serif;" transform="matrix(1 0 0 1 263 2007)">symbols with the adjacent text.</text>
  <line id="" style="fill:none;stroke:#00AEEF;stroke-width:0.5;opacity:1.0;" x1="776" x2="776" y1="1919" y2="1933"/>
  <g id="" transform="matrix(1 0 0 1 776 1933)">
   <path d="M3.31055 0.126953C3.82812 0.126953 4.08203-0.0683594 4.26758-0.605469L5.52734-4.0625L11.2891-4.0625L12.5488-0.605469C12.7344-0.0683594 12.9883 0.126953 13.4961 0.126953C14.0137 0.126953 14.3457-0.185547 14.3457-0.673828C14.3457-0.839844 14.3164-0.986328 14.2383-1.20117L9.6582-13.3887C9.43359-13.9941 9.0332-14.2871 8.4082-14.2871C7.80273-14.2871 7.39258-13.9941 7.17773-13.3984L2.59766-1.19141C2.51953-0.976562 2.49023-0.830078 2.49023-0.664062C2.49023-0.175781 2.80273 0.126953 3.31055 0.126953ZM6.00586-5.53711L8.37891-12.1094L8.42773-12.1094L10.8008-5.53711Z"/>
  </g>
  <line id="" style="fill:none;stroke:#00AEEF;stroke-width:0.5;opacity:1.0;" x1="792.836" x2="792.836" y1="1919" y2="1933"/>
  <text style="stroke:none;fill:black;font-family:-apple-system,&quot;SF Pro Display&quot;,&quot;SF Pro Text&quot;,Helvetica,sans-serif;font-weight:bold;" transform="matrix(1 0 0 1 776 1953)">Margins</text>
  <text style="stroke:none;fill:black;font-family:-apple-system,&quot;SF Pro Display&quot;,&quot;SF Pro Text&quot;,Helvetica,sans-serif;" transform="matrix(1 0 0 1 776 1971)">Leading and trailing margins on the left and right side of each symbol</text>
  <text style="stroke:none;fill:black;font-family:-apple-system,&quot;SF Pro Display&quot;,&quot;SF Pro Text&quot;,Helvetica,sans-serif;" transform="matrix(1 0 0 1 776 1989)">can be adjusted by modifying the x-location of the margin guidelines.</text>
  <text style="stroke:none;fill:black;font-family:-apple-system,&quot;SF Pro Display&quot;,&quot;SF Pro Text&quot;,Helvetica,sans-serif;" transform="matrix(1 0 0 1 776 2007)">Modifications are automatically applied proportionally to all</text>
  <text style="stroke:none;fill:black;font-family:-apple-system,&quot;SF Pro Display&quot;,&quot;SF Pro Text&quot;,Helvetica,sans-serif;" transform="matrix(1 0 0 1 776 2025)">scales and weights.</text>
  <g id="" transform="matrix(1 0 0 1 1289 1933)">
   <path d="M2.8418 1.86523L4.54102 3.57422C5.40039 4.44336 6.38672 4.38477 7.31445 3.35938L17.4902-7.85156C17.7539-7.76367 18.0273-7.7832 18.3398-7.8418L19.4043-8.03711L20.0684-7.36328L20.0293-6.80664C19.9902-6.30859 20.1172-5.92773 20.6055-5.44922L21.3672-4.70703C21.8457-4.22852 22.4609-4.19922 22.9297-4.66797L25.8398-7.58789C26.3086-8.05664 26.2891-8.65234 25.8105-9.13086L25.0391-9.89258C24.5605-10.3711 24.1895-10.5273 23.7109-10.4883L23.1348-10.4395L22.4902-11.0742L22.7344-12.1973C22.8613-12.7637 22.7051-13.2031 22.1191-13.7891L19.9219-15.9766C16.582-19.2969 12.1484-19.2188 9.25781-16.3281C8.83789-15.918 8.80859-15.3418 9.04297-14.9512C9.27734-14.5898 9.73633-14.3555 10.3809-14.5215C11.8457-14.8633 13.3691-14.9219 14.7949-13.9844L14.209-12.5293C14.0137-12.0508 13.9844-11.6504 14.1113-11.2891L3.04688-0.898438C2.06055 0.0195312 1.98242 0.996094 2.8418 1.86523ZM10.752-15.957C13.1836-17.7344 16.4746-17.4316 18.7012-15.2051L21.1328-12.793C21.3672-12.5586 21.4062-12.373 21.3379-12.0312L21.0156-10.5469L22.5195-9.0625L23.5059-9.12109C23.7598-9.13086 23.8379-9.11133 24.0332-8.91602L24.6094-8.33984L22.168-5.89844L21.5918-6.47461C21.3965-6.66992 21.3672-6.74805 21.377-7.01172L21.4453-7.98828L19.9512-9.47266L18.4277-9.21875C18.1055-9.15039 17.959-9.17969 17.7148-9.41406L15.7129-11.416C15.459-11.6504 15.4297-11.8164 15.5859-12.1875L16.4648-14.2773C14.9023-15.7324 12.8711-16.3574 10.8398-15.7617C10.6836-15.7227 10.625-15.8496 10.752-15.957ZM5.27344 2.30469L4.10156 1.14258C3.63281 0.683594 3.74023 0.341797 4.14062-0.0195312L14.9512-10.1953L16.416-8.71094L6.42578 2.27539C6.07422 2.67578 5.74219 2.77344 5.27344 2.30469Z"/>
  </g>
  <text style="stroke:none;fill:black;font-family:-apple-system,&quot;SF Pro Display&quot;,&quot;SF Pro Text&quot;,Helvetica,sans-serif;font-weight:bold;" transform="matrix(1 0 0 1 1289 1953)">Exporting</text>
  <text style="stroke:none;fill:black;font-family:-apple-system,&quot;SF Pro Display&quot;,&quot;SF Pro Text&quot;,Helvetica,sans-serif;" transform="matrix(1 0 0 1 1289 1971)">Symbols should be outlined when exporting to ensure the</text>
  <text style="stroke:none;fill:black;font-family:-apple-system,&quot;SF Pro Display&quot;,&quot;SF Pro Text&quot;,Helvetica,sans-serif;" transform="matrix(1 0 0 1 1289 1989)">design is preserved when submitting to Xcode.</text>
  <text id="template-version" style="stroke:none;fill:black;font-family:-apple-system,&quot;SF Pro Display&quot;,&quot;SF Pro Text&quot;,Helvetica,sans-serif;text-anchor:end;" transform="matrix(1 0 0 1 3036 1933)">Template v.2.0</text>
  <text style="stroke:none;fill:black;font-family:-apple-system,&quot;SF Pro Display&quot;,&quot;SF Pro Text&quot;,Helvetica,sans-serif;text-anchor:end;" transform="matrix(1 0 0 1 3036 1951)">Requires Xcode 12 or greater</text>
  <text style="stroke:none;fill:black;font-family:-apple-system,&quot;SF Pro Display&quot;,&quot;SF Pro Text&quot;,Helvetica,sans-serif;text-anchor:end;" transform="matrix(1 0 0 1 3036 1969)">Generated from plus.app.fill</text>
  <text style="stroke:none;fill:black;font-family:-apple-system,&quot;SF Pro Display&quot;,&quot;SF Pro Text&quot;,Helvetica,sans-serif;text-anchor:end;" transform="matrix(1 0 0 1 3036 1987)">Typeset at 100 points</text>
  <text style="stroke:none;fill:black;font-family:-apple-system,&quot;SF Pro Display&quot;,&quot;SF Pro Text&quot;,Helvetica,sans-serif;" transform="matrix(1 0 0 1 263 726)">Small</text>
  <text style="stroke:none;fill:black;font-family:-apple-system,&quot;SF Pro Display&quot;,&quot;SF Pro Text&quot;,Helvetica,sans-serif;" transform="matrix(1 0 0 1 263 1156)">Medium</text>
  <text style="stroke:none;fill:black;font-family:-apple-system,&quot;SF Pro Display&quot;,&quot;SF Pro Text&quot;,Helvetica,sans-serif;" transform="matrix(1 0 0 1 263 1586)">Large</text>
 </g>
 <g id="Guides">
  <g id="H-reference" style="fill:#27AAE1;stroke:none;" transform="matrix(1 0 0 1 339 696)">
   <path d="M0.976562 0L3.66211 0L12.9883-24.4629L45.752-24.4629L55.127 0L57.7637 0L30.6152-70.459L28.125-70.459ZM29.3457-67.1387L29.4434-67.1387L44.873-26.709L13.8672-26.709Z"/>
  </g>
  <line id="Baseline-S" style="fill:none;stroke:#27AAE1;opacity:1;stroke-width:0.5;" x1="263" x2="3036" y1="696" y2="696"/>
  <line id="Capline-S" style="fill:none;stroke:#27AAE1;opacity:1;stroke-width:0.5;" x1="263" x2="3036" y1="625.541" y2="625.541"/>
  <g id="H-reference" style="fill:#27AAE1;stroke:none;" transform="matrix(1 0 0 1 339 1126)">
   <path d="M0.976562 0L3.66211 0L12.9883-24.4629L45.752-24.4629L55.127 0L57.7637 0L30.6152-70.459L28.125-70.459ZM29.3457-67.1387L29.4434-67.1387L44.873-26.709L13.8672-26.709Z"/>
  </g>
  <line id="Baseline-M" style="fill:none;stroke:#27AAE1;opacity:1;stroke-width:0.5;" x1="263" x2="3036" y1="1126" y2="1126"/>
  <line id="Capline-M" style="fill:none;stroke:#27AAE1;opacity:1;stroke-width:0.5;" x1="263" x2="3036" y1="1055.54" y2="1055.54"/>
  <g id="H-reference" style="fill:#27AAE1;stroke:none;" transform="matrix(1 0 0 1 339 1556)">
   <path d="M0.976562 0L3.66211 0L12.9883-24.4629L45.752-24.4629L55.127 0L57.7637 0L30.6152-70.459L28.125-70.459ZM29.3457-67.1387L29.4434-67.1387L44.873-26.709L13.8672-26.709Z"/>
  </g>
  <line id="Baseline-L" style="fill:none;stroke:#27AAE1;opacity:1;stroke-width:0.5;" x1="263" x2="3036" y1="1556" y2="1556"/>
  <line id="Capline-L" style="fill:none;stroke:#27AAE1;opacity:1;stroke-width:0.5;" x1="263" x2="3036" y1="1485.54" y2="1485.54"/>
  <line id="left-margin" style="fill:none;stroke:#00AEEF;stroke-width:0.5;opacity:1.0;" x1="1392.96" x2="1392.96" y1="1030.79" y2="1150.12"/>
  <line id="right-margin" style="fill:none;stroke:#00AEEF;stroke-width:0.5;opacity:1.0;" x1="1506.73" x2="1506.73" y1="1030.79" y2="1150.12"/>
 </g>
 <g id="Symbols">
  <g id="Black-L" transform="matrix(1 0 0 1 2856.4 1556)">
   <path d="M129.248-87.4023C122.461-94.1406 113.574-96.1914 99.8535-96.1914L54.1504-96.1914C40.4297-96.1914 31.4941-94.1406 24.7559-87.4023C18.0176-80.6641 16.0645-71.9238 16.0645-58.1055L16.0645-12.3535C16.0645 1.46484 18.0176 10.2539 24.7559 16.9434C31.543 23.6816 40.4297 25.7324 54.1504 25.7324L99.8535 25.7324C113.574 25.7324 122.51 23.6816 129.248 16.9434C135.986 10.2051 137.939 1.46484 137.939-12.3535L137.939-58.1055C137.939-71.9238 135.986-80.7129 129.248-87.4023ZM46.0938-35.2539C46.0938-40.2832 49.7559-44.043 54.6875-44.043L68.2617-44.043L68.2617-57.6172C68.2617-62.5488 71.9727-66.2109 77.002-66.2109C82.0801-66.2109 85.8398-62.5488 85.8398-57.6172L85.8398-44.043L99.4141-44.043C104.297-44.043 108.008-40.2832 108.008-35.2539C108.008-30.2246 104.297-26.4648 99.4141-26.4648L85.8398-26.4648L85.8398-12.8906C85.8398-8.00781 82.0801-4.3457 77.002-4.3457C71.9727-4.3457 68.2617-8.00781 68.2617-12.8906L68.2617-26.4648L54.6875-26.4648C49.7559-26.4648 46.0938-30.2246 46.0938-35.2539Z"/>
  </g>
  <g id="Heavy-L" transform="matrix(1 0 0 1 2560.69 1556)">
   <path d="M127.637-86.7676C120.996-93.3594 112.207-95.166 99.1211-95.166L52.832-95.166C39.7949-95.166 30.957-93.3594 24.4141-86.7676C17.8223-80.1758 16.0645-71.5332 16.0645-58.3984L16.0645-12.1582C16.0645 1.07422 17.8223 9.76562 24.4141 16.3086C31.0059 22.8516 39.7949 24.707 52.9297 24.707L99.1211 24.707C112.207 24.707 121.045 22.8516 127.637 16.3086C134.18 9.7168 135.938 1.07422 135.938-12.1582L135.938-58.3496C135.938-71.5332 134.18-80.2246 127.637-86.7676ZM45.3613-35.2539C45.3613-39.7461 48.6328-43.1152 53.0273-43.1152L68.2129-43.1152L68.2129-58.252C68.2129-62.6953 71.5332-65.9668 76.0254-65.9668C80.5176-65.9668 83.8379-62.6953 83.8379-58.252L83.8379-43.1152L99.0723-43.1152C103.467-43.1152 106.738-39.7461 106.738-35.2539C106.738-30.7617 103.467-27.4414 99.0723-27.4414L83.8379-27.4414L83.8379-12.2559C83.8379-7.86133 80.5176-4.58984 76.0254-4.58984C71.5332-4.58984 68.2129-7.86133 68.2129-12.2559L68.2129-27.4414L53.0273-27.4414C48.6328-27.4414 45.3613-30.7617 45.3613-35.2539Z"/>
  </g>
  <g id="Bold-L" transform="matrix(1 0 0 1 2265.1 1556)">
   <path d="M125.781-86.084C119.336-92.4805 110.693-94.043 98.2422-94.043L51.3672-94.043C39.1113-94.043 30.3711-92.4316 23.9746-86.0352C17.627-79.6387 16.0645-71.0938 16.0645-58.7402L16.0645-11.9141C16.0645 0.634766 17.5781 9.22852 23.9746 15.5762C30.4199 21.9727 39.0625 23.584 51.5137 23.584L98.2422 23.584C110.693 23.584 119.385 21.9727 125.781 15.5762C132.178 9.17969 133.691 0.634766 133.691-11.9141L133.691-58.5938C133.691-71.0938 132.178-79.7363 125.781-86.084ZM44.4824-35.2539C44.4824-39.1602 47.3145-41.9922 51.1719-41.9922L68.2129-41.9922L68.2129-59.0332C68.2129-62.8906 70.9961-65.7227 74.8535-65.7227C78.8086-65.7227 81.6406-62.8906 81.6406-59.0332L81.6406-41.9922L98.6816-41.9922C102.539-41.9922 105.322-39.1602 105.322-35.2539C105.322-31.3965 102.49-28.5645 98.6816-28.5645L81.6406-28.5645L81.6406-11.5234C81.6406-7.66602 78.8086-4.88281 74.8535-4.88281C70.9961-4.88281 68.2129-7.71484 68.2129-11.5234L68.2129-28.5645L51.1719-28.5645C47.3145-28.5645 44.4824-31.3965 44.4824-35.2539Z"/>
  </g>
  <g id="Semibold-L" transform="matrix(1 0 0 1 1969.17 1556)">
   <path d="M124.512-85.5957C118.213-91.8457 109.619-93.3105 97.6562-93.3105L50.3418-93.3105C38.623-93.3105 29.9805-91.7969 23.7305-85.5469C17.4316-79.2969 16.0645-70.8008 16.0645-58.9844L16.0645-11.7188C16.0645 0.341797 17.4316 8.83789 23.6816 15.0879C30.0293 21.3379 38.5742 22.8027 50.5859 22.8027L97.6562 22.8027C109.619 22.8027 118.262 21.3379 124.512 15.0879C130.762 8.78906 132.129 0.341797 132.129-11.7188L132.129-58.7891C132.129-70.8008 130.762-79.3457 124.512-85.5957ZM43.8965-35.2051C43.8965-38.7207 46.4355-41.2598 49.9023-41.2598L68.1641-41.2598L68.1641-59.5215C68.1641-62.9883 70.6543-65.5273 74.0723-65.5273C77.5879-65.5273 80.127-62.9883 80.127-59.5215L80.127-41.2598L98.4375-41.2598C101.855-41.2598 104.346-38.7207 104.346-35.2051C104.346-31.7871 101.855-29.3457 98.4375-29.3457L80.127-29.3457L80.127-10.9863C80.127-7.56836 77.5879-5.07812 74.0723-5.07812C70.6543-5.07812 68.1641-7.56836 68.1641-10.9863L68.1641-29.3457L49.9023-29.3457C46.4355-29.3457 43.8965-31.7871 43.8965-35.2051Z"/>
  </g>
  <g id="Medium-L" transform="matrix(1 0 0 1 1673.04 1556)">
   <path d="M123.535-85.2051C117.334-91.3574 108.838-92.7246 97.168-92.7246L49.6094-92.7246C38.2812-92.7246 29.6875-91.3574 23.5352-85.1562C17.334-79.0039 16.0645-70.5566 16.0645-59.1797L16.0645-11.5723C16.0645 0.0976562 17.334 8.54492 23.4863 14.6973C29.6875 20.8496 38.2324 22.2168 49.8535 22.2168L97.168 22.2168C108.838 22.2168 117.383 20.8496 123.535 14.6973C129.736 8.54492 130.957 0.0976562 130.957-11.5723L130.957-58.9355C130.957-70.6055 129.736-79.0527 123.535-85.2051ZM43.457-35.2051C43.457-38.4277 45.752-40.6738 48.9258-40.6738L68.1641-40.6738L68.1641-59.9121C68.1641-63.0859 70.3613-65.3809 73.4863-65.3809C76.6602-65.3809 78.9551-63.0859 78.9551-59.9121L78.9551-40.6738L98.2422-40.6738C101.367-40.6738 103.613-38.4277 103.613-35.2051C103.613-32.1289 101.318-29.8828 98.2422-29.8828L78.9551-29.8828L78.9551-10.5957C78.9551-7.4707 76.6602-5.22461 73.4863-5.22461C70.3613-5.22461 68.1641-7.51953 68.1641-10.5957L68.1641-29.8828L48.9258-29.8828C45.752-29.8828 43.457-32.1289 43.457-35.2051Z"/>
  </g>
  <g id="Regular-L" transform="matrix(1 0 0 1 1377.09 1556)">
   <path d="M122.314-84.7168C116.211-90.7715 107.764-91.9434 96.582-91.9434L48.584-91.9434C37.793-91.9434 29.2969-90.7227 23.2422-84.668C17.1875-78.6621 16.0645-70.2637 16.0645-59.4238L16.0645-11.4258C16.0645-0.195312 17.1387 8.20312 23.1934 14.209C29.2969 20.2637 37.7441 21.4355 48.9258 21.4355L96.582 21.4355C107.764 21.4355 116.26 20.2637 122.314 14.209C128.32 8.1543 129.443-0.195312 129.443-11.4258L129.443-59.082C129.443-70.3125 128.32-78.7109 122.314-84.7168ZM42.9199-35.2051C42.9199-38.0371 44.873-39.9414 47.6562-39.9414L68.1152-39.9414L68.1152-60.4492C68.1152-63.1836 70.0195-65.1855 72.7051-65.1855C75.4883-65.1855 77.4414-63.2324 77.4414-60.4492L77.4414-39.9414L97.9492-39.9414C100.732-39.9414 102.686-38.0371 102.686-35.2051C102.686-32.5195 100.684-30.6641 97.9492-30.6641L77.4414-30.6641L77.4414-10.1074C77.4414-7.37305 75.4883-5.41992 72.7051-5.41992C70.0195-5.41992 68.1152-7.42188 68.1152-10.1074L68.1152-30.6641L47.6562-30.6641C44.873-30.6641 42.9199-32.5195 42.9199-35.2051Z"/>
  </g>
  <g id="Light-L" transform="matrix(1 0 0 1 1081.26 1556)">
   <path d="M120.85-84.082C115.283-89.5996 107.617-91.0156 95.8984-91.0156L47.3633-91.0156C36.2305-91.0156 28.5156-89.5508 22.9492-84.0332C17.4316-78.5156 16.0645-70.8984 16.0645-59.7168L16.0645-11.1816C16.0645 0.585938 17.3828 8.20312 22.9004 13.6719C28.5156 19.2383 36.1328 20.6055 47.8516 20.6055L95.8984 20.6055C107.617 20.6055 115.332 19.2383 120.85 13.6719C126.367 8.1543 127.686 0.585938 127.686-11.1816L127.686-59.2285C127.686-70.9961 126.367-78.6133 120.85-84.082ZM42.627-35.2539C42.627-37.3535 44.0918-38.8672 46.2402-38.8672L68.3594-38.8672L68.3594-60.9863C68.3594-63.0859 69.873-64.5996 71.8262-64.5996C73.9258-64.5996 75.4395-63.1348 75.4395-60.9863L75.4395-38.8672L97.6562-38.8672C99.707-38.8672 101.221-37.3535 101.221-35.2539C101.221-33.252 99.6582-31.7871 97.6562-31.7871L75.4395-31.7871L75.4395-9.61914C75.4395-7.51953 73.9258-6.00586 71.8262-6.00586C69.873-6.00586 68.3594-7.56836 68.3594-9.61914L68.3594-31.7871L46.2402-31.7871C44.1406-31.7871 42.627-33.252 42.627-35.2539Z"/>
  </g>
  <g id="Thin-L" transform="matrix(1 0 0 1 785.695 1556)">
   <path d="M118.945-83.252C114.014-88.0859 107.471-89.7949 94.9707-89.7949L45.752-89.7949C34.1309-89.7949 27.4414-88.0371 22.6074-83.2031C17.7734-78.3203 16.0645-71.7773 16.0645-60.1074L16.0645-10.8887C16.0645 1.66016 17.6758 8.25195 22.5098 12.9883C27.4414 17.8711 33.9844 19.5312 46.4844 19.5312L94.9707 19.5312C107.471 19.5312 114.111 17.8711 118.945 12.9883C123.779 8.1543 125.391 1.66016 125.391-10.8887L125.391-59.375C125.391-71.9238 123.779-78.4668 118.945-83.252ZM42.2363-35.2539C42.2363-36.4746 43.1152-37.4023 44.3359-37.4023L68.7012-37.4023L68.7012-61.7676C68.7012-62.8906 69.6289-63.8672 70.7031-63.8672C71.875-63.8672 72.8516-62.9883 72.8516-61.7676L72.8516-37.4023L97.2168-37.4023C98.3887-37.4023 99.2676-36.4746 99.2676-35.2539C99.2676-34.2285 98.3398-33.252 97.2168-33.252L72.8516-33.252L72.8516-8.93555C72.8516-7.71484 71.875-6.83594 70.7031-6.83594C69.6289-6.83594 68.7012-7.8125 68.7012-8.93555L68.7012-33.252L44.3359-33.252C43.2129-33.252 42.2363-34.2285 42.2363-35.2539Z"/>
  </g>
  <g id="Ultralight-L" transform="matrix(1 0 0 1 489.57 1556)">
   <path d="M117.969-82.8125C113.379-87.3047 107.373-89.1602 94.4824-89.1602L44.9219-89.1602C33.1055-89.1602 26.9043-87.2559 22.4121-82.7637C17.9199-78.2715 16.0645-72.2168 16.0645-60.3027L16.0645-10.7422C16.0645 2.24609 17.8223 8.25195 22.3145 12.6465C26.9043 17.1387 32.9102 18.9941 45.8008 18.9941L94.4824 18.9941C107.373 18.9941 113.477 17.1387 117.969 12.6465C122.461 8.1543 124.219 2.24609 124.219-10.7422L124.219-59.4238C124.219-72.4121 122.461-78.418 117.969-82.8125ZM42.041-35.2539C42.041-36.0352 42.627-36.6699 43.3594-36.6699L68.8477-36.6699L68.8477-62.1582C68.8477-62.793 69.5312-63.4766 70.1172-63.4766C70.8496-63.4766 71.4844-62.8906 71.4844-62.1582L71.4844-36.6699L96.9727-36.6699C97.7051-36.6699 98.291-36.0352 98.291-35.2539C98.291-34.7168 97.6562-34.0332 96.9727-34.0332L71.4844-34.0332L71.4844-8.54492C71.4844-7.8125 70.8496-7.22656 70.1172-7.22656C69.5312-7.22656 68.8477-7.91016 68.8477-8.54492L68.8477-34.0332L43.3594-34.0332C42.7246-34.0332 42.041-34.7168 42.041-35.2539Z"/>
  </g>
  <g id="Black-M" transform="matrix(1 0 0 1 2872.83 1126)">
   <path d="M101.611-76.1719C96.3867-81.3477 89.7949-83.3008 78.0762-83.3008L43.0664-83.3008C31.3477-83.3008 24.707-81.3477 19.5312-76.1719C14.3555-70.9961 12.4512-64.5508 12.4512-52.6855L12.4512-17.7246C12.4512-5.81055 14.3555 0.683594 19.5312 5.81055C24.7559 10.9863 31.3477 12.9395 43.0664 12.9395L78.0762 12.9395C89.7949 12.9395 96.4844 10.9863 101.611 5.81055C106.787 0.634766 108.691-5.81055 108.691-17.7246L108.691-52.6855C108.691-64.5508 106.787-71.0938 101.611-76.1719ZM36.6211-35.2539C36.6211-39.5508 39.7461-42.8223 43.8965-42.8223L53.0762-42.8223L53.0762-51.9531C53.0762-56.1035 56.3477-59.2773 60.5957-59.2773C64.8926-59.2773 68.1641-56.1035 68.1641-51.9531L68.1641-42.8223L77.3438-42.8223C81.4453-42.8223 84.6191-39.5508 84.6191-35.2539C84.6191-31.0059 81.4453-27.7344 77.3438-27.7344L68.1641-27.7344L68.1641-18.5547C68.1641-14.4043 64.8926-11.2793 60.5957-11.2793C56.3477-11.2793 53.0762-14.4043 53.0762-18.5547L53.0762-27.7344L43.8965-27.7344C39.7461-27.7344 36.6211-31.0059 36.6211-35.2539Z"/>
  </g>
  <g id="Heavy-M" transform="matrix(1 0 0 1 2577 1126)">
   <path d="M100.195-75.6348C95.0195-80.7617 88.3301-82.4707 77.3926-82.4707L41.9434-82.4707C31.0547-82.4707 24.3164-80.7617 19.1895-75.6348C14.0625-70.5078 12.4512-63.9648 12.4512-52.9297L12.4512-17.5293C12.4512-6.49414 14.0625 0.146484 19.1895 5.22461C24.3652 10.3516 31.0547 12.0117 41.9922 12.0117L77.3926 12.0117C88.3301 12.0117 95.0684 10.3516 100.195 5.22461C105.322 0.0976562 106.934-6.49414 106.934-17.5293L106.934-52.9297C106.934-63.9648 105.322-70.6055 100.195-75.6348ZM35.8398-35.2539C35.8398-39.1113 38.6719-42.041 42.4316-42.041L52.9785-42.041L52.9785-52.5391C52.9785-56.2988 55.8594-59.1309 59.7168-59.1309C63.5742-59.1309 66.5039-56.3477 66.5039-52.5391L66.5039-42.041L77.0508-42.041C80.8105-42.041 83.5938-39.1113 83.5938-35.2539C83.5938-31.3965 80.8105-28.5156 77.0508-28.5156L66.5039-28.5156L66.5039-17.9688C66.5039-14.209 63.5742-11.377 59.7168-11.377C55.8594-11.377 52.9785-14.209 52.9785-17.9688L52.9785-28.5156L42.4316-28.5156C38.6719-28.5156 35.8398-31.3965 35.8398-35.2539Z"/>
  </g>
  <g id="Bold-M" transform="matrix(1 0 0 1 2281.26 1126)">
   <path d="M98.6328-75.0488C93.5059-80.127 86.7188-81.4941 76.6602-81.4941L40.7227-81.4941C30.7617-81.4941 23.9258-80.127 18.8477-75.0488C13.7695-69.9707 12.4512-63.2812 12.4512-53.2227L12.4512-17.2852C12.4512-7.17773 13.7695-0.439453 18.8477 4.58984C23.9746 9.66797 30.7617 11.0352 40.7715 11.0352L76.6602 11.0352C86.7188 11.0352 93.5547 9.66797 98.6328 4.58984C103.711-0.488281 104.98-7.17773 104.98-17.2852L104.98-53.1738C104.98-63.2812 103.711-70.0195 98.6328-75.0488ZM35.0098-35.2539C35.0098-38.623 37.4512-41.1621 40.8203-41.1621L52.8809-41.1621L52.8809-53.2227C52.8809-56.543 55.3711-59.0332 58.7402-59.0332C62.1582-59.0332 64.6484-56.543 64.6484-53.2227L64.6484-41.1621L76.709-41.1621C80.0293-41.1621 82.5195-38.623 82.5195-35.2539C82.5195-31.8848 80.0293-29.3945 76.709-29.3945L64.6484-29.3945L64.6484-17.2852C64.6484-13.9648 62.1582-11.5234 58.7402-11.5234C55.3711-11.5234 52.8809-13.9648 52.8809-17.2852L52.8809-29.3945L40.8203-29.3945C37.5-29.3945 35.0098-31.8848 35.0098-35.2539Z"/>
  </g>
  <g id="Semibold-M" transform="matrix(1 0 0 1 1985.21 1126)">
   <path d="M97.5098-74.6582C92.4316-79.6875 85.5957-80.8594 76.1719-80.8594L39.8438-80.8594C30.5664-80.8594 23.6328-79.6875 18.6035-74.6582C13.5742-69.6289 12.4512-62.793 12.4512-53.4668L12.4512-17.1387C12.4512-7.66602 13.5254-0.878906 18.6035 4.15039C23.6816 9.17969 30.5176 10.3516 39.9414 10.3516L76.1719 10.3516C85.5957 10.3516 92.4805 9.17969 97.5098 4.15039C102.539-0.878906 103.662-7.66602 103.662-17.1387L103.662-53.3691C103.662-62.8418 102.539-69.6289 97.5098-74.6582ZM34.4238-35.2051C34.4238-38.3301 36.6211-40.5762 39.6973-40.5762L52.7832-40.5762L52.7832-53.6621C52.7832-56.6895 54.9805-58.9355 58.0566-58.9355C61.1328-58.9355 63.3789-56.7383 63.3789-53.6621L63.3789-40.5762L76.5137-40.5762C79.541-40.5762 81.7383-38.3301 81.7383-35.2051C81.7383-32.1777 79.541-29.9805 76.5137-29.9805L63.3789-29.9805L63.3789-16.8457C63.3789-13.8184 61.1328-11.6211 58.0566-11.6211C54.9805-11.6211 52.7832-13.8184 52.7832-16.8457L52.7832-29.9805L39.6973-29.9805C36.6699-29.9805 34.4238-32.1777 34.4238-35.2051Z"/>
  </g>
  <g id="Medium-M" transform="matrix(1 0 0 1 1689.01 1126)">
   <path d="M96.6797-74.3652C91.6504-79.3457 84.7168-80.3711 75.7812-80.3711L39.209-80.3711C30.3711-80.3711 23.4375-79.3457 18.4082-74.3164C13.3789-69.3359 12.4512-62.4512 12.4512-53.6133L12.4512-17.041C12.4512-8.05664 13.3789-1.17188 18.4082 3.80859C23.4375 8.83789 30.3711 9.81445 39.3066 9.81445L75.7812 9.81445C84.7168 9.81445 91.6504 8.83789 96.6797 3.80859C101.709-1.2207 102.637-8.05664 102.637-17.041L102.637-53.4668C102.637-62.4512 101.709-69.3359 96.6797-74.3652ZM33.9844-35.2051C33.9844-38.0859 35.9863-40.0879 38.8672-40.0879L52.7344-40.0879L52.7344-54.0039C52.7344-56.8359 54.7363-58.8379 57.5195-58.8379C60.4004-58.8379 62.4023-56.8359 62.4023-54.0039L62.4023-40.0879L76.3184-40.0879C79.1504-40.0879 81.1523-38.0859 81.1523-35.2051C81.1523-32.4219 79.1016-30.4199 76.3184-30.4199L62.4023-30.4199L62.4023-16.5039C62.4023-13.7207 60.4004-11.6699 57.5195-11.6699C54.7363-11.6699 52.7344-13.7207 52.7344-16.5039L52.7344-30.4199L38.8672-30.4199C36.0352-30.4199 33.9844-32.4219 33.9844-35.2051Z"/>
  </g>
  <g id="Regular-M" transform="matrix(1 0 0 1 1392.96 1126)">
   <path d="M95.6055-73.9258C90.625-78.9062 83.5938-79.6875 75.2441-79.6875L38.3789-79.6875C30.1758-79.6875 23.1445-78.9062 18.1641-73.9258C13.1836-68.9453 12.4512-61.9629 12.4512-53.8086L12.4512-16.8945C12.4512-8.54492 13.1836-1.61133 18.1641 3.36914C23.1445 8.34961 30.1758 9.13086 38.4766 9.13086L75.2441 9.13086C83.5938 9.13086 90.625 8.34961 95.6055 3.36914C100.586-1.61133 101.318-8.54492 101.318-16.8945L101.318-53.6621C101.318-62.0117 100.586-68.9941 95.6055-73.9258ZM33.3984-35.2051C33.3984-37.7441 35.2051-39.502 37.7441-39.502L52.6855-39.502L52.6855-54.4434C52.6855-56.9824 54.3457-58.7891 56.8359-58.7891C59.375-58.7891 61.1328-56.9824 61.1328-54.4434L61.1328-39.502L76.123-39.502C78.6133-39.502 80.4199-37.7441 80.4199-35.2051C80.4199-32.7148 78.6133-31.0547 76.123-31.0547L61.1328-31.0547L61.1328-16.0645C61.1328-13.5742 59.375-11.7676 56.8359-11.7676C54.3457-11.7676 52.6855-13.5742 52.6855-16.0645L52.6855-31.0547L37.7441-31.0547C35.2051-31.0547 33.3984-32.7148 33.3984-35.2051Z"/>
  </g>
  <g id="Light-M" transform="matrix(1 0 0 1 1097.03 1126)">
   <path d="M94.2871-73.3887C89.7461-77.8809 83.4961-78.8574 74.6094-78.8574L37.2559-78.8574C28.7598-78.8574 22.4609-77.8809 17.9199-73.3398C13.4277-68.8477 12.4512-62.5977 12.4512-54.0527L12.4512-16.6992C12.4512-7.8125 13.3789-1.5625 17.8711 2.92969C22.4609 7.42188 28.7109 8.39844 37.5488 8.39844L74.6094 8.39844C83.4961 8.39844 89.7949 7.42188 94.2871 2.92969C98.8281-1.61133 99.7559-7.8125 99.7559-16.6992L99.7559-53.7598C99.7559-62.6465 98.8281-68.8965 94.2871-73.3887ZM33.1543-35.2051C33.1543-37.1582 34.5215-38.5254 36.4746-38.5254L52.8809-38.5254L52.8809-54.9316C52.8809-56.8848 54.1992-58.252 56.0547-58.252C58.0078-58.252 59.375-56.8848 59.375-54.9316L59.375-38.5254L75.8301-38.5254C77.7344-38.5254 79.1016-37.1582 79.1016-35.2051C79.1016-33.3984 77.6855-32.0312 75.8301-32.0312L59.375-32.0312L59.375-15.5762C59.375-13.6719 58.0078-12.3047 56.0547-12.3047C54.1992-12.3047 52.8809-13.7207 52.8809-15.5762L52.8809-32.0312L36.4746-32.0312C34.5703-32.0312 33.1543-33.3984 33.1543-35.2051Z"/>
  </g>
  <g id="Thin-M" transform="matrix(1 0 0 1 801.344 1126)">
   <path d="M92.5781-72.6562C88.623-76.5137 83.3008-77.7832 73.7793-77.7832L35.8398-77.7832C26.9043-77.7832 21.4844-76.4648 17.5781-72.5586C13.6719-68.6523 12.4512-63.3789 12.4512-54.3945L12.4512-16.4551C12.4512-6.83594 13.623-1.5625 17.5293 2.29492C21.4844 6.20117 26.8066 7.4707 36.3281 7.4707L73.7793 7.4707C83.3008 7.4707 88.6719 6.20117 92.5781 2.29492C96.4844-1.61133 97.7051-6.83594 97.7051-16.4551L97.7051-53.9062C97.7051-63.4766 96.4844-68.7988 92.5781-72.6562ZM32.8125-35.2539C32.8125-36.377 33.6426-37.2559 34.7656-37.2559L53.1738-37.2559L53.1738-55.6152C53.1738-56.6895 54.0039-57.5684 55.0293-57.5684C56.1523-57.5684 57.0312-56.7383 57.0312-55.6152L57.0312-37.2559L75.4395-37.2559C76.5625-37.2559 77.3438-36.377 77.3438-35.2539C77.3438-34.2285 76.5137-33.3984 75.4395-33.3984L57.0312-33.3984L57.0312-14.9902C57.0312-13.8672 56.1523-13.0371 55.0293-13.0371C54.0039-13.0371 53.1738-13.916 53.1738-14.9902L53.1738-33.3984L34.7656-33.3984C33.6914-33.3984 32.8125-34.2285 32.8125-35.2539Z"/>
  </g>
  <g id="Ultralight-M" transform="matrix(1 0 0 1 505.17 1126)">
   <path d="M91.6992-72.2656C88.0859-75.8301 83.252-77.1973 73.3887-77.1973L35.0586-77.1973C25.9766-77.1973 20.9961-75.7812 17.4316-72.168C13.8184-68.6035 12.4512-63.7695 12.4512-54.5898L12.4512-16.3086C12.4512-6.34766 13.7695-1.5625 17.3828 2.00195C20.9961 5.56641 25.8301 6.93359 35.6934 6.93359L73.3887 6.93359C83.252 6.93359 88.1348 5.56641 91.6992 2.00195C95.3125-1.61133 96.6309-6.34766 96.6309-16.3086L96.6309-53.9551C96.6309-63.916 95.3125-68.7012 91.6992-72.2656ZM32.666-35.2539C32.666-35.9863 33.2031-36.5723 33.9355-36.5723L53.3203-36.5723L53.3203-55.957C53.3203-56.6406 53.9062-57.2266 54.4922-57.2266C55.2246-57.2266 55.8105-56.6895 55.8105-55.957L55.8105-36.5723L75.2441-36.5723C75.9277-36.5723 76.4648-35.9863 76.4648-35.2539C76.4648-34.668 75.8789-34.082 75.2441-34.082L55.8105-34.082L55.8105-14.6484C55.8105-13.9648 55.2246-13.4277 54.4922-13.4277C53.9062-13.4277 53.3203-14.0137 53.3203-14.6484L53.3203-34.082L33.9355-34.082C33.252-34.082 32.666-34.668 32.666-35.2539Z"/>
  </g>
  <g id="Black-S" transform="matrix(1 0 0 1 2885.99 696)">
   <path d="M79.541-67.2852C75.4395-71.3379 70.2637-72.8516 61.1328-72.8516L33.6914-72.8516C24.5605-72.8516 19.3359-71.3379 15.2832-67.2852C11.2305-63.2324 9.76562-58.1543 9.76562-48.9258L9.76562-21.4844C9.76562-12.2559 11.2305-7.12891 15.2832-3.125C19.3848 0.927734 24.5605 2.44141 33.6914 2.44141L61.1328 2.44141C70.2637 2.44141 75.4883 0.927734 79.541-3.125C83.5938-7.17773 85.0586-12.2559 85.0586-21.4844L85.0586-48.9258C85.0586-58.1543 83.5938-63.2812 79.541-67.2852ZM28.6133-35.2539C28.6133-38.5742 31.0547-41.1133 34.2773-41.1133L41.5527-41.1133L41.5527-48.3887C41.5527-51.6113 44.0918-54.0527 47.4121-54.0527C50.7324-54.0527 53.2715-51.6113 53.2715-48.3887L53.2715-41.1133L60.5469-41.1133C63.7695-41.1133 66.2109-38.5742 66.2109-35.2539C66.2109-31.9336 63.7695-29.3945 60.5469-29.3945L53.2715-29.3945L53.2715-22.1191C53.2715-18.8965 50.7324-16.4551 47.4121-16.4551C44.0918-16.4551 41.5527-18.8965 41.5527-22.1191L41.5527-29.3945L34.2773-29.3945C31.0547-29.3945 28.6133-31.9336 28.6133-35.2539Z"/>
  </g>
  <g id="Heavy-S" transform="matrix(1 0 0 1 2589.86 696)">
   <path d="M78.6133-66.9434C74.4629-70.9961 69.1406-72.3145 60.6934-72.3145L32.959-72.3145C24.5117-72.3145 19.1406-70.9961 15.0879-66.9434C10.9863-62.8906 9.76562-57.6172 9.76562-49.1211L9.76562-21.3379C9.76562-12.8418 10.9863-7.51953 15.0879-3.51562C19.1895 0.537109 24.5117 1.85547 32.959 1.85547L60.6934 1.85547C69.1406 1.85547 74.5117 0.537109 78.6133-3.51562C82.666-7.56836 83.8867-12.8418 83.8867-21.3379L83.8867-49.0723C83.8867-57.6172 82.666-62.8906 78.6133-66.9434ZM28.0762-35.2539C28.0762-38.3301 30.3223-40.625 33.3008-40.625L41.4551-40.625L41.4551-48.7793C41.4551-51.7578 43.75-54.0039 46.8262-54.0039C49.9023-54.0039 52.1973-51.7578 52.1973-48.7793L52.1973-40.625L60.3516-40.625C63.3789-40.625 65.5762-38.3301 65.5762-35.2539C65.5762-32.1777 63.3789-29.8828 60.3516-29.8828L52.1973-29.8828L52.1973-21.7285C52.1973-18.75 49.9023-16.5039 46.8262-16.5039C43.75-16.5039 41.4551-18.75 41.4551-21.7285L41.4551-29.8828L33.3008-29.8828C30.3223-29.8828 28.0762-32.1777 28.0762-35.2539Z"/>
  </g>
  <g id="Bold-S" transform="matrix(1 0 0 1 2293.79 696)">
   <path d="M77.5391-66.5527C73.4375-70.6543 67.9199-71.6797 60.2051-71.6797L32.1289-71.6797C24.4629-71.6797 18.8965-70.6543 14.8438-66.5527C10.7422-62.4512 9.76562-57.0312 9.76562-49.2676L9.76562-21.2402C9.76562-13.4766 10.7422-8.00781 14.8438-3.95508C18.9453 0.146484 24.4629 1.17188 32.1777 1.17188L60.2051 1.17188C67.9199 1.17188 73.4375 0.146484 77.5391-3.95508C81.6406-8.05664 82.6172-13.4766 82.6172-21.2402L82.6172-49.2676C82.6172-57.0312 81.6406-62.5 77.5391-66.5527ZM27.4414-35.2539C27.4414-38.0371 29.4434-40.0879 32.2266-40.0879L41.3574-40.0879L41.3574-49.2188C41.3574-51.9531 43.3594-54.0039 46.1426-54.0039C48.9746-54.0039 51.0254-51.9531 51.0254-49.2188L51.0254-40.0879L60.1562-40.0879C62.8906-40.0879 64.8926-38.0371 64.8926-35.2539C64.8926-32.4707 62.8906-30.4199 60.1562-30.4199L51.0254-30.4199L51.0254-21.2891C51.0254-18.5547 48.9746-16.5039 46.1426-16.5039C43.3594-16.5039 41.3574-18.5547 41.3574-21.2891L41.3574-30.4199L32.2266-30.4199C29.4434-30.4199 27.4414-32.4707 27.4414-35.2539Z"/>
  </g>
  <g id="Semibold-S" transform="matrix(1 0 0 1 1997.54 696)">
   <path d="M76.8066-66.3086C72.7051-70.4102 67.041-71.2402 59.8633-71.2402L31.5918-71.2402C24.4141-71.2402 18.75-70.4102 14.6484-66.3086C10.5469-62.207 9.76562-56.6406 9.76562-49.4141L9.76562-21.1426C9.76562-13.916 10.5469-8.34961 14.6484-4.24805C18.7988-0.146484 24.4141 0.683594 31.5918 0.683594L59.8633 0.683594C67.041 0.683594 72.7051-0.146484 76.8066-4.24805C80.9082-8.34961 81.6895-13.916 81.6895-21.1426L81.6895-49.4141C81.6895-56.6406 80.9082-62.207 76.8066-66.3086ZM27.002-35.2051C27.002-37.8418 28.9062-39.6973 31.4941-39.6973L41.2598-39.6973L41.2598-49.5117C41.2598-52.0996 43.1152-53.9551 45.7031-53.9551C48.3398-53.9551 50.1953-52.0996 50.1953-49.5117L50.1953-39.6973L60.0098-39.6973C62.5977-39.6973 64.4531-37.8418 64.4531-35.2051C64.4531-32.6172 62.5977-30.8105 60.0098-30.8105L50.1953-30.8105L50.1953-20.9473C50.1953-18.4082 48.3398-16.5527 45.7031-16.5527C43.1152-16.5527 41.2598-18.4082 41.2598-20.9473L41.2598-30.8105L31.4941-30.8105C28.9062-30.8105 27.002-32.6172 27.002-35.2051Z"/>
  </g>
  <g id="Medium-S" transform="matrix(1 0 0 1 1701.17 696)">
   <path d="M76.2695-66.1133C72.1191-70.2148 66.4062-70.8984 59.6191-70.8984L31.1523-70.8984C24.3652-70.8984 18.6523-70.2148 14.5508-66.1133C10.4004-61.9629 9.76562-56.2988 9.76562-49.5117L9.76562-21.0449C9.76562-14.2578 10.4004-8.54492 14.5508-4.44336C18.6523-0.341797 24.3652 0.341797 31.1523 0.341797L59.6191 0.341797C66.4062 0.341797 72.1191-0.341797 76.2695-4.44336C80.3711-8.59375 81.0059-14.2578 81.0059-21.0449L81.0059-49.5117C81.0059-56.2988 80.3711-62.0117 76.2695-66.1133ZM26.709-35.2051C26.709-37.6953 28.4668-39.4043 30.9082-39.4043L41.2109-39.4043L41.2109-49.7559C41.2109-52.1973 42.9199-53.9551 45.3613-53.9551C47.8516-53.9551 49.5605-52.1973 49.5605-49.7559L49.5605-39.4043L59.9121-39.4043C62.3535-39.4043 64.0625-37.6953 64.0625-35.2051C64.0625-32.7637 62.3535-31.1035 59.9121-31.1035L49.5605-31.1035L49.5605-20.752C49.5605-18.3105 47.8516-16.5527 45.3613-16.5527C42.9199-16.5527 41.2109-18.3105 41.2109-20.752L41.2109-31.1035L30.9082-31.1035C28.4668-31.1035 26.709-32.7637 26.709-35.2051Z"/>
  </g>
  <g id="Regular-S" transform="matrix(1 0 0 1 1404.9 696)">
   <path d="M75.5371-65.8203C71.3867-69.9707 65.5762-70.459 59.2773-70.459L30.6152-70.459C24.3652-70.459 18.5059-69.9707 14.3555-65.8203C10.2539-61.7188 9.76562-55.9082 9.76562-49.6582L9.76562-20.9473C9.76562-14.6973 10.2539-8.88672 14.3555-4.73633C18.5059-0.634766 24.3164-0.0976562 30.6152-0.0976562L59.2773-0.0976562C65.5762-0.0976562 71.3867-0.634766 75.5371-4.73633C79.6387-8.88672 80.127-14.6973 80.127-20.9473L80.127-49.6094C80.127-55.9082 79.6387-61.7188 75.5371-65.8203ZM26.2695-35.2051C26.2695-37.5 27.8809-39.0625 30.1758-39.0625L41.1621-39.0625L41.1621-50.0488C41.1621-52.3438 42.6758-53.9062 44.9219-53.9062C47.2168-53.9062 48.7305-52.3438 48.7305-50.0488L48.7305-39.0625L59.7656-39.0625C62.0117-39.0625 63.623-37.5 63.623-35.2051C63.623-32.959 62.0117-31.4453 59.7656-31.4453L48.7305-31.4453L48.7305-20.459C48.7305-18.1641 47.2168-16.6016 44.9219-16.6016C42.6758-16.6016 41.1621-18.1641 41.1621-20.459L41.1621-31.4453L30.1758-31.4453C27.8809-31.4453 26.2695-32.959 26.2695-35.2051Z"/>
  </g>
  <g id="Light-S" transform="matrix(1 0 0 1 1108.87 696)">
   <path d="M74.3652-65.332C70.6543-69.043 65.4785-69.7266 58.7402-69.7266L29.6387-69.7266C23.0957-69.7266 17.8711-69.043 14.1602-65.332C10.4492-61.6211 9.76562-56.4453 9.76562-49.9023L9.76562-20.8008C9.76562-14.0137 10.4004-8.88672 14.1113-5.17578C17.8711-1.46484 23.0469-0.78125 29.7852-0.78125L58.7402-0.78125C65.4785-0.78125 70.6543-1.46484 74.3652-5.17578C78.125-8.88672 78.7598-14.0137 78.7598-20.8008L78.7598-49.707C78.7598-56.4453 78.125-61.6211 74.3652-65.332ZM26.0742-35.2051C26.0742-36.9629 27.2949-38.1836 29.0527-38.1836L41.3574-38.1836L41.3574-50.4883C41.3574-52.2461 42.5293-53.4668 44.1895-53.4668C45.9473-53.4668 47.168-52.2461 47.168-50.4883L47.168-38.1836L59.5215-38.1836C61.2305-38.1836 62.4512-36.9629 62.4512-35.2051C62.4512-33.5449 61.2305-32.373 59.5215-32.373L47.168-32.373L47.168-20.0195C47.168-18.3105 45.9473-17.0898 44.1895-17.0898C42.5293-17.0898 41.3574-18.3105 41.3574-20.0195L41.3574-32.373L29.0527-32.373C27.2949-32.373 26.0742-33.5449 26.0742-35.2051Z"/>
  </g>
  <g id="Thin-S" transform="matrix(1 0 0 1 813.063 696)">
   <path d="M72.9004-64.6973C69.6777-67.8711 65.332-68.7988 58.0078-68.7988L28.3691-68.7988C21.4355-68.7988 17.041-67.8223 13.8672-64.6484C10.6934-61.4746 9.76562-57.1289 9.76562-50.1953L9.76562-20.5566C9.76562-13.1836 10.6445-8.83789 13.8184-5.71289C17.041-2.53906 21.3867-1.61133 28.7109-1.61133L58.0078-1.61133C65.332-1.61133 69.7266-2.53906 72.9004-5.71289C76.0742-8.88672 76.9531-13.1836 76.9531-20.5566L76.9531-49.8047C76.9531-57.1777 76.0742-61.5234 72.9004-64.6973ZM25.7812-35.2539C25.7812-36.2793 26.5137-37.0605 27.5391-37.0605L41.6016-37.0605L41.6016-51.0742C41.6016-52.0996 42.334-52.8809 43.3105-52.8809C44.3359-52.8809 45.1172-52.1484 45.1172-51.0742L45.1172-37.0605L59.1797-37.0605C60.2051-37.0605 60.9375-36.2793 60.9375-35.2539C60.9375-34.2773 60.1562-33.5449 59.1797-33.5449L45.1172-33.5449L45.1172-19.4824C45.1172-18.457 44.3359-17.7246 43.3105-17.7246C42.334-17.7246 41.6016-18.5059 41.6016-19.4824L41.6016-33.5449L27.5391-33.5449C26.5625-33.5449 25.7812-34.2773 25.7812-35.2539Z"/>
  </g>
  <g id="Ultralight-S" transform="matrix(1 0 0 1 516.84 696)">
   <path d="M72.1191-64.3555C69.1406-67.2363 65.2344-68.2617 57.6172-68.2617L27.6855-68.2617C20.6055-68.2617 16.6016-67.1875 13.7207-64.3066C10.791-61.377 9.76562-57.4707 9.76562-50.3418L9.76562-20.459C9.76562-12.7441 10.7422-8.83789 13.6719-6.00586C16.6016-3.07617 20.5078-2.05078 28.1738-2.05078L57.6172-2.05078C65.2344-2.05078 69.1895-3.07617 72.1191-6.00586C75-8.88672 75.9766-12.7441 75.9766-20.459L75.9766-49.9023C75.9766-57.5684 75-61.4746 72.1191-64.3555ZM25.6348-35.2539C25.6348-35.9375 26.123-36.4746 26.8066-36.4746L41.6992-36.4746L41.6992-51.416C41.6992-52.002 42.2363-52.5391 42.8223-52.5391C43.5059-52.5391 44.043-52.0508 44.043-51.416L44.043-36.4746L58.9844-36.4746C59.668-36.4746 60.1562-35.9375 60.1562-35.2539C60.1562-34.668 59.6191-34.1309 58.9844-34.1309L44.043-34.1309L44.043-19.1895C44.043-18.5547 43.5059-18.0176 42.8223-18.0176C42.2363-18.0176 41.6992-18.6035 41.6992-19.1895L41.6992-34.1309L26.8066-34.1309C26.1719-34.1309 25.6348-34.668 25.6348-35.2539Z"/>
  </g>
 </g>
</svg>
